{"glyphs":{"0":{"ha":600,"x_min":0,"x_max":561,"o":"m 150 56 q 167 95 150 79 q 206 111 183 111 q 231 106 219 111 q 256 111 242 111 q 281 106 269 111 q 306 111 292 111 q 331 106 319 111 q 356 111 342 111 q 394 95 378 111 q 411 56 411 79 q 394 17 411 33 q 356 0 378 0 q 331 6 342 0 q 306 0 319 0 q 281 6 292 0 q 256 0 269 0 q 231 6 242 0 q 206 0 219 0 q 167 17 183 0 q 150 56 150 33 m 367 156 q 358 164 367 156 q 350 195 350 172 q 367 234 350 218 q 406 250 383 250 q 431 244 419 250 q 456 250 442 250 q 494 234 478 250 q 511 195 511 218 q 494 156 511 172 q 456 139 478 139 q 431 144 442 139 q 406 139 419 139 q 367 156 383 139 m 67 156 q 58 164 67 156 q 50 195 50 172 q 67 234 50 218 q 106 250 83 250 q 131 244 119 250 q 156 250 142 250 q 194 234 178 250 q 211 195 211 218 q 194 156 211 172 q 156 139 178 139 q 131 144 142 139 q 106 139 119 139 q 67 156 83 139 m 417 294 q 408 303 417 294 q 400 334 400 311 q 417 373 400 357 q 456 389 433 389 q 481 383 469 389 q 506 389 492 389 q 544 373 528 389 q 561 334 561 357 q 544 294 561 311 q 506 278 528 278 q 481 283 492 278 q 456 278 469 278 q 417 294 433 278 m 17 294 q 8 303 17 294 q 0 334 0 311 q 17 373 0 357 q 56 389 33 389 q 81 383 69 389 q 106 389 92 389 q 144 373 128 389 q 161 334 161 357 q 144 294 161 311 q 106 278 128 278 q 81 283 92 278 q 56 278 69 278 q 17 294 33 278 m 417 433 q 408 442 417 433 q 400 473 400 450 q 417 512 400 496 q 456 528 433 528 q 481 522 469 528 q 506 528 492 528 q 544 512 528 528 q 561 473 561 496 q 544 433 561 450 q 506 417 528 417 q 481 422 492 417 q 456 417 469 417 q 417 433 433 417 m 17 433 q 8 442 17 433 q 0 473 0 450 q 17 512 0 496 q 56 528 33 528 q 81 522 69 528 q 106 528 92 528 q 144 512 128 528 q 161 473 161 496 q 144 433 161 450 q 106 417 128 417 q 81 422 92 417 q 56 417 69 417 q 17 433 33 417 m 417 572 q 408 581 417 572 q 400 612 400 589 q 417 651 400 635 q 456 667 433 667 q 481 661 469 667 q 506 667 492 667 q 544 651 528 667 q 561 612 561 635 q 544 572 561 589 q 506 556 528 556 q 481 561 492 556 q 456 556 469 556 q 417 572 433 556 m 17 572 q 8 581 17 572 q 0 612 0 589 q 17 651 0 635 q 56 667 33 667 q 81 661 69 667 q 106 667 92 667 q 144 651 128 667 q 161 612 161 635 q 144 572 161 589 q 106 556 128 556 q 81 561 92 556 q 56 556 69 556 q 17 572 33 556 m 367 711 q 358 719 367 711 q 350 751 350 728 q 367 790 350 774 q 406 806 383 806 q 431 800 419 806 q 456 806 442 806 q 494 790 478 806 q 511 751 511 774 q 494 711 511 728 q 456 694 478 694 q 431 700 442 694 q 406 694 419 694 q 367 711 383 694 m 67 711 q 58 719 67 711 q 50 751 50 728 q 67 790 50 774 q 106 806 83 806 q 131 800 119 806 q 156 806 142 806 q 194 790 178 806 q 211 751 211 774 q 194 711 211 728 q 156 694 178 694 q 131 700 142 694 q 106 694 119 694 q 67 711 83 694 m 167 850 q 158 858 167 850 q 150 890 150 867 q 167 928 150 913 q 206 944 183 944 q 231 939 219 944 q 256 944 242 944 q 281 939 269 944 q 306 944 292 944 q 331 939 319 944 q 356 944 342 944 q 394 928 378 944 q 411 890 411 913 q 394 850 411 867 q 356 833 378 833 q 331 839 342 833 q 306 833 319 833 q 281 839 292 833 q 256 833 269 833 q 231 839 242 833 q 206 833 219 833 q 167 850 183 833 z "},"1":{"ha":600,"x_min":100,"x_max":461,"o":"m 100 56 q 117 95 100 79 q 156 111 133 111 q 181 106 169 111 q 206 111 192 111 q 231 106 219 111 q 256 111 242 111 q 281 106 269 111 q 306 111 292 111 q 331 106 319 111 q 356 111 342 111 q 381 106 369 111 q 406 111 392 111 q 444 95 428 111 q 461 56 461 79 q 444 17 461 33 q 406 0 428 0 q 381 6 392 0 q 356 0 369 0 q 331 6 342 0 q 306 0 319 0 q 281 6 292 0 q 256 0 269 0 q 231 6 242 0 q 206 0 219 0 q 181 6 192 0 q 156 0 169 0 q 117 17 133 0 q 100 56 100 33 m 217 156 q 208 164 217 156 q 200 195 200 172 q 217 234 200 218 q 256 250 233 250 q 281 244 269 250 q 306 250 292 250 q 344 234 328 250 q 361 195 361 218 q 344 156 361 172 q 306 139 328 139 q 281 144 292 139 q 256 139 269 139 q 217 156 233 139 m 217 294 q 208 303 217 294 q 200 334 200 311 q 217 373 200 357 q 256 389 233 389 q 281 383 269 389 q 306 389 292 389 q 344 373 328 389 q 361 334 361 357 q 344 294 361 311 q 306 278 328 278 q 281 283 292 278 q 256 278 269 278 q 217 294 233 278 m 217 433 q 208 442 217 433 q 200 473 200 450 q 217 512 200 496 q 256 528 233 528 q 281 522 269 528 q 306 528 292 528 q 344 512 328 528 q 361 473 361 496 q 344 433 361 450 q 306 417 328 417 q 281 422 292 417 q 256 417 269 417 q 217 433 233 417 m 217 572 q 208 581 217 572 q 200 612 200 589 q 217 651 200 635 q 256 667 233 667 q 281 661 269 667 q 306 667 292 667 q 344 651 328 667 q 361 612 361 635 q 344 572 361 589 q 306 556 328 556 q 281 561 292 556 q 256 556 269 556 q 217 572 233 556 m 117 711 q 108 719 117 711 q 100 751 100 728 q 117 790 100 774 q 156 806 133 806 q 181 800 169 806 q 206 806 192 806 q 231 800 219 806 q 256 806 242 806 q 281 800 269 806 q 306 806 292 806 q 344 790 328 806 q 361 751 361 774 q 344 711 361 728 q 306 694 328 694 q 281 700 292 694 q 256 694 269 694 q 231 700 242 694 q 206 694 219 694 q 181 700 192 694 q 156 694 169 694 q 117 711 133 694 m 217 850 q 208 858 217 850 q 200 890 200 867 q 217 928 200 913 q 256 944 233 944 q 281 939 269 944 q 306 944 292 944 q 344 928 328 944 q 361 890 361 913 q 344 850 361 867 q 306 833 328 833 q 281 839 292 833 q 256 833 269 833 q 217 850 233 833 z "},"2":{"ha":600,"x_min":0,"x_max":561,"o":"m 0 56 q 17 95 0 79 q 56 111 33 111 q 81 106 69 111 q 106 111 92 111 q 131 106 119 111 q 156 111 142 111 q 181 106 169 111 q 206 111 192 111 q 231 106 219 111 q 256 111 242 111 q 281 106 269 111 q 306 111 292 111 q 331 106 319 111 q 356 111 342 111 q 381 106 369 111 q 406 111 392 111 q 431 106 419 111 q 456 111 442 111 q 481 106 469 111 q 506 111 492 111 q 544 95 528 111 q 561 56 561 79 q 544 17 561 33 q 506 0 528 0 q 481 6 492 0 q 456 0 469 0 q 431 6 442 0 q 406 0 419 0 q 381 6 392 0 q 356 0 369 0 q 331 6 342 0 q 306 0 319 0 q 281 6 292 0 q 256 0 269 0 q 231 6 242 0 q 206 0 219 0 q 181 6 192 0 q 156 0 169 0 q 131 6 142 0 q 106 0 119 0 q 81 6 92 0 q 56 0 69 0 q 17 17 33 0 q 0 56 0 33 m 117 156 q 108 164 117 156 q 100 195 100 172 q 117 234 100 218 q 156 250 133 250 q 181 244 169 250 q 206 250 192 250 q 244 234 228 250 q 261 195 261 218 q 244 156 261 172 q 206 139 228 139 q 181 144 192 139 q 156 139 169 139 q 117 156 133 139 m 217 294 q 208 303 217 294 q 200 334 200 311 q 217 373 200 357 q 256 389 233 389 q 281 383 269 389 q 306 389 292 389 q 344 373 328 389 q 361 334 361 357 q 344 294 361 311 q 306 278 328 278 q 281 283 292 278 q 256 278 269 278 q 217 294 233 278 m 317 433 q 308 442 317 433 q 300 473 300 450 q 317 512 300 496 q 356 528 333 528 q 381 522 369 528 q 406 528 392 528 q 444 512 428 528 q 461 473 461 496 q 444 433 461 450 q 406 417 428 417 q 381 422 392 417 q 356 417 369 417 q 317 433 333 417 m 417 572 q 408 581 417 572 q 400 612 400 589 q 417 651 400 635 q 456 667 433 667 q 481 661 469 667 q 506 667 492 667 q 544 651 528 667 q 561 612 561 635 q 544 572 561 589 q 506 556 528 556 q 481 561 492 556 q 456 556 469 556 q 417 572 433 556 m 417 711 q 408 719 417 711 q 400 751 400 728 q 417 790 400 774 q 456 806 433 806 q 481 800 469 806 q 506 806 492 806 q 544 790 528 806 q 561 751 561 774 q 544 711 561 728 q 506 694 528 694 q 481 700 492 694 q 456 694 469 694 q 417 711 433 694 m 17 711 q 8 719 17 711 q 0 751 0 728 q 17 790 0 774 q 56 806 33 806 q 81 800 69 806 q 106 806 92 806 q 144 790 128 806 q 161 751 161 774 q 144 711 161 728 q 106 694 128 694 q 81 700 92 694 q 56 694 69 694 q 17 711 33 694 m 67 850 q 58 858 67 850 q 50 890 50 867 q 67 928 50 913 q 106 944 83 944 q 131 939 119 944 q 156 944 142 944 q 181 939 169 944 q 206 944 192 944 q 231 939 219 944 q 256 944 242 944 q 281 939 269 944 q 306 944 292 944 q 331 939 319 944 q 356 944 342 944 q 381 939 369 944 q 406 944 392 944 q 431 939 419 944 q 456 944 442 944 q 494 928 478 944 q 511 890 511 913 q 494 850 511 867 q 456 833 478 833 q 431 839 442 833 q 406 833 419 833 q 381 839 392 833 q 356 833 369 833 q 331 839 342 833 q 306 833 319 833 q 281 839 292 833 q 256 833 269 833 q 231 839 242 833 q 206 833 219 833 q 181 839 192 833 q 156 833 169 833 q 131 839 142 833 q 106 833 119 833 q 67 850 83 833 z "},"3":{"ha":600,"x_min":0,"x_max":561,"o":"m 100 56 q 117 95 100 79 q 156 111 133 111 q 181 106 169 111 q 206 111 192 111 q 231 106 219 111 q 256 111 242 111 q 281 106 269 111 q 306 111 292 111 q 331 106 319 111 q 356 111 342 111 q 381 106 369 111 q 406 111 392 111 q 444 95 428 111 q 461 56 461 79 q 444 17 461 33 q 406 0 428 0 q 381 6 392 0 q 356 0 369 0 q 331 6 342 0 q 306 0 319 0 q 281 6 292 0 q 256 0 269 0 q 231 6 242 0 q 206 0 219 0 q 181 6 192 0 q 156 0 169 0 q 117 17 133 0 q 100 56 100 33 m 417 156 q 408 164 417 156 q 400 195 400 172 q 417 234 400 218 q 456 250 433 250 q 481 244 469 250 q 506 250 492 250 q 544 234 528 250 q 561 195 561 218 q 544 156 561 172 q 506 139 528 139 q 481 144 492 139 q 456 139 469 139 q 417 156 433 139 m 17 156 q 8 164 17 156 q 0 195 0 172 q 17 234 0 218 q 56 250 33 250 q 81 244 69 250 q 106 250 92 250 q 144 234 128 250 q 161 195 161 218 q 144 156 161 172 q 106 139 128 139 q 81 144 92 139 q 56 139 69 139 q 17 156 33 139 m 417 294 q 408 303 417 294 q 400 334 400 311 q 417 373 400 357 q 456 389 433 389 q 481 383 469 389 q 506 389 492 389 q 544 373 528 389 q 561 334 561 357 q 544 294 561 311 q 506 278 528 278 q 481 283 492 278 q 456 278 469 278 q 417 294 433 278 m 317 433 q 308 442 317 433 q 300 473 300 450 q 317 512 300 496 q 356 528 333 528 q 381 522 369 528 q 406 528 392 528 q 444 512 428 528 q 461 473 461 496 q 444 433 461 450 q 406 417 428 417 q 381 422 392 417 q 356 417 369 417 q 317 433 333 417 m 217 572 q 208 581 217 572 q 200 612 200 589 q 217 651 200 635 q 256 667 233 667 q 281 661 269 667 q 306 667 292 667 q 344 651 328 667 q 361 612 361 635 q 344 572 361 589 q 306 556 328 556 q 281 561 292 556 q 256 556 269 556 q 217 572 233 556 m 317 711 q 308 719 317 711 q 300 751 300 728 q 317 790 300 774 q 356 806 333 806 q 381 800 369 806 q 406 806 392 806 q 444 790 428 806 q 461 751 461 774 q 444 711 461 728 q 406 694 428 694 q 381 700 392 694 q 356 694 369 694 q 317 711 333 694 m 17 850 q 8 858 17 850 q 0 890 0 867 q 17 928 0 913 q 56 944 33 944 q 81 939 69 944 q 106 944 92 944 q 131 939 119 944 q 156 944 142 944 q 181 939 169 944 q 206 944 192 944 q 231 939 219 944 q 256 944 242 944 q 281 939 269 944 q 306 944 292 944 q 331 939 319 944 q 356 944 342 944 q 381 939 369 944 q 406 944 392 944 q 431 939 419 944 q 456 944 442 944 q 481 939 469 944 q 506 944 492 944 q 544 928 528 944 q 561 890 561 913 q 544 850 561 867 q 506 833 528 833 q 481 839 492 833 q 456 833 469 833 q 431 839 442 833 q 406 833 419 833 q 381 839 392 833 q 356 833 369 833 q 331 839 342 833 q 306 833 319 833 q 281 839 292 833 q 256 833 269 833 q 231 839 242 833 q 206 833 219 833 q 181 839 192 833 q 156 833 169 833 q 131 839 142 833 q 106 833 119 833 q 81 839 92 833 q 56 833 69 833 q 17 850 33 833 z "},"4":{"ha":600,"x_min":0,"x_max":561,"o":"m 300 56 q 317 95 300 79 q 356 111 333 111 q 381 106 369 111 q 406 111 392 111 q 444 95 428 111 q 461 56 461 79 q 444 17 461 33 q 406 0 428 0 q 381 6 392 0 q 356 0 369 0 q 317 17 333 0 q 300 56 300 33 m 317 156 q 308 164 317 156 q 300 195 300 172 q 317 234 300 218 q 356 250 333 250 q 381 244 369 250 q 406 250 392 250 q 444 234 428 250 q 461 195 461 218 q 444 156 461 172 q 406 139 428 139 q 381 144 392 139 q 356 139 369 139 q 317 156 333 139 m 17 294 q 8 303 17 294 q 0 334 0 311 q 17 373 0 357 q 56 389 33 389 q 81 383 69 389 q 106 389 92 389 q 131 383 119 389 q 156 389 142 389 q 181 383 169 389 q 206 389 192 389 q 231 383 219 389 q 256 389 242 389 q 281 383 269 389 q 306 389 292 389 q 331 383 319 389 q 356 389 342 389 q 381 383 369 389 q 406 389 392 389 q 431 383 419 389 q 456 389 442 389 q 481 383 469 389 q 506 389 492 389 q 544 373 528 389 q 561 334 561 357 q 544 294 561 311 q 506 278 528 278 q 481 283 492 278 q 456 278 469 278 q 431 283 442 278 q 406 278 419 278 q 381 283 392 278 q 356 278 369 278 q 331 283 342 278 q 306 278 319 278 q 281 283 292 278 q 256 278 269 278 q 231 283 242 278 q 206 278 219 278 q 181 283 192 278 q 156 278 169 278 q 131 283 142 278 q 106 278 119 278 q 81 283 92 278 q 56 278 69 278 q 17 294 33 278 m 317 433 q 308 442 317 433 q 300 473 300 450 q 317 512 300 496 q 356 528 333 528 q 381 522 369 528 q 406 528 392 528 q 444 512 428 528 q 461 473 461 496 q 444 433 461 450 q 406 417 428 417 q 381 422 392 417 q 356 417 369 417 q 317 433 333 417 m 67 433 q 58 442 67 433 q 50 473 50 450 q 67 512 50 496 q 106 528 83 528 q 131 522 119 528 q 156 528 142 528 q 194 512 178 528 q 211 473 211 496 q 194 433 211 450 q 156 417 178 417 q 131 422 142 417 q 106 417 119 417 q 67 433 83 417 m 317 572 q 308 581 317 572 q 300 612 300 589 q 317 651 300 635 q 356 667 333 667 q 381 661 369 667 q 406 667 392 667 q 444 651 428 667 q 461 612 461 635 q 444 572 461 589 q 406 556 428 556 q 381 561 392 556 q 356 556 369 556 q 317 572 333 556 m 117 572 q 108 581 117 572 q 100 612 100 589 q 117 651 100 635 q 156 667 133 667 q 181 661 169 667 q 206 667 192 667 q 244 651 228 667 q 261 612 261 635 q 244 572 261 589 q 206 556 228 556 q 181 561 192 556 q 156 556 169 556 q 117 572 133 556 m 167 711 q 158 719 167 711 q 150 751 150 728 q 167 790 150 774 q 206 806 183 806 q 231 800 219 806 q 256 806 242 806 q 306 774 290 806 q 356 806 321 806 q 381 800 369 806 q 406 806 392 806 q 444 790 428 806 q 461 751 461 774 q 444 711 461 728 q 406 694 428 694 q 381 700 392 694 q 356 694 369 694 q 306 726 321 694 q 256 694 290 694 q 231 700 242 694 q 206 694 219 694 q 167 711 183 694 m 217 850 q 208 858 217 850 q 200 890 200 867 q 217 928 200 913 q 256 944 233 944 q 281 939 269 944 q 306 944 292 944 q 331 939 319 944 q 356 944 342 944 q 381 939 369 944 q 406 944 392 944 q 444 928 428 944 q 461 890 461 913 q 444 850 461 867 q 406 833 428 833 q 381 839 392 833 q 356 833 369 833 q 331 839 342 833 q 306 833 319 833 q 281 839 292 833 q 256 833 269 833 q 217 850 233 833 z "},"5":{"ha":600,"x_min":0,"x_max":561,"o":"m 50 56 q 67 95 50 79 q 106 111 83 111 q 131 106 119 111 q 156 111 142 111 q 181 106 169 111 q 206 111 192 111 q 231 106 219 111 q 256 111 242 111 q 281 106 269 111 q 306 111 292 111 q 331 106 319 111 q 356 111 342 111 q 381 106 369 111 q 406 111 392 111 q 431 106 419 111 q 456 111 442 111 q 494 95 478 111 q 511 56 511 79 q 494 17 511 33 q 456 0 478 0 q 431 6 442 0 q 406 0 419 0 q 381 6 392 0 q 356 0 369 0 q 331 6 342 0 q 306 0 319 0 q 281 6 292 0 q 256 0 269 0 q 231 6 242 0 q 206 0 219 0 q 181 6 192 0 q 156 0 169 0 q 131 6 142 0 q 106 0 119 0 q 67 17 83 0 q 50 56 50 33 m 417 156 q 408 164 417 156 q 400 195 400 172 q 417 234 400 218 q 456 250 433 250 q 481 244 469 250 q 506 250 492 250 q 544 234 528 250 q 561 195 561 218 q 544 156 561 172 q 506 139 528 139 q 481 144 492 139 q 456 139 469 139 q 417 156 433 139 m 17 156 q 8 164 17 156 q 0 195 0 172 q 17 234 0 218 q 56 250 33 250 q 81 244 69 250 q 106 250 92 250 q 144 234 128 250 q 161 195 161 218 q 144 156 161 172 q 106 139 128 139 q 81 144 92 139 q 56 139 69 139 q 17 156 33 139 m 417 294 q 408 303 417 294 q 400 334 400 311 q 417 373 400 357 q 456 389 433 389 q 481 383 469 389 q 506 389 492 389 q 544 373 528 389 q 561 334 561 357 q 544 294 561 311 q 506 278 528 278 q 481 283 492 278 q 456 278 469 278 q 417 294 433 278 m 417 433 q 408 442 417 433 q 400 473 400 450 q 417 512 400 496 q 456 528 433 528 q 481 522 469 528 q 506 528 492 528 q 544 512 528 528 q 561 473 561 496 q 544 433 561 450 q 506 417 528 417 q 481 422 492 417 q 456 417 469 417 q 417 433 433 417 m 17 572 q 8 581 17 572 q 0 612 0 589 q 17 651 0 635 q 56 667 33 667 q 81 661 69 667 q 106 667 92 667 q 131 661 119 667 q 156 667 142 667 q 181 661 169 667 q 206 667 192 667 q 231 661 219 667 q 256 667 242 667 q 281 661 269 667 q 306 667 292 667 q 331 661 319 667 q 356 667 342 667 q 381 661 369 667 q 406 667 392 667 q 444 651 428 667 q 461 612 461 635 q 444 572 461 589 q 406 556 428 556 q 381 561 392 556 q 356 556 369 556 q 331 561 342 556 q 306 556 319 556 q 281 561 292 556 q 256 556 269 556 q 231 561 242 556 q 206 556 219 556 q 181 561 192 556 q 156 556 169 556 q 131 561 142 556 q 106 556 119 556 q 81 561 92 556 q 56 556 69 556 q 17 572 33 556 m 17 711 q 8 719 17 711 q 0 751 0 728 q 17 790 0 774 q 56 806 33 806 q 81 800 69 806 q 106 806 92 806 q 144 790 128 806 q 161 751 161 774 q 144 711 161 728 q 106 694 128 694 q 81 700 92 694 q 56 694 69 694 q 17 711 33 694 m 17 850 q 8 858 17 850 q 0 890 0 867 q 17 928 0 913 q 56 944 33 944 q 81 939 69 944 q 106 944 92 944 q 131 939 119 944 q 156 944 142 944 q 181 939 169 944 q 206 944 192 944 q 231 939 219 944 q 256 944 242 944 q 281 939 269 944 q 306 944 292 944 q 331 939 319 944 q 356 944 342 944 q 381 939 369 944 q 406 944 392 944 q 431 939 419 944 q 456 944 442 944 q 481 939 469 944 q 506 944 492 944 q 544 928 528 944 q 561 890 561 913 q 544 850 561 867 q 506 833 528 833 q 481 839 492 833 q 456 833 469 833 q 431 839 442 833 q 406 833 419 833 q 381 839 392 833 q 356 833 369 833 q 331 839 342 833 q 306 833 319 833 q 281 839 292 833 q 256 833 269 833 q 231 839 242 833 q 206 833 219 833 q 181 839 192 833 q 156 833 169 833 q 131 839 142 833 q 106 833 119 833 q 81 839 92 833 q 56 833 69 833 q 17 850 33 833 z "},"6":{"ha":600,"x_min":0,"x_max":561,"o":"m 50 56 q 67 95 50 79 q 106 111 83 111 q 131 106 119 111 q 156 111 142 111 q 181 106 169 111 q 206 111 192 111 q 231 106 219 111 q 256 111 242 111 q 281 106 269 111 q 306 111 292 111 q 331 106 319 111 q 356 111 342 111 q 381 106 369 111 q 406 111 392 111 q 431 106 419 111 q 456 111 442 111 q 494 95 478 111 q 511 56 511 79 q 494 17 511 33 q 456 0 478 0 q 431 6 442 0 q 406 0 419 0 q 381 6 392 0 q 356 0 369 0 q 331 6 342 0 q 306 0 319 0 q 281 6 292 0 q 256 0 269 0 q 231 6 242 0 q 206 0 219 0 q 181 6 192 0 q 156 0 169 0 q 131 6 142 0 q 106 0 119 0 q 67 17 83 0 q 50 56 50 33 m 417 156 q 408 164 417 156 q 400 195 400 172 q 417 234 400 218 q 456 250 433 250 q 481 244 469 250 q 506 250 492 250 q 544 234 528 250 q 561 195 561 218 q 544 156 561 172 q 506 139 528 139 q 481 144 492 139 q 456 139 469 139 q 417 156 433 139 m 17 156 q 8 164 17 156 q 0 195 0 172 q 17 234 0 218 q 56 250 33 250 q 81 244 69 250 q 106 250 92 250 q 144 234 128 250 q 161 195 161 218 q 144 156 161 172 q 106 139 128 139 q 81 144 92 139 q 56 139 69 139 q 17 156 33 139 m 417 294 q 408 303 417 294 q 400 334 400 311 q 417 373 400 357 q 456 389 433 389 q 481 383 469 389 q 506 389 492 389 q 544 373 528 389 q 561 334 561 357 q 544 294 561 311 q 506 278 528 278 q 481 283 492 278 q 456 278 469 278 q 417 294 433 278 m 17 294 q 8 303 17 294 q 0 334 0 311 q 17 373 0 357 q 56 389 33 389 q 81 383 69 389 q 106 389 92 389 q 144 373 128 389 q 161 334 161 357 q 144 294 161 311 q 106 278 128 278 q 81 283 92 278 q 56 278 69 278 q 17 294 33 278 m 67 433 q 58 442 67 433 q 50 473 50 450 q 67 512 50 496 q 106 528 83 528 q 131 522 119 528 q 156 528 142 528 q 181 522 169 528 q 206 528 192 528 q 231 522 219 528 q 256 528 242 528 q 281 522 269 528 q 306 528 292 528 q 331 522 319 528 q 356 528 342 528 q 381 522 369 528 q 406 528 392 528 q 431 522 419 528 q 456 528 442 528 q 494 512 478 528 q 511 473 511 496 q 494 433 511 450 q 456 417 478 417 q 431 422 442 417 q 406 417 419 417 q 381 422 392 417 q 356 417 369 417 q 331 422 342 417 q 306 417 319 417 q 281 422 292 417 q 256 417 269 417 q 231 422 242 417 q 206 417 219 417 q 181 422 192 417 q 156 417 169 417 q 131 422 142 417 q 106 417 119 417 q 67 433 83 417 m 117 572 q 108 581 117 572 q 100 612 100 589 q 117 651 100 635 q 156 667 133 667 q 181 661 169 667 q 206 667 192 667 q 244 651 228 667 q 261 612 261 635 q 244 572 261 589 q 206 556 228 556 q 181 561 192 556 q 156 556 169 556 q 117 572 133 556 m 167 711 q 158 719 167 711 q 150 751 150 728 q 167 790 150 774 q 206 806 183 806 q 231 800 219 806 q 256 806 242 806 q 294 790 278 806 q 311 751 311 774 q 294 711 311 728 q 256 694 278 694 q 231 700 242 694 q 206 694 219 694 q 167 711 183 694 m 217 850 q 208 858 217 850 q 200 890 200 867 q 217 928 200 913 q 256 944 233 944 q 281 939 269 944 q 306 944 292 944 q 344 928 328 944 q 361 890 361 913 q 344 850 361 867 q 306 833 328 833 q 281 839 292 833 q 256 833 269 833 q 217 850 233 833 z "},"7":{"ha":600,"x_min":0,"x_max":561,"o":"m 100 56 q 117 95 100 79 q 156 111 133 111 q 181 106 169 111 q 206 111 192 111 q 244 95 228 111 q 261 56 261 79 q 244 17 261 33 q 206 0 228 0 q 181 6 192 0 q 156 0 169 0 q 117 17 133 0 q 100 56 100 33 m 167 156 q 158 164 167 156 q 150 195 150 172 q 167 234 150 218 q 206 250 183 250 q 231 244 219 250 q 256 250 242 250 q 294 234 278 250 q 311 195 311 218 q 294 156 311 172 q 256 139 278 139 q 231 144 242 139 q 206 139 219 139 q 167 156 183 139 m 217 294 q 208 303 217 294 q 200 334 200 311 q 217 373 200 357 q 256 389 233 389 q 281 383 269 389 q 306 389 292 389 q 344 373 328 389 q 361 334 361 357 q 344 294 361 311 q 306 278 328 278 q 281 283 292 278 q 256 278 269 278 q 217 294 233 278 m 267 433 q 258 442 267 433 q 250 473 250 450 q 267 512 250 496 q 306 528 283 528 q 331 522 319 528 q 356 528 342 528 q 394 512 378 528 q 411 473 411 496 q 394 433 411 450 q 356 417 378 417 q 331 422 342 417 q 306 417 319 417 q 267 433 283 417 m 317 572 q 308 581 317 572 q 300 612 300 589 q 317 651 300 635 q 356 667 333 667 q 381 661 369 667 q 406 667 392 667 q 444 651 428 667 q 461 612 461 635 q 444 572 461 589 q 406 556 428 556 q 381 561 392 556 q 356 556 369 556 q 317 572 333 556 m 367 711 q 358 719 367 711 q 350 751 350 728 q 367 790 350 774 q 406 806 383 806 q 431 800 419 806 q 456 806 442 806 q 494 790 478 806 q 511 751 511 774 q 494 711 511 728 q 456 694 478 694 q 431 700 442 694 q 406 694 419 694 q 367 711 383 694 m 17 850 q 8 858 17 850 q 0 890 0 867 q 17 928 0 913 q 56 944 33 944 q 81 939 69 944 q 106 944 92 944 q 131 939 119 944 q 156 944 142 944 q 181 939 169 944 q 206 944 192 944 q 231 939 219 944 q 256 944 242 944 q 281 939 269 944 q 306 944 292 944 q 331 939 319 944 q 356 944 342 944 q 381 939 369 944 q 406 944 392 944 q 431 939 419 944 q 456 944 442 944 q 481 939 469 944 q 506 944 492 944 q 544 928 528 944 q 561 890 561 913 q 544 850 561 867 q 506 833 528 833 q 481 839 492 833 q 456 833 469 833 q 431 839 442 833 q 406 833 419 833 q 381 839 392 833 q 356 833 369 833 q 331 839 342 833 q 306 833 319 833 q 281 839 292 833 q 256 833 269 833 q 231 839 242 833 q 206 833 219 833 q 181 839 192 833 q 156 833 169 833 q 131 839 142 833 q 106 833 119 833 q 81 839 92 833 q 56 833 69 833 q 17 850 33 833 z "},"8":{"ha":600,"x_min":0,"x_max":561,"o":"m 50 56 q 67 95 50 79 q 106 111 83 111 q 131 106 119 111 q 156 111 142 111 q 181 106 169 111 q 206 111 192 111 q 231 106 219 111 q 256 111 242 111 q 281 106 269 111 q 306 111 292 111 q 331 106 319 111 q 356 111 342 111 q 381 106 369 111 q 406 111 392 111 q 431 106 419 111 q 456 111 442 111 q 494 95 478 111 q 511 56 511 79 q 494 17 511 33 q 456 0 478 0 q 431 6 442 0 q 406 0 419 0 q 381 6 392 0 q 356 0 369 0 q 331 6 342 0 q 306 0 319 0 q 281 6 292 0 q 256 0 269 0 q 231 6 242 0 q 206 0 219 0 q 181 6 192 0 q 156 0 169 0 q 131 6 142 0 q 106 0 119 0 q 67 17 83 0 q 50 56 50 33 m 417 156 q 408 164 417 156 q 400 195 400 172 q 417 234 400 218 q 456 250 433 250 q 481 244 469 250 q 506 250 492 250 q 544 234 528 250 q 561 195 561 218 q 544 156 561 172 q 506 139 528 139 q 481 144 492 139 q 456 139 469 139 q 417 156 433 139 m 17 156 q 8 164 17 156 q 0 195 0 172 q 17 234 0 218 q 56 250 33 250 q 81 244 69 250 q 106 250 92 250 q 144 234 128 250 q 161 195 161 218 q 144 156 161 172 q 106 139 128 139 q 81 144 92 139 q 56 139 69 139 q 17 156 33 139 m 417 294 q 408 303 417 294 q 400 334 400 311 q 417 373 400 357 q 456 389 433 389 q 481 383 469 389 q 506 389 492 389 q 544 373 528 389 q 561 334 561 357 q 544 294 561 311 q 506 278 528 278 q 481 283 492 278 q 456 278 469 278 q 417 294 433 278 m 17 294 q 8 303 17 294 q 0 334 0 311 q 17 373 0 357 q 56 389 33 389 q 81 383 69 389 q 106 389 92 389 q 144 373 128 389 q 161 334 161 357 q 144 294 161 311 q 106 278 128 278 q 81 283 92 278 q 56 278 69 278 q 17 294 33 278 m 67 433 q 58 442 67 433 q 50 473 50 450 q 67 512 50 496 q 106 528 83 528 q 131 522 119 528 q 156 528 142 528 q 181 522 169 528 q 206 528 192 528 q 231 522 219 528 q 256 528 242 528 q 281 522 269 528 q 306 528 292 528 q 331 522 319 528 q 356 528 342 528 q 381 522 369 528 q 406 528 392 528 q 431 522 419 528 q 456 528 442 528 q 494 512 478 528 q 511 473 511 496 q 494 433 511 450 q 456 417 478 417 q 431 422 442 417 q 406 417 419 417 q 381 422 392 417 q 356 417 369 417 q 331 422 342 417 q 306 417 319 417 q 281 422 292 417 q 256 417 269 417 q 231 422 242 417 q 206 417 219 417 q 181 422 192 417 q 156 417 169 417 q 131 422 142 417 q 106 417 119 417 q 67 433 83 417 m 417 572 q 408 581 417 572 q 400 612 400 589 q 417 651 400 635 q 456 667 433 667 q 481 661 469 667 q 506 667 492 667 q 544 651 528 667 q 561 612 561 635 q 544 572 561 589 q 506 556 528 556 q 481 561 492 556 q 456 556 469 556 q 417 572 433 556 m 17 572 q 8 581 17 572 q 0 612 0 589 q 17 651 0 635 q 56 667 33 667 q 81 661 69 667 q 106 667 92 667 q 144 651 128 667 q 161 612 161 635 q 144 572 161 589 q 106 556 128 556 q 81 561 92 556 q 56 556 69 556 q 17 572 33 556 m 417 711 q 408 719 417 711 q 400 751 400 728 q 417 790 400 774 q 456 806 433 806 q 481 800 469 806 q 506 806 492 806 q 544 790 528 806 q 561 751 561 774 q 544 711 561 728 q 506 694 528 694 q 481 700 492 694 q 456 694 469 694 q 417 711 433 694 m 17 711 q 8 719 17 711 q 0 751 0 728 q 17 790 0 774 q 56 806 33 806 q 81 800 69 806 q 106 806 92 806 q 144 790 128 806 q 161 751 161 774 q 144 711 161 728 q 106 694 128 694 q 81 700 92 694 q 56 694 69 694 q 17 711 33 694 m 67 850 q 58 858 67 850 q 50 890 50 867 q 67 928 50 913 q 106 944 83 944 q 131 939 119 944 q 156 944 142 944 q 181 939 169 944 q 206 944 192 944 q 231 939 219 944 q 256 944 242 944 q 281 939 269 944 q 306 944 292 944 q 331 939 319 944 q 356 944 342 944 q 381 939 369 944 q 406 944 392 944 q 431 939 419 944 q 456 944 442 944 q 494 928 478 944 q 511 890 511 913 q 494 850 511 867 q 456 833 478 833 q 431 839 442 833 q 406 833 419 833 q 381 839 392 833 q 356 833 369 833 q 331 839 342 833 q 306 833 319 833 q 281 839 292 833 q 256 833 269 833 q 231 839 242 833 q 206 833 219 833 q 181 839 192 833 q 156 833 169 833 q 131 839 142 833 q 106 833 119 833 q 67 850 83 833 z "},"9":{"ha":600,"x_min":0,"x_max":561,"o":"m 200 56 q 217 95 200 79 q 256 111 233 111 q 281 106 269 111 q 306 111 292 111 q 344 95 328 111 q 361 56 361 79 q 344 17 361 33 q 306 0 328 0 q 281 6 292 0 q 256 0 269 0 q 217 17 233 0 q 200 56 200 33 m 267 156 q 258 164 267 156 q 250 195 250 172 q 267 234 250 218 q 306 250 283 250 q 331 244 319 250 q 356 250 342 250 q 394 234 378 250 q 411 195 411 218 q 394 156 411 172 q 356 139 378 139 q 331 144 342 139 q 306 139 319 139 q 267 156 283 139 m 317 294 q 308 303 317 294 q 300 334 300 311 q 317 373 300 357 q 356 389 333 389 q 381 383 369 389 q 406 389 392 389 q 444 373 428 389 q 461 334 461 357 q 444 294 461 311 q 406 278 428 278 q 381 283 392 278 q 356 278 369 278 q 317 294 333 278 m 67 433 q 58 442 67 433 q 50 473 50 450 q 67 512 50 496 q 106 528 83 528 q 131 522 119 528 q 156 528 142 528 q 181 522 169 528 q 206 528 192 528 q 231 522 219 528 q 256 528 242 528 q 281 522 269 528 q 306 528 292 528 q 331 522 319 528 q 356 528 342 528 q 381 522 369 528 q 406 528 392 528 q 431 522 419 528 q 456 528 442 528 q 494 512 478 528 q 511 473 511 496 q 494 433 511 450 q 456 417 478 417 q 431 422 442 417 q 406 417 419 417 q 381 422 392 417 q 356 417 369 417 q 331 422 342 417 q 306 417 319 417 q 281 422 292 417 q 256 417 269 417 q 231 422 242 417 q 206 417 219 417 q 181 422 192 417 q 156 417 169 417 q 131 422 142 417 q 106 417 119 417 q 67 433 83 417 m 417 572 q 408 581 417 572 q 400 612 400 589 q 417 651 400 635 q 456 667 433 667 q 481 661 469 667 q 506 667 492 667 q 544 651 528 667 q 561 612 561 635 q 544 572 561 589 q 506 556 528 556 q 481 561 492 556 q 456 556 469 556 q 417 572 433 556 m 17 572 q 8 581 17 572 q 0 612 0 589 q 17 651 0 635 q 56 667 33 667 q 81 661 69 667 q 106 667 92 667 q 144 651 128 667 q 161 612 161 635 q 144 572 161 589 q 106 556 128 556 q 81 561 92 556 q 56 556 69 556 q 17 572 33 556 m 417 711 q 408 719 417 711 q 400 751 400 728 q 417 790 400 774 q 456 806 433 806 q 481 800 469 806 q 506 806 492 806 q 544 790 528 806 q 561 751 561 774 q 544 711 561 728 q 506 694 528 694 q 481 700 492 694 q 456 694 469 694 q 417 711 433 694 m 17 711 q 8 719 17 711 q 0 751 0 728 q 17 790 0 774 q 56 806 33 806 q 81 800 69 806 q 106 806 92 806 q 144 790 128 806 q 161 751 161 774 q 144 711 161 728 q 106 694 128 694 q 81 700 92 694 q 56 694 69 694 q 17 711 33 694 m 67 850 q 58 858 67 850 q 50 890 50 867 q 67 928 50 913 q 106 944 83 944 q 131 939 119 944 q 156 944 142 944 q 181 939 169 944 q 206 944 192 944 q 231 939 219 944 q 256 944 242 944 q 281 939 269 944 q 306 944 292 944 q 331 939 319 944 q 356 944 342 944 q 381 939 369 944 q 406 944 392 944 q 431 939 419 944 q 456 944 442 944 q 494 928 478 944 q 511 890 511 913 q 494 850 511 867 q 456 833 478 833 q 431 839 442 833 q 406 833 419 833 q 381 839 392 833 q 356 833 369 833 q 331 839 342 833 q 306 833 319 833 q 281 839 292 833 q 256 833 269 833 q 231 839 242 833 q 206 833 219 833 q 181 839 192 833 q 156 833 169 833 q 131 839 142 833 q 106 833 119 833 q 67 850 83 833 z "},"Ç":{"ha":600,"x_min":0,"x_max":561,"o":"m 0 -222 q 17 -183 0 -199 q 56 -167 33 -167 q 81 -172 69 -167 q 106 -167 92 -167 q 131 -172 119 -167 q 156 -167 142 -167 q 181 -172 169 -167 q 206 -167 192 -167 q 231 -172 219 -167 q 256 -167 242 -167 q 281 -172 269 -167 q 306 -167 292 -167 q 331 -172 319 -167 q 356 -167 342 -167 q 381 -172 369 -167 q 406 -167 392 -167 q 431 -172 419 -167 q 456 -167 442 -167 q 481 -172 469 -167 q 506 -167 492 -167 q 544 -183 528 -167 q 561 -222 561 -199 q 544 -261 561 -244 q 506 -278 528 -278 q 481 -272 492 -278 q 456 -278 469 -278 q 431 -272 442 -278 q 406 -278 419 -278 q 381 -272 392 -278 q 356 -278 369 -278 q 331 -272 342 -278 q 306 -278 319 -278 q 281 -272 292 -278 q 256 -278 269 -278 q 231 -272 242 -278 q 206 -278 219 -278 q 181 -272 192 -278 q 156 -278 169 -278 q 131 -272 142 -278 q 106 -278 119 -278 q 81 -272 92 -278 q 56 -278 69 -278 q 17 -261 33 -278 q 0 -222 0 -244 m 417 -122 q 408 -114 417 -122 q 400 -83 400 -106 q 417 -44 400 -60 q 456 -28 433 -28 q 481 -33 469 -28 q 506 -28 492 -28 q 544 -44 528 -28 q 561 -83 561 -60 q 544 -122 561 -106 q 506 -139 528 -139 q 481 -133 492 -139 q 456 -139 469 -139 q 417 -122 433 -139 m 17 -122 q 8 -114 17 -122 q 0 -83 0 -106 q 17 -44 0 -60 q 56 -28 33 -28 q 81 -33 69 -28 q 106 -28 92 -28 q 144 -44 128 -28 q 161 -83 161 -60 q 144 -122 161 -106 q 106 -139 128 -139 q 81 -133 92 -139 q 56 -139 69 -139 q 17 -122 33 -139 m 317 17 q 308 25 317 17 q 300 56 300 33 q 317 95 300 79 q 356 111 333 111 q 381 106 369 111 q 406 111 392 111 q 431 106 419 111 q 456 111 442 111 q 481 106 469 111 q 506 111 492 111 q 544 95 528 111 q 561 56 561 79 q 544 17 561 33 q 506 0 528 0 q 481 6 492 0 q 456 0 469 0 q 431 6 442 0 q 406 0 419 0 q 381 6 392 0 q 356 0 369 0 q 317 17 333 0 m 17 17 q 8 25 17 17 q 0 56 0 33 q 17 95 0 79 q 56 111 33 111 q 81 106 69 111 q 106 111 92 111 q 131 106 119 111 q 156 111 142 111 q 181 106 169 111 q 206 111 192 111 q 244 95 228 111 q 261 56 261 79 q 244 17 261 33 q 206 0 228 0 q 181 6 192 0 q 156 0 169 0 q 131 6 142 0 q 106 0 119 0 q 81 6 92 0 q 56 0 69 0 q 17 17 33 0 m 17 156 q 8 164 17 156 q 0 195 0 172 q 17 234 0 218 q 56 250 33 250 q 81 244 69 250 q 106 250 92 250 q 156 218 140 250 q 206 250 171 250 q 231 244 219 250 q 256 250 242 250 q 281 244 269 250 q 306 250 292 250 q 331 244 319 250 q 356 250 342 250 q 406 218 390 250 q 456 250 421 250 q 481 244 469 250 q 506 250 492 250 q 544 234 528 250 q 561 195 561 218 q 544 156 561 172 q 506 139 528 139 q 481 144 492 139 q 456 139 469 139 q 406 171 421 139 q 356 139 390 139 q 331 144 342 139 q 306 139 319 139 q 281 144 292 139 q 256 139 269 139 q 231 144 242 139 q 206 139 219 139 q 156 171 171 139 q 106 139 140 139 q 81 144 92 139 q 56 139 69 139 q 17 156 33 139 m 417 294 q 408 303 417 294 q 400 334 400 311 q 417 373 400 357 q 456 389 433 389 q 481 383 469 389 q 506 389 492 389 q 544 373 528 389 q 561 334 561 357 q 544 294 561 311 q 506 278 528 278 q 481 283 492 278 q 456 278 469 278 q 417 294 433 278 m 217 294 q 208 303 217 294 q 200 334 200 311 q 217 373 200 357 q 256 389 233 389 q 281 383 269 389 q 306 389 292 389 q 344 373 328 389 q 361 334 361 357 q 344 294 361 311 q 306 278 328 278 q 281 283 292 278 q 256 278 269 278 q 217 294 233 278 m 17 294 q 8 303 17 294 q 0 334 0 311 q 17 373 0 357 q 56 389 33 389 q 81 383 69 389 q 106 389 92 389 q 144 373 128 389 q 161 334 161 357 q 144 294 161 311 q 106 278 128 278 q 81 283 92 278 q 56 278 69 278 q 17 294 33 278 m 17 433 q 8 442 17 433 q 0 473 0 450 q 17 512 0 496 q 56 528 33 528 q 81 522 69 528 q 106 528 92 528 q 156 496 140 528 q 206 528 171 528 q 231 522 219 528 q 256 528 242 528 q 281 522 269 528 q 306 528 292 528 q 331 522 319 528 q 356 528 342 528 q 406 496 390 528 q 456 528 421 528 q 481 522 469 528 q 506 528 492 528 q 544 512 528 528 q 561 473 561 496 q 544 433 561 450 q 506 417 528 417 q 481 422 492 417 q 456 417 469 417 q 406 449 421 417 q 356 417 390 417 q 331 422 342 417 q 306 417 319 417 q 281 422 292 417 q 256 417 269 417 q 231 422 242 417 q 206 417 219 417 q 156 449 171 417 q 106 417 140 417 q 81 422 92 417 q 56 417 69 417 q 17 433 33 417 m 317 572 q 308 581 317 572 q 300 612 300 589 q 317 651 300 635 q 356 667 333 667 q 381 661 369 667 q 406 667 392 667 q 431 661 419 667 q 456 667 442 667 q 481 661 469 667 q 506 667 492 667 q 544 651 528 667 q 561 612 561 635 q 544 572 561 589 q 506 556 528 556 q 481 561 492 556 q 456 556 469 556 q 431 561 442 556 q 406 556 419 556 q 381 561 392 556 q 356 556 369 556 q 317 572 333 556 m 17 572 q 8 581 17 572 q 0 612 0 589 q 17 651 0 635 q 56 667 33 667 q 81 661 69 667 q 106 667 92 667 q 131 661 119 667 q 156 667 142 667 q 181 661 169 667 q 206 667 192 667 q 244 651 228 667 q 261 612 261 635 q 244 572 261 589 q 206 556 228 556 q 181 561 192 556 q 156 556 169 556 q 131 561 142 556 q 106 556 119 556 q 81 561 92 556 q 56 556 69 556 q 17 572 33 556 m 417 711 q 408 719 417 711 q 400 751 400 728 q 417 790 400 774 q 456 806 433 806 q 481 800 469 806 q 506 806 492 806 q 544 790 528 806 q 561 751 561 774 q 544 711 561 728 q 506 694 528 694 q 481 700 492 694 q 456 694 469 694 q 417 711 433 694 m 17 711 q 8 719 17 711 q 0 751 0 728 q 17 790 0 774 q 56 806 33 806 q 81 800 69 806 q 106 806 92 806 q 144 790 128 806 q 161 751 161 774 q 144 711 161 728 q 106 694 128 694 q 81 700 92 694 q 56 694 69 694 q 17 711 33 694 m 17 850 q 8 858 17 850 q 0 890 0 867 q 17 928 0 913 q 56 944 33 944 q 81 939 69 944 q 106 944 92 944 q 131 939 119 944 q 156 944 142 944 q 181 939 169 944 q 206 944 192 944 q 231 939 219 944 q 256 944 242 944 q 281 939 269 944 q 306 944 292 944 q 331 939 319 944 q 356 944 342 944 q 381 939 369 944 q 406 944 392 944 q 431 939 419 944 q 456 944 442 944 q 481 939 469 944 q 506 944 492 944 q 544 928 528 944 q 561 890 561 913 q 544 850 561 867 q 506 833 528 833 q 481 839 492 833 q 456 833 469 833 q 431 839 442 833 q 406 833 419 833 q 381 839 392 833 q 356 833 369 833 q 331 839 342 833 q 306 833 319 833 q 281 839 292 833 q 256 833 269 833 q 231 839 242 833 q 206 833 219 833 q 181 839 192 833 q 156 833 169 833 q 131 839 142 833 q 106 833 119 833 q 81 839 92 833 q 56 833 69 833 q 17 850 33 833 z "},"È":{"ha":600,"x_min":0,"x_max":561,"o":"m 0 -222 q 17 -183 0 -199 q 56 -167 33 -167 q 81 -172 69 -167 q 106 -167 92 -167 q 131 -172 119 -167 q 156 -167 142 -167 q 181 -172 169 -167 q 206 -167 192 -167 q 231 -172 219 -167 q 256 -167 242 -167 q 281 -172 269 -167 q 306 -167 292 -167 q 331 -172 319 -167 q 356 -167 342 -167 q 381 -172 369 -167 q 406 -167 392 -167 q 431 -172 419 -167 q 456 -167 442 -167 q 481 -172 469 -167 q 506 -167 492 -167 q 544 -183 528 -167 q 561 -222 561 -199 q 544 -261 561 -244 q 506 -278 528 -278 q 481 -272 492 -278 q 456 -278 469 -278 q 431 -272 442 -278 q 406 -278 419 -278 q 381 -272 392 -278 q 356 -278 369 -278 q 331 -272 342 -278 q 306 -278 319 -278 q 281 -272 292 -278 q 256 -278 269 -278 q 231 -272 242 -278 q 206 -278 219 -278 q 181 -272 192 -278 q 156 -278 169 -278 q 131 -272 142 -278 q 106 -278 119 -278 q 81 -272 92 -278 q 56 -278 69 -278 q 17 -261 33 -278 q 0 -222 0 -244 m 417 -122 q 408 -114 417 -122 q 400 -83 400 -106 q 417 -44 400 -60 q 456 -28 433 -28 q 481 -33 469 -28 q 506 -28 492 -28 q 544 -44 528 -28 q 561 -83 561 -60 q 544 -122 561 -106 q 506 -139 528 -139 q 481 -133 492 -139 q 456 -139 469 -139 q 417 -122 433 -139 m 17 -122 q 8 -114 17 -122 q 0 -83 0 -106 q 17 -44 0 -60 q 56 -28 33 -28 q 81 -33 69 -28 q 106 -28 92 -28 q 144 -44 128 -28 q 161 -83 161 -60 q 144 -122 161 -106 q 106 -139 128 -139 q 81 -133 92 -139 q 56 -139 69 -139 q 17 -122 33 -139 m 317 17 q 308 25 317 17 q 300 56 300 33 q 317 95 300 79 q 356 111 333 111 q 381 106 369 111 q 406 111 392 111 q 431 106 419 111 q 456 111 442 111 q 481 106 469 111 q 506 111 492 111 q 544 95 528 111 q 561 56 561 79 q 544 17 561 33 q 506 0 528 0 q 481 6 492 0 q 456 0 469 0 q 431 6 442 0 q 406 0 419 0 q 381 6 392 0 q 356 0 369 0 q 317 17 333 0 m 17 17 q 8 25 17 17 q 0 56 0 33 q 17 95 0 79 q 56 111 33 111 q 81 106 69 111 q 106 111 92 111 q 131 106 119 111 q 156 111 142 111 q 181 106 169 111 q 206 111 192 111 q 244 95 228 111 q 261 56 261 79 q 244 17 261 33 q 206 0 228 0 q 181 6 192 0 q 156 0 169 0 q 131 6 142 0 q 106 0 119 0 q 81 6 92 0 q 56 0 69 0 q 17 17 33 0 m 17 156 q 8 164 17 156 q 0 195 0 172 q 17 234 0 218 q 56 250 33 250 q 81 244 69 250 q 106 250 92 250 q 156 218 140 250 q 206 250 171 250 q 231 244 219 250 q 256 250 242 250 q 281 244 269 250 q 306 250 292 250 q 331 244 319 250 q 356 250 342 250 q 406 218 390 250 q 456 250 421 250 q 481 244 469 250 q 506 250 492 250 q 544 234 528 250 q 561 195 561 218 q 544 156 561 172 q 506 139 528 139 q 481 144 492 139 q 456 139 469 139 q 406 171 421 139 q 356 139 390 139 q 331 144 342 139 q 306 139 319 139 q 281 144 292 139 q 256 139 269 139 q 231 144 242 139 q 206 139 219 139 q 156 171 171 139 q 106 139 140 139 q 81 144 92 139 q 56 139 69 139 q 17 156 33 139 m 417 294 q 408 303 417 294 q 400 334 400 311 q 417 373 400 357 q 456 389 433 389 q 481 383 469 389 q 506 389 492 389 q 544 373 528 389 q 561 334 561 357 q 544 294 561 311 q 506 278 528 278 q 481 283 492 278 q 456 278 469 278 q 417 294 433 278 m 217 294 q 208 303 217 294 q 200 334 200 311 q 217 373 200 357 q 256 389 233 389 q 281 383 269 389 q 306 389 292 389 q 344 373 328 389 q 361 334 361 357 q 344 294 361 311 q 306 278 328 278 q 281 283 292 278 q 256 278 269 278 q 217 294 233 278 m 17 294 q 8 303 17 294 q 0 334 0 311 q 17 373 0 357 q 56 389 33 389 q 81 383 69 389 q 106 389 92 389 q 144 373 128 389 q 161 334 161 357 q 144 294 161 311 q 106 278 128 278 q 81 283 92 278 q 56 278 69 278 q 17 294 33 278 m 17 433 q 8 442 17 433 q 0 473 0 450 q 17 512 0 496 q 56 528 33 528 q 81 522 69 528 q 106 528 92 528 q 156 496 140 528 q 206 528 171 528 q 231 522 219 528 q 256 528 242 528 q 281 522 269 528 q 306 528 292 528 q 331 522 319 528 q 356 528 342 528 q 406 496 390 528 q 456 528 421 528 q 481 522 469 528 q 506 528 492 528 q 544 512 528 528 q 561 473 561 496 q 544 433 561 450 q 506 417 528 417 q 481 422 492 417 q 456 417 469 417 q 406 449 421 417 q 356 417 390 417 q 331 422 342 417 q 306 417 319 417 q 281 422 292 417 q 256 417 269 417 q 231 422 242 417 q 206 417 219 417 q 156 449 171 417 q 106 417 140 417 q 81 422 92 417 q 56 417 69 417 q 17 433 33 417 m 317 572 q 308 581 317 572 q 300 612 300 589 q 317 651 300 635 q 356 667 333 667 q 381 661 369 667 q 406 667 392 667 q 431 661 419 667 q 456 667 442 667 q 481 661 469 667 q 506 667 492 667 q 544 651 528 667 q 561 612 561 635 q 544 572 561 589 q 506 556 528 556 q 481 561 492 556 q 456 556 469 556 q 431 561 442 556 q 406 556 419 556 q 381 561 392 556 q 356 556 369 556 q 317 572 333 556 m 17 572 q 8 581 17 572 q 0 612 0 589 q 17 651 0 635 q 56 667 33 667 q 81 661 69 667 q 106 667 92 667 q 131 661 119 667 q 156 667 142 667 q 181 661 169 667 q 206 667 192 667 q 244 651 228 667 q 261 612 261 635 q 244 572 261 589 q 206 556 228 556 q 181 561 192 556 q 156 556 169 556 q 131 561 142 556 q 106 556 119 556 q 81 561 92 556 q 56 556 69 556 q 17 572 33 556 m 417 711 q 408 719 417 711 q 400 751 400 728 q 417 790 400 774 q 456 806 433 806 q 481 800 469 806 q 506 806 492 806 q 544 790 528 806 q 561 751 561 774 q 544 711 561 728 q 506 694 528 694 q 481 700 492 694 q 456 694 469 694 q 417 711 433 694 m 17 711 q 8 719 17 711 q 0 751 0 728 q 17 790 0 774 q 56 806 33 806 q 81 800 69 806 q 106 806 92 806 q 144 790 128 806 q 161 751 161 774 q 144 711 161 728 q 106 694 128 694 q 81 700 92 694 q 56 694 69 694 q 17 711 33 694 m 17 850 q 8 858 17 850 q 0 890 0 867 q 17 928 0 913 q 56 944 33 944 q 81 939 69 944 q 106 944 92 944 q 131 939 119 944 q 156 944 142 944 q 181 939 169 944 q 206 944 192 944 q 231 939 219 944 q 256 944 242 944 q 281 939 269 944 q 306 944 292 944 q 331 939 319 944 q 356 944 342 944 q 381 939 369 944 q 406 944 392 944 q 431 939 419 944 q 456 944 442 944 q 481 939 469 944 q 506 944 492 944 q 544 928 528 944 q 561 890 561 913 q 544 850 561 867 q 506 833 528 833 q 481 839 492 833 q 456 833 469 833 q 431 839 442 833 q 406 833 419 833 q 381 839 392 833 q 356 833 369 833 q 331 839 342 833 q 306 833 319 833 q 281 839 292 833 q 256 833 269 833 q 231 839 242 833 q 206 833 219 833 q 181 839 192 833 q 156 833 169 833 q 131 839 142 833 q 106 833 119 833 q 81 839 92 833 q 56 833 69 833 q 17 850 33 833 z "},"Ù":{"ha":600,"x_min":0,"x_max":561,"o":"m 0 -222 q 17 -183 0 -199 q 56 -167 33 -167 q 81 -172 69 -167 q 106 -167 92 -167 q 131 -172 119 -167 q 156 -167 142 -167 q 181 -172 169 -167 q 206 -167 192 -167 q 231 -172 219 -167 q 256 -167 242 -167 q 281 -172 269 -167 q 306 -167 292 -167 q 331 -172 319 -167 q 356 -167 342 -167 q 381 -172 369 -167 q 406 -167 392 -167 q 431 -172 419 -167 q 456 -167 442 -167 q 481 -172 469 -167 q 506 -167 492 -167 q 544 -183 528 -167 q 561 -222 561 -199 q 544 -261 561 -244 q 506 -278 528 -278 q 481 -272 492 -278 q 456 -278 469 -278 q 431 -272 442 -278 q 406 -278 419 -278 q 381 -272 392 -278 q 356 -278 369 -278 q 331 -272 342 -278 q 306 -278 319 -278 q 281 -272 292 -278 q 256 -278 269 -278 q 231 -272 242 -278 q 206 -278 219 -278 q 181 -272 192 -278 q 156 -278 169 -278 q 131 -272 142 -278 q 106 -278 119 -278 q 81 -272 92 -278 q 56 -278 69 -278 q 17 -261 33 -278 q 0 -222 0 -244 m 417 -122 q 408 -114 417 -122 q 400 -83 400 -106 q 417 -44 400 -60 q 456 -28 433 -28 q 481 -33 469 -28 q 506 -28 492 -28 q 544 -44 528 -28 q 561 -83 561 -60 q 544 -122 561 -106 q 506 -139 528 -139 q 481 -133 492 -139 q 456 -139 469 -139 q 417 -122 433 -139 m 17 -122 q 8 -114 17 -122 q 0 -83 0 -106 q 17 -44 0 -60 q 56 -28 33 -28 q 81 -33 69 -28 q 106 -28 92 -28 q 144 -44 128 -28 q 161 -83 161 -60 q 144 -122 161 -106 q 106 -139 128 -139 q 81 -133 92 -139 q 56 -139 69 -139 q 17 -122 33 -139 m 317 17 q 308 25 317 17 q 300 56 300 33 q 317 95 300 79 q 356 111 333 111 q 381 106 369 111 q 406 111 392 111 q 431 106 419 111 q 456 111 442 111 q 481 106 469 111 q 506 111 492 111 q 544 95 528 111 q 561 56 561 79 q 544 17 561 33 q 506 0 528 0 q 481 6 492 0 q 456 0 469 0 q 431 6 442 0 q 406 0 419 0 q 381 6 392 0 q 356 0 369 0 q 317 17 333 0 m 17 17 q 8 25 17 17 q 0 56 0 33 q 17 95 0 79 q 56 111 33 111 q 81 106 69 111 q 106 111 92 111 q 131 106 119 111 q 156 111 142 111 q 181 106 169 111 q 206 111 192 111 q 244 95 228 111 q 261 56 261 79 q 244 17 261 33 q 206 0 228 0 q 181 6 192 0 q 156 0 169 0 q 131 6 142 0 q 106 0 119 0 q 81 6 92 0 q 56 0 69 0 q 17 17 33 0 m 17 156 q 8 164 17 156 q 0 195 0 172 q 17 234 0 218 q 56 250 33 250 q 81 244 69 250 q 106 250 92 250 q 156 218 140 250 q 206 250 171 250 q 231 244 219 250 q 256 250 242 250 q 281 244 269 250 q 306 250 292 250 q 331 244 319 250 q 356 250 342 250 q 406 218 390 250 q 456 250 421 250 q 481 244 469 250 q 506 250 492 250 q 544 234 528 250 q 561 195 561 218 q 544 156 561 172 q 506 139 528 139 q 481 144 492 139 q 456 139 469 139 q 406 171 421 139 q 356 139 390 139 q 331 144 342 139 q 306 139 319 139 q 281 144 292 139 q 256 139 269 139 q 231 144 242 139 q 206 139 219 139 q 156 171 171 139 q 106 139 140 139 q 81 144 92 139 q 56 139 69 139 q 17 156 33 139 m 417 294 q 408 303 417 294 q 400 334 400 311 q 417 373 400 357 q 456 389 433 389 q 481 383 469 389 q 506 389 492 389 q 544 373 528 389 q 561 334 561 357 q 544 294 561 311 q 506 278 528 278 q 481 283 492 278 q 456 278 469 278 q 417 294 433 278 m 217 294 q 208 303 217 294 q 200 334 200 311 q 217 373 200 357 q 256 389 233 389 q 281 383 269 389 q 306 389 292 389 q 344 373 328 389 q 361 334 361 357 q 344 294 361 311 q 306 278 328 278 q 281 283 292 278 q 256 278 269 278 q 217 294 233 278 m 17 294 q 8 303 17 294 q 0 334 0 311 q 17 373 0 357 q 56 389 33 389 q 81 383 69 389 q 106 389 92 389 q 144 373 128 389 q 161 334 161 357 q 144 294 161 311 q 106 278 128 278 q 81 283 92 278 q 56 278 69 278 q 17 294 33 278 m 17 433 q 8 442 17 433 q 0 473 0 450 q 17 512 0 496 q 56 528 33 528 q 81 522 69 528 q 106 528 92 528 q 156 496 140 528 q 206 528 171 528 q 231 522 219 528 q 256 528 242 528 q 281 522 269 528 q 306 528 292 528 q 331 522 319 528 q 356 528 342 528 q 406 496 390 528 q 456 528 421 528 q 481 522 469 528 q 506 528 492 528 q 544 512 528 528 q 561 473 561 496 q 544 433 561 450 q 506 417 528 417 q 481 422 492 417 q 456 417 469 417 q 406 449 421 417 q 356 417 390 417 q 331 422 342 417 q 306 417 319 417 q 281 422 292 417 q 256 417 269 417 q 231 422 242 417 q 206 417 219 417 q 156 449 171 417 q 106 417 140 417 q 81 422 92 417 q 56 417 69 417 q 17 433 33 417 m 317 572 q 308 581 317 572 q 300 612 300 589 q 317 651 300 635 q 356 667 333 667 q 381 661 369 667 q 406 667 392 667 q 431 661 419 667 q 456 667 442 667 q 481 661 469 667 q 506 667 492 667 q 544 651 528 667 q 561 612 561 635 q 544 572 561 589 q 506 556 528 556 q 481 561 492 556 q 456 556 469 556 q 431 561 442 556 q 406 556 419 556 q 381 561 392 556 q 356 556 369 556 q 317 572 333 556 m 17 572 q 8 581 17 572 q 0 612 0 589 q 17 651 0 635 q 56 667 33 667 q 81 661 69 667 q 106 667 92 667 q 131 661 119 667 q 156 667 142 667 q 181 661 169 667 q 206 667 192 667 q 244 651 228 667 q 261 612 261 635 q 244 572 261 589 q 206 556 228 556 q 181 561 192 556 q 156 556 169 556 q 131 561 142 556 q 106 556 119 556 q 81 561 92 556 q 56 556 69 556 q 17 572 33 556 m 417 711 q 408 719 417 711 q 400 751 400 728 q 417 790 400 774 q 456 806 433 806 q 481 800 469 806 q 506 806 492 806 q 544 790 528 806 q 561 751 561 774 q 544 711 561 728 q 506 694 528 694 q 481 700 492 694 q 456 694 469 694 q 417 711 433 694 m 17 711 q 8 719 17 711 q 0 751 0 728 q 17 790 0 774 q 56 806 33 806 q 81 800 69 806 q 106 806 92 806 q 144 790 128 806 q 161 751 161 774 q 144 711 161 728 q 106 694 128 694 q 81 700 92 694 q 56 694 69 694 q 17 711 33 694 m 17 850 q 8 858 17 850 q 0 890 0 867 q 17 928 0 913 q 56 944 33 944 q 81 939 69 944 q 106 944 92 944 q 131 939 119 944 q 156 944 142 944 q 181 939 169 944 q 206 944 192 944 q 231 939 219 944 q 256 944 242 944 q 281 939 269 944 q 306 944 292 944 q 331 939 319 944 q 356 944 342 944 q 381 939 369 944 q 406 944 392 944 q 431 939 419 944 q 456 944 442 944 q 481 939 469 944 q 506 944 492 944 q 544 928 528 944 q 561 890 561 913 q 544 850 561 867 q 506 833 528 833 q 481 839 492 833 q 456 833 469 833 q 431 839 442 833 q 406 833 419 833 q 381 839 392 833 q 356 833 369 833 q 331 839 342 833 q 306 833 319 833 q 281 839 292 833 q 256 833 269 833 q 231 839 242 833 q 206 833 219 833 q 181 839 192 833 q 156 833 169 833 q 131 839 142 833 q 106 833 119 833 q 81 839 92 833 q 56 833 69 833 q 17 850 33 833 z "},"Ú":{"ha":600,"x_min":0,"x_max":561,"o":"m 0 -222 q 17 -183 0 -199 q 56 -167 33 -167 q 81 -172 69 -167 q 106 -167 92 -167 q 131 -172 119 -167 q 156 -167 142 -167 q 181 -172 169 -167 q 206 -167 192 -167 q 231 -172 219 -167 q 256 -167 242 -167 q 281 -172 269 -167 q 306 -167 292 -167 q 331 -172 319 -167 q 356 -167 342 -167 q 381 -172 369 -167 q 406 -167 392 -167 q 431 -172 419 -167 q 456 -167 442 -167 q 481 -172 469 -167 q 506 -167 492 -167 q 544 -183 528 -167 q 561 -222 561 -199 q 544 -261 561 -244 q 506 -278 528 -278 q 481 -272 492 -278 q 456 -278 469 -278 q 431 -272 442 -278 q 406 -278 419 -278 q 381 -272 392 -278 q 356 -278 369 -278 q 331 -272 342 -278 q 306 -278 319 -278 q 281 -272 292 -278 q 256 -278 269 -278 q 231 -272 242 -278 q 206 -278 219 -278 q 181 -272 192 -278 q 156 -278 169 -278 q 131 -272 142 -278 q 106 -278 119 -278 q 81 -272 92 -278 q 56 -278 69 -278 q 17 -261 33 -278 q 0 -222 0 -244 m 417 -122 q 408 -114 417 -122 q 400 -83 400 -106 q 417 -44 400 -60 q 456 -28 433 -28 q 481 -33 469 -28 q 506 -28 492 -28 q 544 -44 528 -28 q 561 -83 561 -60 q 544 -122 561 -106 q 506 -139 528 -139 q 481 -133 492 -139 q 456 -139 469 -139 q 417 -122 433 -139 m 17 -122 q 8 -114 17 -122 q 0 -83 0 -106 q 17 -44 0 -60 q 56 -28 33 -28 q 81 -33 69 -28 q 106 -28 92 -28 q 144 -44 128 -28 q 161 -83 161 -60 q 144 -122 161 -106 q 106 -139 128 -139 q 81 -133 92 -139 q 56 -139 69 -139 q 17 -122 33 -139 m 317 17 q 308 25 317 17 q 300 56 300 33 q 317 95 300 79 q 356 111 333 111 q 381 106 369 111 q 406 111 392 111 q 431 106 419 111 q 456 111 442 111 q 481 106 469 111 q 506 111 492 111 q 544 95 528 111 q 561 56 561 79 q 544 17 561 33 q 506 0 528 0 q 481 6 492 0 q 456 0 469 0 q 431 6 442 0 q 406 0 419 0 q 381 6 392 0 q 356 0 369 0 q 317 17 333 0 m 17 17 q 8 25 17 17 q 0 56 0 33 q 17 95 0 79 q 56 111 33 111 q 81 106 69 111 q 106 111 92 111 q 131 106 119 111 q 156 111 142 111 q 181 106 169 111 q 206 111 192 111 q 244 95 228 111 q 261 56 261 79 q 244 17 261 33 q 206 0 228 0 q 181 6 192 0 q 156 0 169 0 q 131 6 142 0 q 106 0 119 0 q 81 6 92 0 q 56 0 69 0 q 17 17 33 0 m 17 156 q 8 164 17 156 q 0 195 0 172 q 17 234 0 218 q 56 250 33 250 q 81 244 69 250 q 106 250 92 250 q 156 218 140 250 q 206 250 171 250 q 231 244 219 250 q 256 250 242 250 q 281 244 269 250 q 306 250 292 250 q 331 244 319 250 q 356 250 342 250 q 406 218 390 250 q 456 250 421 250 q 481 244 469 250 q 506 250 492 250 q 544 234 528 250 q 561 195 561 218 q 544 156 561 172 q 506 139 528 139 q 481 144 492 139 q 456 139 469 139 q 406 171 421 139 q 356 139 390 139 q 331 144 342 139 q 306 139 319 139 q 281 144 292 139 q 256 139 269 139 q 231 144 242 139 q 206 139 219 139 q 156 171 171 139 q 106 139 140 139 q 81 144 92 139 q 56 139 69 139 q 17 156 33 139 m 417 294 q 408 303 417 294 q 400 334 400 311 q 417 373 400 357 q 456 389 433 389 q 481 383 469 389 q 506 389 492 389 q 544 373 528 389 q 561 334 561 357 q 544 294 561 311 q 506 278 528 278 q 481 283 492 278 q 456 278 469 278 q 417 294 433 278 m 217 294 q 208 303 217 294 q 200 334 200 311 q 217 373 200 357 q 256 389 233 389 q 281 383 269 389 q 306 389 292 389 q 344 373 328 389 q 361 334 361 357 q 344 294 361 311 q 306 278 328 278 q 281 283 292 278 q 256 278 269 278 q 217 294 233 278 m 17 294 q 8 303 17 294 q 0 334 0 311 q 17 373 0 357 q 56 389 33 389 q 81 383 69 389 q 106 389 92 389 q 144 373 128 389 q 161 334 161 357 q 144 294 161 311 q 106 278 128 278 q 81 283 92 278 q 56 278 69 278 q 17 294 33 278 m 17 433 q 8 442 17 433 q 0 473 0 450 q 17 512 0 496 q 56 528 33 528 q 81 522 69 528 q 106 528 92 528 q 156 496 140 528 q 206 528 171 528 q 231 522 219 528 q 256 528 242 528 q 281 522 269 528 q 306 528 292 528 q 331 522 319 528 q 356 528 342 528 q 406 496 390 528 q 456 528 421 528 q 481 522 469 528 q 506 528 492 528 q 544 512 528 528 q 561 473 561 496 q 544 433 561 450 q 506 417 528 417 q 481 422 492 417 q 456 417 469 417 q 406 449 421 417 q 356 417 390 417 q 331 422 342 417 q 306 417 319 417 q 281 422 292 417 q 256 417 269 417 q 231 422 242 417 q 206 417 219 417 q 156 449 171 417 q 106 417 140 417 q 81 422 92 417 q 56 417 69 417 q 17 433 33 417 m 317 572 q 308 581 317 572 q 300 612 300 589 q 317 651 300 635 q 356 667 333 667 q 381 661 369 667 q 406 667 392 667 q 431 661 419 667 q 456 667 442 667 q 481 661 469 667 q 506 667 492 667 q 544 651 528 667 q 561 612 561 635 q 544 572 561 589 q 506 556 528 556 q 481 561 492 556 q 456 556 469 556 q 431 561 442 556 q 406 556 419 556 q 381 561 392 556 q 356 556 369 556 q 317 572 333 556 m 17 572 q 8 581 17 572 q 0 612 0 589 q 17 651 0 635 q 56 667 33 667 q 81 661 69 667 q 106 667 92 667 q 131 661 119 667 q 156 667 142 667 q 181 661 169 667 q 206 667 192 667 q 244 651 228 667 q 261 612 261 635 q 244 572 261 589 q 206 556 228 556 q 181 561 192 556 q 156 556 169 556 q 131 561 142 556 q 106 556 119 556 q 81 561 92 556 q 56 556 69 556 q 17 572 33 556 m 417 711 q 408 719 417 711 q 400 751 400 728 q 417 790 400 774 q 456 806 433 806 q 481 800 469 806 q 506 806 492 806 q 544 790 528 806 q 561 751 561 774 q 544 711 561 728 q 506 694 528 694 q 481 700 492 694 q 456 694 469 694 q 417 711 433 694 m 17 711 q 8 719 17 711 q 0 751 0 728 q 17 790 0 774 q 56 806 33 806 q 81 800 69 806 q 106 806 92 806 q 144 790 128 806 q 161 751 161 774 q 144 711 161 728 q 106 694 128 694 q 81 700 92 694 q 56 694 69 694 q 17 711 33 694 m 17 850 q 8 858 17 850 q 0 890 0 867 q 17 928 0 913 q 56 944 33 944 q 81 939 69 944 q 106 944 92 944 q 131 939 119 944 q 156 944 142 944 q 181 939 169 944 q 206 944 192 944 q 231 939 219 944 q 256 944 242 944 q 281 939 269 944 q 306 944 292 944 q 331 939 319 944 q 356 944 342 944 q 381 939 369 944 q 406 944 392 944 q 431 939 419 944 q 456 944 442 944 q 481 939 469 944 q 506 944 492 944 q 544 928 528 944 q 561 890 561 913 q 544 850 561 867 q 506 833 528 833 q 481 839 492 833 q 456 833 469 833 q 431 839 442 833 q 406 833 419 833 q 381 839 392 833 q 356 833 369 833 q 331 839 342 833 q 306 833 319 833 q 281 839 292 833 q 256 833 269 833 q 231 839 242 833 q 206 833 219 833 q 181 839 192 833 q 156 833 169 833 q 131 839 142 833 q 106 833 119 833 q 81 839 92 833 q 56 833 69 833 q 17 850 33 833 z "},"Û":{"ha":600,"x_min":0,"x_max":561,"o":"m 0 -222 q 17 -183 0 -199 q 56 -167 33 -167 q 81 -172 69 -167 q 106 -167 92 -167 q 131 -172 119 -167 q 156 -167 142 -167 q 181 -172 169 -167 q 206 -167 192 -167 q 231 -172 219 -167 q 256 -167 242 -167 q 281 -172 269 -167 q 306 -167 292 -167 q 331 -172 319 -167 q 356 -167 342 -167 q 381 -172 369 -167 q 406 -167 392 -167 q 431 -172 419 -167 q 456 -167 442 -167 q 481 -172 469 -167 q 506 -167 492 -167 q 544 -183 528 -167 q 561 -222 561 -199 q 544 -261 561 -244 q 506 -278 528 -278 q 481 -272 492 -278 q 456 -278 469 -278 q 431 -272 442 -278 q 406 -278 419 -278 q 381 -272 392 -278 q 356 -278 369 -278 q 331 -272 342 -278 q 306 -278 319 -278 q 281 -272 292 -278 q 256 -278 269 -278 q 231 -272 242 -278 q 206 -278 219 -278 q 181 -272 192 -278 q 156 -278 169 -278 q 131 -272 142 -278 q 106 -278 119 -278 q 81 -272 92 -278 q 56 -278 69 -278 q 17 -261 33 -278 q 0 -222 0 -244 m 417 -122 q 408 -114 417 -122 q 400 -83 400 -106 q 417 -44 400 -60 q 456 -28 433 -28 q 481 -33 469 -28 q 506 -28 492 -28 q 544 -44 528 -28 q 561 -83 561 -60 q 544 -122 561 -106 q 506 -139 528 -139 q 481 -133 492 -139 q 456 -139 469 -139 q 417 -122 433 -139 m 17 -122 q 8 -114 17 -122 q 0 -83 0 -106 q 17 -44 0 -60 q 56 -28 33 -28 q 81 -33 69 -28 q 106 -28 92 -28 q 144 -44 128 -28 q 161 -83 161 -60 q 144 -122 161 -106 q 106 -139 128 -139 q 81 -133 92 -139 q 56 -139 69 -139 q 17 -122 33 -139 m 317 17 q 308 25 317 17 q 300 56 300 33 q 317 95 300 79 q 356 111 333 111 q 381 106 369 111 q 406 111 392 111 q 431 106 419 111 q 456 111 442 111 q 481 106 469 111 q 506 111 492 111 q 544 95 528 111 q 561 56 561 79 q 544 17 561 33 q 506 0 528 0 q 481 6 492 0 q 456 0 469 0 q 431 6 442 0 q 406 0 419 0 q 381 6 392 0 q 356 0 369 0 q 317 17 333 0 m 17 17 q 8 25 17 17 q 0 56 0 33 q 17 95 0 79 q 56 111 33 111 q 81 106 69 111 q 106 111 92 111 q 131 106 119 111 q 156 111 142 111 q 181 106 169 111 q 206 111 192 111 q 244 95 228 111 q 261 56 261 79 q 244 17 261 33 q 206 0 228 0 q 181 6 192 0 q 156 0 169 0 q 131 6 142 0 q 106 0 119 0 q 81 6 92 0 q 56 0 69 0 q 17 17 33 0 m 17 156 q 8 164 17 156 q 0 195 0 172 q 17 234 0 218 q 56 250 33 250 q 81 244 69 250 q 106 250 92 250 q 156 218 140 250 q 206 250 171 250 q 231 244 219 250 q 256 250 242 250 q 281 244 269 250 q 306 250 292 250 q 331 244 319 250 q 356 250 342 250 q 406 218 390 250 q 456 250 421 250 q 481 244 469 250 q 506 250 492 250 q 544 234 528 250 q 561 195 561 218 q 544 156 561 172 q 506 139 528 139 q 481 144 492 139 q 456 139 469 139 q 406 171 421 139 q 356 139 390 139 q 331 144 342 139 q 306 139 319 139 q 281 144 292 139 q 256 139 269 139 q 231 144 242 139 q 206 139 219 139 q 156 171 171 139 q 106 139 140 139 q 81 144 92 139 q 56 139 69 139 q 17 156 33 139 m 417 294 q 408 303 417 294 q 400 334 400 311 q 417 373 400 357 q 456 389 433 389 q 481 383 469 389 q 506 389 492 389 q 544 373 528 389 q 561 334 561 357 q 544 294 561 311 q 506 278 528 278 q 481 283 492 278 q 456 278 469 278 q 417 294 433 278 m 217 294 q 208 303 217 294 q 200 334 200 311 q 217 373 200 357 q 256 389 233 389 q 281 383 269 389 q 306 389 292 389 q 344 373 328 389 q 361 334 361 357 q 344 294 361 311 q 306 278 328 278 q 281 283 292 278 q 256 278 269 278 q 217 294 233 278 m 17 294 q 8 303 17 294 q 0 334 0 311 q 17 373 0 357 q 56 389 33 389 q 81 383 69 389 q 106 389 92 389 q 144 373 128 389 q 161 334 161 357 q 144 294 161 311 q 106 278 128 278 q 81 283 92 278 q 56 278 69 278 q 17 294 33 278 m 17 433 q 8 442 17 433 q 0 473 0 450 q 17 512 0 496 q 56 528 33 528 q 81 522 69 528 q 106 528 92 528 q 156 496 140 528 q 206 528 171 528 q 231 522 219 528 q 256 528 242 528 q 281 522 269 528 q 306 528 292 528 q 331 522 319 528 q 356 528 342 528 q 406 496 390 528 q 456 528 421 528 q 481 522 469 528 q 506 528 492 528 q 544 512 528 528 q 561 473 561 496 q 544 433 561 450 q 506 417 528 417 q 481 422 492 417 q 456 417 469 417 q 406 449 421 417 q 356 417 390 417 q 331 422 342 417 q 306 417 319 417 q 281 422 292 417 q 256 417 269 417 q 231 422 242 417 q 206 417 219 417 q 156 449 171 417 q 106 417 140 417 q 81 422 92 417 q 56 417 69 417 q 17 433 33 417 m 317 572 q 308 581 317 572 q 300 612 300 589 q 317 651 300 635 q 356 667 333 667 q 381 661 369 667 q 406 667 392 667 q 431 661 419 667 q 456 667 442 667 q 481 661 469 667 q 506 667 492 667 q 544 651 528 667 q 561 612 561 635 q 544 572 561 589 q 506 556 528 556 q 481 561 492 556 q 456 556 469 556 q 431 561 442 556 q 406 556 419 556 q 381 561 392 556 q 356 556 369 556 q 317 572 333 556 m 17 572 q 8 581 17 572 q 0 612 0 589 q 17 651 0 635 q 56 667 33 667 q 81 661 69 667 q 106 667 92 667 q 131 661 119 667 q 156 667 142 667 q 181 661 169 667 q 206 667 192 667 q 244 651 228 667 q 261 612 261 635 q 244 572 261 589 q 206 556 228 556 q 181 561 192 556 q 156 556 169 556 q 131 561 142 556 q 106 556 119 556 q 81 561 92 556 q 56 556 69 556 q 17 572 33 556 m 417 711 q 408 719 417 711 q 400 751 400 728 q 417 790 400 774 q 456 806 433 806 q 481 800 469 806 q 506 806 492 806 q 544 790 528 806 q 561 751 561 774 q 544 711 561 728 q 506 694 528 694 q 481 700 492 694 q 456 694 469 694 q 417 711 433 694 m 17 711 q 8 719 17 711 q 0 751 0 728 q 17 790 0 774 q 56 806 33 806 q 81 800 69 806 q 106 806 92 806 q 144 790 128 806 q 161 751 161 774 q 144 711 161 728 q 106 694 128 694 q 81 700 92 694 q 56 694 69 694 q 17 711 33 694 m 17 850 q 8 858 17 850 q 0 890 0 867 q 17 928 0 913 q 56 944 33 944 q 81 939 69 944 q 106 944 92 944 q 131 939 119 944 q 156 944 142 944 q 181 939 169 944 q 206 944 192 944 q 231 939 219 944 q 256 944 242 944 q 281 939 269 944 q 306 944 292 944 q 331 939 319 944 q 356 944 342 944 q 381 939 369 944 q 406 944 392 944 q 431 939 419 944 q 456 944 442 944 q 481 939 469 944 q 506 944 492 944 q 544 928 528 944 q 561 890 561 913 q 544 850 561 867 q 506 833 528 833 q 481 839 492 833 q 456 833 469 833 q 431 839 442 833 q 406 833 419 833 q 381 839 392 833 q 356 833 369 833 q 331 839 342 833 q 306 833 319 833 q 281 839 292 833 q 256 833 269 833 q 231 839 242 833 q 206 833 219 833 q 181 839 192 833 q 156 833 169 833 q 131 839 142 833 q 106 833 119 833 q 81 839 92 833 q 56 833 69 833 q 17 850 33 833 z "},"Ý":{"ha":600,"x_min":0,"x_max":561,"o":"m 0 -222 q 17 -183 0 -199 q 56 -167 33 -167 q 81 -172 69 -167 q 106 -167 92 -167 q 131 -172 119 -167 q 156 -167 142 -167 q 181 -172 169 -167 q 206 -167 192 -167 q 231 -172 219 -167 q 256 -167 242 -167 q 281 -172 269 -167 q 306 -167 292 -167 q 331 -172 319 -167 q 356 -167 342 -167 q 381 -172 369 -167 q 406 -167 392 -167 q 431 -172 419 -167 q 456 -167 442 -167 q 481 -172 469 -167 q 506 -167 492 -167 q 544 -183 528 -167 q 561 -222 561 -199 q 544 -261 561 -244 q 506 -278 528 -278 q 481 -272 492 -278 q 456 -278 469 -278 q 431 -272 442 -278 q 406 -278 419 -278 q 381 -272 392 -278 q 356 -278 369 -278 q 331 -272 342 -278 q 306 -278 319 -278 q 281 -272 292 -278 q 256 -278 269 -278 q 231 -272 242 -278 q 206 -278 219 -278 q 181 -272 192 -278 q 156 -278 169 -278 q 131 -272 142 -278 q 106 -278 119 -278 q 81 -272 92 -278 q 56 -278 69 -278 q 17 -261 33 -278 q 0 -222 0 -244 m 417 -122 q 408 -114 417 -122 q 400 -83 400 -106 q 417 -44 400 -60 q 456 -28 433 -28 q 481 -33 469 -28 q 506 -28 492 -28 q 544 -44 528 -28 q 561 -83 561 -60 q 544 -122 561 -106 q 506 -139 528 -139 q 481 -133 492 -139 q 456 -139 469 -139 q 417 -122 433 -139 m 17 -122 q 8 -114 17 -122 q 0 -83 0 -106 q 17 -44 0 -60 q 56 -28 33 -28 q 81 -33 69 -28 q 106 -28 92 -28 q 144 -44 128 -28 q 161 -83 161 -60 q 144 -122 161 -106 q 106 -139 128 -139 q 81 -133 92 -139 q 56 -139 69 -139 q 17 -122 33 -139 m 317 17 q 308 25 317 17 q 300 56 300 33 q 317 95 300 79 q 356 111 333 111 q 381 106 369 111 q 406 111 392 111 q 431 106 419 111 q 456 111 442 111 q 481 106 469 111 q 506 111 492 111 q 544 95 528 111 q 561 56 561 79 q 544 17 561 33 q 506 0 528 0 q 481 6 492 0 q 456 0 469 0 q 431 6 442 0 q 406 0 419 0 q 381 6 392 0 q 356 0 369 0 q 317 17 333 0 m 17 17 q 8 25 17 17 q 0 56 0 33 q 17 95 0 79 q 56 111 33 111 q 81 106 69 111 q 106 111 92 111 q 131 106 119 111 q 156 111 142 111 q 181 106 169 111 q 206 111 192 111 q 244 95 228 111 q 261 56 261 79 q 244 17 261 33 q 206 0 228 0 q 181 6 192 0 q 156 0 169 0 q 131 6 142 0 q 106 0 119 0 q 81 6 92 0 q 56 0 69 0 q 17 17 33 0 m 17 156 q 8 164 17 156 q 0 195 0 172 q 17 234 0 218 q 56 250 33 250 q 81 244 69 250 q 106 250 92 250 q 156 218 140 250 q 206 250 171 250 q 231 244 219 250 q 256 250 242 250 q 281 244 269 250 q 306 250 292 250 q 331 244 319 250 q 356 250 342 250 q 406 218 390 250 q 456 250 421 250 q 481 244 469 250 q 506 250 492 250 q 544 234 528 250 q 561 195 561 218 q 544 156 561 172 q 506 139 528 139 q 481 144 492 139 q 456 139 469 139 q 406 171 421 139 q 356 139 390 139 q 331 144 342 139 q 306 139 319 139 q 281 144 292 139 q 256 139 269 139 q 231 144 242 139 q 206 139 219 139 q 156 171 171 139 q 106 139 140 139 q 81 144 92 139 q 56 139 69 139 q 17 156 33 139 m 417 294 q 408 303 417 294 q 400 334 400 311 q 417 373 400 357 q 456 389 433 389 q 481 383 469 389 q 506 389 492 389 q 544 373 528 389 q 561 334 561 357 q 544 294 561 311 q 506 278 528 278 q 481 283 492 278 q 456 278 469 278 q 417 294 433 278 m 217 294 q 208 303 217 294 q 200 334 200 311 q 217 373 200 357 q 256 389 233 389 q 281 383 269 389 q 306 389 292 389 q 344 373 328 389 q 361 334 361 357 q 344 294 361 311 q 306 278 328 278 q 281 283 292 278 q 256 278 269 278 q 217 294 233 278 m 17 294 q 8 303 17 294 q 0 334 0 311 q 17 373 0 357 q 56 389 33 389 q 81 383 69 389 q 106 389 92 389 q 144 373 128 389 q 161 334 161 357 q 144 294 161 311 q 106 278 128 278 q 81 283 92 278 q 56 278 69 278 q 17 294 33 278 m 17 433 q 8 442 17 433 q 0 473 0 450 q 17 512 0 496 q 56 528 33 528 q 81 522 69 528 q 106 528 92 528 q 156 496 140 528 q 206 528 171 528 q 231 522 219 528 q 256 528 242 528 q 281 522 269 528 q 306 528 292 528 q 331 522 319 528 q 356 528 342 528 q 406 496 390 528 q 456 528 421 528 q 481 522 469 528 q 506 528 492 528 q 544 512 528 528 q 561 473 561 496 q 544 433 561 450 q 506 417 528 417 q 481 422 492 417 q 456 417 469 417 q 406 449 421 417 q 356 417 390 417 q 331 422 342 417 q 306 417 319 417 q 281 422 292 417 q 256 417 269 417 q 231 422 242 417 q 206 417 219 417 q 156 449 171 417 q 106 417 140 417 q 81 422 92 417 q 56 417 69 417 q 17 433 33 417 m 317 572 q 308 581 317 572 q 300 612 300 589 q 317 651 300 635 q 356 667 333 667 q 381 661 369 667 q 406 667 392 667 q 431 661 419 667 q 456 667 442 667 q 481 661 469 667 q 506 667 492 667 q 544 651 528 667 q 561 612 561 635 q 544 572 561 589 q 506 556 528 556 q 481 561 492 556 q 456 556 469 556 q 431 561 442 556 q 406 556 419 556 q 381 561 392 556 q 356 556 369 556 q 317 572 333 556 m 17 572 q 8 581 17 572 q 0 612 0 589 q 17 651 0 635 q 56 667 33 667 q 81 661 69 667 q 106 667 92 667 q 131 661 119 667 q 156 667 142 667 q 181 661 169 667 q 206 667 192 667 q 244 651 228 667 q 261 612 261 635 q 244 572 261 589 q 206 556 228 556 q 181 561 192 556 q 156 556 169 556 q 131 561 142 556 q 106 556 119 556 q 81 561 92 556 q 56 556 69 556 q 17 572 33 556 m 417 711 q 408 719 417 711 q 400 751 400 728 q 417 790 400 774 q 456 806 433 806 q 481 800 469 806 q 506 806 492 806 q 544 790 528 806 q 561 751 561 774 q 544 711 561 728 q 506 694 528 694 q 481 700 492 694 q 456 694 469 694 q 417 711 433 694 m 17 711 q 8 719 17 711 q 0 751 0 728 q 17 790 0 774 q 56 806 33 806 q 81 800 69 806 q 106 806 92 806 q 144 790 128 806 q 161 751 161 774 q 144 711 161 728 q 106 694 128 694 q 81 700 92 694 q 56 694 69 694 q 17 711 33 694 m 17 850 q 8 858 17 850 q 0 890 0 867 q 17 928 0 913 q 56 944 33 944 q 81 939 69 944 q 106 944 92 944 q 131 939 119 944 q 156 944 142 944 q 181 939 169 944 q 206 944 192 944 q 231 939 219 944 q 256 944 242 944 q 281 939 269 944 q 306 944 292 944 q 331 939 319 944 q 356 944 342 944 q 381 939 369 944 q 406 944 392 944 q 431 939 419 944 q 456 944 442 944 q 481 939 469 944 q 506 944 492 944 q 544 928 528 944 q 561 890 561 913 q 544 850 561 867 q 506 833 528 833 q 481 839 492 833 q 456 833 469 833 q 431 839 442 833 q 406 833 419 833 q 381 839 392 833 q 356 833 369 833 q 331 839 342 833 q 306 833 319 833 q 281 839 292 833 q 256 833 269 833 q 231 839 242 833 q 206 833 219 833 q 181 839 192 833 q 156 833 169 833 q 131 839 142 833 q 106 833 119 833 q 81 839 92 833 q 56 833 69 833 q 17 850 33 833 z "},"Þ":{"ha":600,"x_min":0,"x_max":561,"o":"m 0 -222 q 17 -183 0 -199 q 56 -167 33 -167 q 81 -172 69 -167 q 106 -167 92 -167 q 131 -172 119 -167 q 156 -167 142 -167 q 181 -172 169 -167 q 206 -167 192 -167 q 231 -172 219 -167 q 256 -167 242 -167 q 281 -172 269 -167 q 306 -167 292 -167 q 331 -172 319 -167 q 356 -167 342 -167 q 381 -172 369 -167 q 406 -167 392 -167 q 431 -172 419 -167 q 456 -167 442 -167 q 481 -172 469 -167 q 506 -167 492 -167 q 544 -183 528 -167 q 561 -222 561 -199 q 544 -261 561 -244 q 506 -278 528 -278 q 481 -272 492 -278 q 456 -278 469 -278 q 431 -272 442 -278 q 406 -278 419 -278 q 381 -272 392 -278 q 356 -278 369 -278 q 331 -272 342 -278 q 306 -278 319 -278 q 281 -272 292 -278 q 256 -278 269 -278 q 231 -272 242 -278 q 206 -278 219 -278 q 181 -272 192 -278 q 156 -278 169 -278 q 131 -272 142 -278 q 106 -278 119 -278 q 81 -272 92 -278 q 56 -278 69 -278 q 17 -261 33 -278 q 0 -222 0 -244 m 417 -122 q 408 -114 417 -122 q 400 -83 400 -106 q 417 -44 400 -60 q 456 -28 433 -28 q 481 -33 469 -28 q 506 -28 492 -28 q 544 -44 528 -28 q 561 -83 561 -60 q 544 -122 561 -106 q 506 -139 528 -139 q 481 -133 492 -139 q 456 -139 469 -139 q 417 -122 433 -139 m 17 -122 q 8 -114 17 -122 q 0 -83 0 -106 q 17 -44 0 -60 q 56 -28 33 -28 q 81 -33 69 -28 q 106 -28 92 -28 q 144 -44 128 -28 q 161 -83 161 -60 q 144 -122 161 -106 q 106 -139 128 -139 q 81 -133 92 -139 q 56 -139 69 -139 q 17 -122 33 -139 m 317 17 q 308 25 317 17 q 300 56 300 33 q 317 95 300 79 q 356 111 333 111 q 381 106 369 111 q 406 111 392 111 q 431 106 419 111 q 456 111 442 111 q 481 106 469 111 q 506 111 492 111 q 544 95 528 111 q 561 56 561 79 q 544 17 561 33 q 506 0 528 0 q 481 6 492 0 q 456 0 469 0 q 431 6 442 0 q 406 0 419 0 q 381 6 392 0 q 356 0 369 0 q 317 17 333 0 m 17 17 q 8 25 17 17 q 0 56 0 33 q 17 95 0 79 q 56 111 33 111 q 81 106 69 111 q 106 111 92 111 q 131 106 119 111 q 156 111 142 111 q 181 106 169 111 q 206 111 192 111 q 244 95 228 111 q 261 56 261 79 q 244 17 261 33 q 206 0 228 0 q 181 6 192 0 q 156 0 169 0 q 131 6 142 0 q 106 0 119 0 q 81 6 92 0 q 56 0 69 0 q 17 17 33 0 m 17 156 q 8 164 17 156 q 0 195 0 172 q 17 234 0 218 q 56 250 33 250 q 81 244 69 250 q 106 250 92 250 q 156 218 140 250 q 206 250 171 250 q 231 244 219 250 q 256 250 242 250 q 281 244 269 250 q 306 250 292 250 q 331 244 319 250 q 356 250 342 250 q 406 218 390 250 q 456 250 421 250 q 481 244 469 250 q 506 250 492 250 q 544 234 528 250 q 561 195 561 218 q 544 156 561 172 q 506 139 528 139 q 481 144 492 139 q 456 139 469 139 q 406 171 421 139 q 356 139 390 139 q 331 144 342 139 q 306 139 319 139 q 281 144 292 139 q 256 139 269 139 q 231 144 242 139 q 206 139 219 139 q 156 171 171 139 q 106 139 140 139 q 81 144 92 139 q 56 139 69 139 q 17 156 33 139 m 417 294 q 408 303 417 294 q 400 334 400 311 q 417 373 400 357 q 456 389 433 389 q 481 383 469 389 q 506 389 492 389 q 544 373 528 389 q 561 334 561 357 q 544 294 561 311 q 506 278 528 278 q 481 283 492 278 q 456 278 469 278 q 417 294 433 278 m 217 294 q 208 303 217 294 q 200 334 200 311 q 217 373 200 357 q 256 389 233 389 q 281 383 269 389 q 306 389 292 389 q 344 373 328 389 q 361 334 361 357 q 344 294 361 311 q 306 278 328 278 q 281 283 292 278 q 256 278 269 278 q 217 294 233 278 m 17 294 q 8 303 17 294 q 0 334 0 311 q 17 373 0 357 q 56 389 33 389 q 81 383 69 389 q 106 389 92 389 q 144 373 128 389 q 161 334 161 357 q 144 294 161 311 q 106 278 128 278 q 81 283 92 278 q 56 278 69 278 q 17 294 33 278 m 17 433 q 8 442 17 433 q 0 473 0 450 q 17 512 0 496 q 56 528 33 528 q 81 522 69 528 q 106 528 92 528 q 156 496 140 528 q 206 528 171 528 q 231 522 219 528 q 256 528 242 528 q 281 522 269 528 q 306 528 292 528 q 331 522 319 528 q 356 528 342 528 q 406 496 390 528 q 456 528 421 528 q 481 522 469 528 q 506 528 492 528 q 544 512 528 528 q 561 473 561 496 q 544 433 561 450 q 506 417 528 417 q 481 422 492 417 q 456 417 469 417 q 406 449 421 417 q 356 417 390 417 q 331 422 342 417 q 306 417 319 417 q 281 422 292 417 q 256 417 269 417 q 231 422 242 417 q 206 417 219 417 q 156 449 171 417 q 106 417 140 417 q 81 422 92 417 q 56 417 69 417 q 17 433 33 417 m 317 572 q 308 581 317 572 q 300 612 300 589 q 317 651 300 635 q 356 667 333 667 q 381 661 369 667 q 406 667 392 667 q 431 661 419 667 q 456 667 442 667 q 481 661 469 667 q 506 667 492 667 q 544 651 528 667 q 561 612 561 635 q 544 572 561 589 q 506 556 528 556 q 481 561 492 556 q 456 556 469 556 q 431 561 442 556 q 406 556 419 556 q 381 561 392 556 q 356 556 369 556 q 317 572 333 556 m 17 572 q 8 581 17 572 q 0 612 0 589 q 17 651 0 635 q 56 667 33 667 q 81 661 69 667 q 106 667 92 667 q 131 661 119 667 q 156 667 142 667 q 181 661 169 667 q 206 667 192 667 q 244 651 228 667 q 261 612 261 635 q 244 572 261 589 q 206 556 228 556 q 181 561 192 556 q 156 556 169 556 q 131 561 142 556 q 106 556 119 556 q 81 561 92 556 q 56 556 69 556 q 17 572 33 556 m 417 711 q 408 719 417 711 q 400 751 400 728 q 417 790 400 774 q 456 806 433 806 q 481 800 469 806 q 506 806 492 806 q 544 790 528 806 q 561 751 561 774 q 544 711 561 728 q 506 694 528 694 q 481 700 492 694 q 456 694 469 694 q 417 711 433 694 m 17 711 q 8 719 17 711 q 0 751 0 728 q 17 790 0 774 q 56 806 33 806 q 81 800 69 806 q 106 806 92 806 q 144 790 128 806 q 161 751 161 774 q 144 711 161 728 q 106 694 128 694 q 81 700 92 694 q 56 694 69 694 q 17 711 33 694 m 17 850 q 8 858 17 850 q 0 890 0 867 q 17 928 0 913 q 56 944 33 944 q 81 939 69 944 q 106 944 92 944 q 131 939 119 944 q 156 944 142 944 q 181 939 169 944 q 206 944 192 944 q 231 939 219 944 q 256 944 242 944 q 281 939 269 944 q 306 944 292 944 q 331 939 319 944 q 356 944 342 944 q 381 939 369 944 q 406 944 392 944 q 431 939 419 944 q 456 944 442 944 q 481 939 469 944 q 506 944 492 944 q 544 928 528 944 q 561 890 561 913 q 544 850 561 867 q 506 833 528 833 q 481 839 492 833 q 456 833 469 833 q 431 839 442 833 q 406 833 419 833 q 381 839 392 833 q 356 833 369 833 q 331 839 342 833 q 306 833 319 833 q 281 839 292 833 q 256 833 269 833 q 231 839 242 833 q 206 833 219 833 q 181 839 192 833 q 156 833 169 833 q 131 839 142 833 q 106 833 119 833 q 81 839 92 833 q 56 833 69 833 q 17 850 33 833 z "},"á":{"ha":600,"x_min":0,"x_max":561,"o":"m 0 -222 q 17 -183 0 -199 q 56 -167 33 -167 q 81 -172 69 -167 q 106 -167 92 -167 q 131 -172 119 -167 q 156 -167 142 -167 q 181 -172 169 -167 q 206 -167 192 -167 q 231 -172 219 -167 q 256 -167 242 -167 q 281 -172 269 -167 q 306 -167 292 -167 q 331 -172 319 -167 q 356 -167 342 -167 q 381 -172 369 -167 q 406 -167 392 -167 q 431 -172 419 -167 q 456 -167 442 -167 q 481 -172 469 -167 q 506 -167 492 -167 q 544 -183 528 -167 q 561 -222 561 -199 q 544 -261 561 -244 q 506 -278 528 -278 q 481 -272 492 -278 q 456 -278 469 -278 q 431 -272 442 -278 q 406 -278 419 -278 q 381 -272 392 -278 q 356 -278 369 -278 q 331 -272 342 -278 q 306 -278 319 -278 q 281 -272 292 -278 q 256 -278 269 -278 q 231 -272 242 -278 q 206 -278 219 -278 q 181 -272 192 -278 q 156 -278 169 -278 q 131 -272 142 -278 q 106 -278 119 -278 q 81 -272 92 -278 q 56 -278 69 -278 q 17 -261 33 -278 q 0 -222 0 -244 m 417 -122 q 408 -114 417 -122 q 400 -83 400 -106 q 417 -44 400 -60 q 456 -28 433 -28 q 481 -33 469 -28 q 506 -28 492 -28 q 544 -44 528 -28 q 561 -83 561 -60 q 544 -122 561 -106 q 506 -139 528 -139 q 481 -133 492 -139 q 456 -139 469 -139 q 417 -122 433 -139 m 17 -122 q 8 -114 17 -122 q 0 -83 0 -106 q 17 -44 0 -60 q 56 -28 33 -28 q 81 -33 69 -28 q 106 -28 92 -28 q 144 -44 128 -28 q 161 -83 161 -60 q 144 -122 161 -106 q 106 -139 128 -139 q 81 -133 92 -139 q 56 -139 69 -139 q 17 -122 33 -139 m 317 17 q 308 25 317 17 q 300 56 300 33 q 317 95 300 79 q 356 111 333 111 q 381 106 369 111 q 406 111 392 111 q 431 106 419 111 q 456 111 442 111 q 481 106 469 111 q 506 111 492 111 q 544 95 528 111 q 561 56 561 79 q 544 17 561 33 q 506 0 528 0 q 481 6 492 0 q 456 0 469 0 q 431 6 442 0 q 406 0 419 0 q 381 6 392 0 q 356 0 369 0 q 317 17 333 0 m 17 17 q 8 25 17 17 q 0 56 0 33 q 17 95 0 79 q 56 111 33 111 q 81 106 69 111 q 106 111 92 111 q 131 106 119 111 q 156 111 142 111 q 181 106 169 111 q 206 111 192 111 q 244 95 228 111 q 261 56 261 79 q 244 17 261 33 q 206 0 228 0 q 181 6 192 0 q 156 0 169 0 q 131 6 142 0 q 106 0 119 0 q 81 6 92 0 q 56 0 69 0 q 17 17 33 0 m 17 156 q 8 164 17 156 q 0 195 0 172 q 17 234 0 218 q 56 250 33 250 q 81 244 69 250 q 106 250 92 250 q 156 218 140 250 q 206 250 171 250 q 231 244 219 250 q 256 250 242 250 q 281 244 269 250 q 306 250 292 250 q 331 244 319 250 q 356 250 342 250 q 406 218 390 250 q 456 250 421 250 q 481 244 469 250 q 506 250 492 250 q 544 234 528 250 q 561 195 561 218 q 544 156 561 172 q 506 139 528 139 q 481 144 492 139 q 456 139 469 139 q 406 171 421 139 q 356 139 390 139 q 331 144 342 139 q 306 139 319 139 q 281 144 292 139 q 256 139 269 139 q 231 144 242 139 q 206 139 219 139 q 156 171 171 139 q 106 139 140 139 q 81 144 92 139 q 56 139 69 139 q 17 156 33 139 m 417 294 q 408 303 417 294 q 400 334 400 311 q 417 373 400 357 q 456 389 433 389 q 481 383 469 389 q 506 389 492 389 q 544 373 528 389 q 561 334 561 357 q 544 294 561 311 q 506 278 528 278 q 481 283 492 278 q 456 278 469 278 q 417 294 433 278 m 217 294 q 208 303 217 294 q 200 334 200 311 q 217 373 200 357 q 256 389 233 389 q 281 383 269 389 q 306 389 292 389 q 344 373 328 389 q 361 334 361 357 q 344 294 361 311 q 306 278 328 278 q 281 283 292 278 q 256 278 269 278 q 217 294 233 278 m 17 294 q 8 303 17 294 q 0 334 0 311 q 17 373 0 357 q 56 389 33 389 q 81 383 69 389 q 106 389 92 389 q 144 373 128 389 q 161 334 161 357 q 144 294 161 311 q 106 278 128 278 q 81 283 92 278 q 56 278 69 278 q 17 294 33 278 m 17 433 q 8 442 17 433 q 0 473 0 450 q 17 512 0 496 q 56 528 33 528 q 81 522 69 528 q 106 528 92 528 q 156 496 140 528 q 206 528 171 528 q 231 522 219 528 q 256 528 242 528 q 281 522 269 528 q 306 528 292 528 q 331 522 319 528 q 356 528 342 528 q 406 496 390 528 q 456 528 421 528 q 481 522 469 528 q 506 528 492 528 q 544 512 528 528 q 561 473 561 496 q 544 433 561 450 q 506 417 528 417 q 481 422 492 417 q 456 417 469 417 q 406 449 421 417 q 356 417 390 417 q 331 422 342 417 q 306 417 319 417 q 281 422 292 417 q 256 417 269 417 q 231 422 242 417 q 206 417 219 417 q 156 449 171 417 q 106 417 140 417 q 81 422 92 417 q 56 417 69 417 q 17 433 33 417 m 317 572 q 308 581 317 572 q 300 612 300 589 q 317 651 300 635 q 356 667 333 667 q 381 661 369 667 q 406 667 392 667 q 431 661 419 667 q 456 667 442 667 q 481 661 469 667 q 506 667 492 667 q 544 651 528 667 q 561 612 561 635 q 544 572 561 589 q 506 556 528 556 q 481 561 492 556 q 456 556 469 556 q 431 561 442 556 q 406 556 419 556 q 381 561 392 556 q 356 556 369 556 q 317 572 333 556 m 17 572 q 8 581 17 572 q 0 612 0 589 q 17 651 0 635 q 56 667 33 667 q 81 661 69 667 q 106 667 92 667 q 131 661 119 667 q 156 667 142 667 q 181 661 169 667 q 206 667 192 667 q 244 651 228 667 q 261 612 261 635 q 244 572 261 589 q 206 556 228 556 q 181 561 192 556 q 156 556 169 556 q 131 561 142 556 q 106 556 119 556 q 81 561 92 556 q 56 556 69 556 q 17 572 33 556 m 417 711 q 408 719 417 711 q 400 751 400 728 q 417 790 400 774 q 456 806 433 806 q 481 800 469 806 q 506 806 492 806 q 544 790 528 806 q 561 751 561 774 q 544 711 561 728 q 506 694 528 694 q 481 700 492 694 q 456 694 469 694 q 417 711 433 694 m 17 711 q 8 719 17 711 q 0 751 0 728 q 17 790 0 774 q 56 806 33 806 q 81 800 69 806 q 106 806 92 806 q 144 790 128 806 q 161 751 161 774 q 144 711 161 728 q 106 694 128 694 q 81 700 92 694 q 56 694 69 694 q 17 711 33 694 m 17 850 q 8 858 17 850 q 0 890 0 867 q 17 928 0 913 q 56 944 33 944 q 81 939 69 944 q 106 944 92 944 q 131 939 119 944 q 156 944 142 944 q 181 939 169 944 q 206 944 192 944 q 231 939 219 944 q 256 944 242 944 q 281 939 269 944 q 306 944 292 944 q 331 939 319 944 q 356 944 342 944 q 381 939 369 944 q 406 944 392 944 q 431 939 419 944 q 456 944 442 944 q 481 939 469 944 q 506 944 492 944 q 544 928 528 944 q 561 890 561 913 q 544 850 561 867 q 506 833 528 833 q 481 839 492 833 q 456 833 469 833 q 431 839 442 833 q 406 833 419 833 q 381 839 392 833 q 356 833 369 833 q 331 839 342 833 q 306 833 319 833 q 281 839 292 833 q 256 833 269 833 q 231 839 242 833 q 206 833 219 833 q 181 839 192 833 q 156 833 169 833 q 131 839 142 833 q 106 833 119 833 q 81 839 92 833 q 56 833 69 833 q 17 850 33 833 z "},"ó":{"ha":600,"x_min":0,"x_max":561,"o":"m 0 -222 q 17 -183 0 -199 q 56 -167 33 -167 q 81 -172 69 -167 q 106 -167 92 -167 q 131 -172 119 -167 q 156 -167 142 -167 q 181 -172 169 -167 q 206 -167 192 -167 q 231 -172 219 -167 q 256 -167 242 -167 q 281 -172 269 -167 q 306 -167 292 -167 q 331 -172 319 -167 q 356 -167 342 -167 q 381 -172 369 -167 q 406 -167 392 -167 q 431 -172 419 -167 q 456 -167 442 -167 q 481 -172 469 -167 q 506 -167 492 -167 q 544 -183 528 -167 q 561 -222 561 -199 q 544 -261 561 -244 q 506 -278 528 -278 q 481 -272 492 -278 q 456 -278 469 -278 q 431 -272 442 -278 q 406 -278 419 -278 q 381 -272 392 -278 q 356 -278 369 -278 q 331 -272 342 -278 q 306 -278 319 -278 q 281 -272 292 -278 q 256 -278 269 -278 q 231 -272 242 -278 q 206 -278 219 -278 q 181 -272 192 -278 q 156 -278 169 -278 q 131 -272 142 -278 q 106 -278 119 -278 q 81 -272 92 -278 q 56 -278 69 -278 q 17 -261 33 -278 q 0 -222 0 -244 m 417 -122 q 408 -114 417 -122 q 400 -83 400 -106 q 417 -44 400 -60 q 456 -28 433 -28 q 481 -33 469 -28 q 506 -28 492 -28 q 544 -44 528 -28 q 561 -83 561 -60 q 544 -122 561 -106 q 506 -139 528 -139 q 481 -133 492 -139 q 456 -139 469 -139 q 417 -122 433 -139 m 17 -122 q 8 -114 17 -122 q 0 -83 0 -106 q 17 -44 0 -60 q 56 -28 33 -28 q 81 -33 69 -28 q 106 -28 92 -28 q 144 -44 128 -28 q 161 -83 161 -60 q 144 -122 161 -106 q 106 -139 128 -139 q 81 -133 92 -139 q 56 -139 69 -139 q 17 -122 33 -139 m 317 17 q 308 25 317 17 q 300 56 300 33 q 317 95 300 79 q 356 111 333 111 q 381 106 369 111 q 406 111 392 111 q 431 106 419 111 q 456 111 442 111 q 481 106 469 111 q 506 111 492 111 q 544 95 528 111 q 561 56 561 79 q 544 17 561 33 q 506 0 528 0 q 481 6 492 0 q 456 0 469 0 q 431 6 442 0 q 406 0 419 0 q 381 6 392 0 q 356 0 369 0 q 317 17 333 0 m 17 17 q 8 25 17 17 q 0 56 0 33 q 17 95 0 79 q 56 111 33 111 q 81 106 69 111 q 106 111 92 111 q 131 106 119 111 q 156 111 142 111 q 181 106 169 111 q 206 111 192 111 q 244 95 228 111 q 261 56 261 79 q 244 17 261 33 q 206 0 228 0 q 181 6 192 0 q 156 0 169 0 q 131 6 142 0 q 106 0 119 0 q 81 6 92 0 q 56 0 69 0 q 17 17 33 0 m 17 156 q 8 164 17 156 q 0 195 0 172 q 17 234 0 218 q 56 250 33 250 q 81 244 69 250 q 106 250 92 250 q 156 218 140 250 q 206 250 171 250 q 231 244 219 250 q 256 250 242 250 q 281 244 269 250 q 306 250 292 250 q 331 244 319 250 q 356 250 342 250 q 406 218 390 250 q 456 250 421 250 q 481 244 469 250 q 506 250 492 250 q 544 234 528 250 q 561 195 561 218 q 544 156 561 172 q 506 139 528 139 q 481 144 492 139 q 456 139 469 139 q 406 171 421 139 q 356 139 390 139 q 331 144 342 139 q 306 139 319 139 q 281 144 292 139 q 256 139 269 139 q 231 144 242 139 q 206 139 219 139 q 156 171 171 139 q 106 139 140 139 q 81 144 92 139 q 56 139 69 139 q 17 156 33 139 m 417 294 q 408 303 417 294 q 400 334 400 311 q 417 373 400 357 q 456 389 433 389 q 481 383 469 389 q 506 389 492 389 q 544 373 528 389 q 561 334 561 357 q 544 294 561 311 q 506 278 528 278 q 481 283 492 278 q 456 278 469 278 q 417 294 433 278 m 217 294 q 208 303 217 294 q 200 334 200 311 q 217 373 200 357 q 256 389 233 389 q 281 383 269 389 q 306 389 292 389 q 344 373 328 389 q 361 334 361 357 q 344 294 361 311 q 306 278 328 278 q 281 283 292 278 q 256 278 269 278 q 217 294 233 278 m 17 294 q 8 303 17 294 q 0 334 0 311 q 17 373 0 357 q 56 389 33 389 q 81 383 69 389 q 106 389 92 389 q 144 373 128 389 q 161 334 161 357 q 144 294 161 311 q 106 278 128 278 q 81 283 92 278 q 56 278 69 278 q 17 294 33 278 m 17 433 q 8 442 17 433 q 0 473 0 450 q 17 512 0 496 q 56 528 33 528 q 81 522 69 528 q 106 528 92 528 q 156 496 140 528 q 206 528 171 528 q 231 522 219 528 q 256 528 242 528 q 281 522 269 528 q 306 528 292 528 q 331 522 319 528 q 356 528 342 528 q 406 496 390 528 q 456 528 421 528 q 481 522 469 528 q 506 528 492 528 q 544 512 528 528 q 561 473 561 496 q 544 433 561 450 q 506 417 528 417 q 481 422 492 417 q 456 417 469 417 q 406 449 421 417 q 356 417 390 417 q 331 422 342 417 q 306 417 319 417 q 281 422 292 417 q 256 417 269 417 q 231 422 242 417 q 206 417 219 417 q 156 449 171 417 q 106 417 140 417 q 81 422 92 417 q 56 417 69 417 q 17 433 33 417 m 317 572 q 308 581 317 572 q 300 612 300 589 q 317 651 300 635 q 356 667 333 667 q 381 661 369 667 q 406 667 392 667 q 431 661 419 667 q 456 667 442 667 q 481 661 469 667 q 506 667 492 667 q 544 651 528 667 q 561 612 561 635 q 544 572 561 589 q 506 556 528 556 q 481 561 492 556 q 456 556 469 556 q 431 561 442 556 q 406 556 419 556 q 381 561 392 556 q 356 556 369 556 q 317 572 333 556 m 17 572 q 8 581 17 572 q 0 612 0 589 q 17 651 0 635 q 56 667 33 667 q 81 661 69 667 q 106 667 92 667 q 131 661 119 667 q 156 667 142 667 q 181 661 169 667 q 206 667 192 667 q 244 651 228 667 q 261 612 261 635 q 244 572 261 589 q 206 556 228 556 q 181 561 192 556 q 156 556 169 556 q 131 561 142 556 q 106 556 119 556 q 81 561 92 556 q 56 556 69 556 q 17 572 33 556 m 417 711 q 408 719 417 711 q 400 751 400 728 q 417 790 400 774 q 456 806 433 806 q 481 800 469 806 q 506 806 492 806 q 544 790 528 806 q 561 751 561 774 q 544 711 561 728 q 506 694 528 694 q 481 700 492 694 q 456 694 469 694 q 417 711 433 694 m 17 711 q 8 719 17 711 q 0 751 0 728 q 17 790 0 774 q 56 806 33 806 q 81 800 69 806 q 106 806 92 806 q 144 790 128 806 q 161 751 161 774 q 144 711 161 728 q 106 694 128 694 q 81 700 92 694 q 56 694 69 694 q 17 711 33 694 m 17 850 q 8 858 17 850 q 0 890 0 867 q 17 928 0 913 q 56 944 33 944 q 81 939 69 944 q 106 944 92 944 q 131 939 119 944 q 156 944 142 944 q 181 939 169 944 q 206 944 192 944 q 231 939 219 944 q 256 944 242 944 q 281 939 269 944 q 306 944 292 944 q 331 939 319 944 q 356 944 342 944 q 381 939 369 944 q 406 944 392 944 q 431 939 419 944 q 456 944 442 944 q 481 939 469 944 q 506 944 492 944 q 544 928 528 944 q 561 890 561 913 q 544 850 561 867 q 506 833 528 833 q 481 839 492 833 q 456 833 469 833 q 431 839 442 833 q 406 833 419 833 q 381 839 392 833 q 356 833 369 833 q 331 839 342 833 q 306 833 319 833 q 281 839 292 833 q 256 833 269 833 q 231 839 242 833 q 206 833 219 833 q 181 839 192 833 q 156 833 169 833 q 131 839 142 833 q 106 833 119 833 q 81 839 92 833 q 56 833 69 833 q 17 850 33 833 z "},"ô":{"ha":600,"x_min":0,"x_max":561,"o":"m 0 -222 q 17 -183 0 -199 q 56 -167 33 -167 q 81 -172 69 -167 q 106 -167 92 -167 q 131 -172 119 -167 q 156 -167 142 -167 q 181 -172 169 -167 q 206 -167 192 -167 q 231 -172 219 -167 q 256 -167 242 -167 q 281 -172 269 -167 q 306 -167 292 -167 q 331 -172 319 -167 q 356 -167 342 -167 q 381 -172 369 -167 q 406 -167 392 -167 q 431 -172 419 -167 q 456 -167 442 -167 q 481 -172 469 -167 q 506 -167 492 -167 q 544 -183 528 -167 q 561 -222 561 -199 q 544 -261 561 -244 q 506 -278 528 -278 q 481 -272 492 -278 q 456 -278 469 -278 q 431 -272 442 -278 q 406 -278 419 -278 q 381 -272 392 -278 q 356 -278 369 -278 q 331 -272 342 -278 q 306 -278 319 -278 q 281 -272 292 -278 q 256 -278 269 -278 q 231 -272 242 -278 q 206 -278 219 -278 q 181 -272 192 -278 q 156 -278 169 -278 q 131 -272 142 -278 q 106 -278 119 -278 q 81 -272 92 -278 q 56 -278 69 -278 q 17 -261 33 -278 q 0 -222 0 -244 m 417 -122 q 408 -114 417 -122 q 400 -83 400 -106 q 417 -44 400 -60 q 456 -28 433 -28 q 481 -33 469 -28 q 506 -28 492 -28 q 544 -44 528 -28 q 561 -83 561 -60 q 544 -122 561 -106 q 506 -139 528 -139 q 481 -133 492 -139 q 456 -139 469 -139 q 417 -122 433 -139 m 17 -122 q 8 -114 17 -122 q 0 -83 0 -106 q 17 -44 0 -60 q 56 -28 33 -28 q 81 -33 69 -28 q 106 -28 92 -28 q 144 -44 128 -28 q 161 -83 161 -60 q 144 -122 161 -106 q 106 -139 128 -139 q 81 -133 92 -139 q 56 -139 69 -139 q 17 -122 33 -139 m 317 17 q 308 25 317 17 q 300 56 300 33 q 317 95 300 79 q 356 111 333 111 q 381 106 369 111 q 406 111 392 111 q 431 106 419 111 q 456 111 442 111 q 481 106 469 111 q 506 111 492 111 q 544 95 528 111 q 561 56 561 79 q 544 17 561 33 q 506 0 528 0 q 481 6 492 0 q 456 0 469 0 q 431 6 442 0 q 406 0 419 0 q 381 6 392 0 q 356 0 369 0 q 317 17 333 0 m 17 17 q 8 25 17 17 q 0 56 0 33 q 17 95 0 79 q 56 111 33 111 q 81 106 69 111 q 106 111 92 111 q 131 106 119 111 q 156 111 142 111 q 181 106 169 111 q 206 111 192 111 q 244 95 228 111 q 261 56 261 79 q 244 17 261 33 q 206 0 228 0 q 181 6 192 0 q 156 0 169 0 q 131 6 142 0 q 106 0 119 0 q 81 6 92 0 q 56 0 69 0 q 17 17 33 0 m 17 156 q 8 164 17 156 q 0 195 0 172 q 17 234 0 218 q 56 250 33 250 q 81 244 69 250 q 106 250 92 250 q 156 218 140 250 q 206 250 171 250 q 231 244 219 250 q 256 250 242 250 q 281 244 269 250 q 306 250 292 250 q 331 244 319 250 q 356 250 342 250 q 406 218 390 250 q 456 250 421 250 q 481 244 469 250 q 506 250 492 250 q 544 234 528 250 q 561 195 561 218 q 544 156 561 172 q 506 139 528 139 q 481 144 492 139 q 456 139 469 139 q 406 171 421 139 q 356 139 390 139 q 331 144 342 139 q 306 139 319 139 q 281 144 292 139 q 256 139 269 139 q 231 144 242 139 q 206 139 219 139 q 156 171 171 139 q 106 139 140 139 q 81 144 92 139 q 56 139 69 139 q 17 156 33 139 m 417 294 q 408 303 417 294 q 400 334 400 311 q 417 373 400 357 q 456 389 433 389 q 481 383 469 389 q 506 389 492 389 q 544 373 528 389 q 561 334 561 357 q 544 294 561 311 q 506 278 528 278 q 481 283 492 278 q 456 278 469 278 q 417 294 433 278 m 217 294 q 208 303 217 294 q 200 334 200 311 q 217 373 200 357 q 256 389 233 389 q 281 383 269 389 q 306 389 292 389 q 344 373 328 389 q 361 334 361 357 q 344 294 361 311 q 306 278 328 278 q 281 283 292 278 q 256 278 269 278 q 217 294 233 278 m 17 294 q 8 303 17 294 q 0 334 0 311 q 17 373 0 357 q 56 389 33 389 q 81 383 69 389 q 106 389 92 389 q 144 373 128 389 q 161 334 161 357 q 144 294 161 311 q 106 278 128 278 q 81 283 92 278 q 56 278 69 278 q 17 294 33 278 m 17 433 q 8 442 17 433 q 0 473 0 450 q 17 512 0 496 q 56 528 33 528 q 81 522 69 528 q 106 528 92 528 q 156 496 140 528 q 206 528 171 528 q 231 522 219 528 q 256 528 242 528 q 281 522 269 528 q 306 528 292 528 q 331 522 319 528 q 356 528 342 528 q 406 496 390 528 q 456 528 421 528 q 481 522 469 528 q 506 528 492 528 q 544 512 528 528 q 561 473 561 496 q 544 433 561 450 q 506 417 528 417 q 481 422 492 417 q 456 417 469 417 q 406 449 421 417 q 356 417 390 417 q 331 422 342 417 q 306 417 319 417 q 281 422 292 417 q 256 417 269 417 q 231 422 242 417 q 206 417 219 417 q 156 449 171 417 q 106 417 140 417 q 81 422 92 417 q 56 417 69 417 q 17 433 33 417 m 317 572 q 308 581 317 572 q 300 612 300 589 q 317 651 300 635 q 356 667 333 667 q 381 661 369 667 q 406 667 392 667 q 431 661 419 667 q 456 667 442 667 q 481 661 469 667 q 506 667 492 667 q 544 651 528 667 q 561 612 561 635 q 544 572 561 589 q 506 556 528 556 q 481 561 492 556 q 456 556 469 556 q 431 561 442 556 q 406 556 419 556 q 381 561 392 556 q 356 556 369 556 q 317 572 333 556 m 17 572 q 8 581 17 572 q 0 612 0 589 q 17 651 0 635 q 56 667 33 667 q 81 661 69 667 q 106 667 92 667 q 131 661 119 667 q 156 667 142 667 q 181 661 169 667 q 206 667 192 667 q 244 651 228 667 q 261 612 261 635 q 244 572 261 589 q 206 556 228 556 q 181 561 192 556 q 156 556 169 556 q 131 561 142 556 q 106 556 119 556 q 81 561 92 556 q 56 556 69 556 q 17 572 33 556 m 417 711 q 408 719 417 711 q 400 751 400 728 q 417 790 400 774 q 456 806 433 806 q 481 800 469 806 q 506 806 492 806 q 544 790 528 806 q 561 751 561 774 q 544 711 561 728 q 506 694 528 694 q 481 700 492 694 q 456 694 469 694 q 417 711 433 694 m 17 711 q 8 719 17 711 q 0 751 0 728 q 17 790 0 774 q 56 806 33 806 q 81 800 69 806 q 106 806 92 806 q 144 790 128 806 q 161 751 161 774 q 144 711 161 728 q 106 694 128 694 q 81 700 92 694 q 56 694 69 694 q 17 711 33 694 m 17 850 q 8 858 17 850 q 0 890 0 867 q 17 928 0 913 q 56 944 33 944 q 81 939 69 944 q 106 944 92 944 q 131 939 119 944 q 156 944 142 944 q 181 939 169 944 q 206 944 192 944 q 231 939 219 944 q 256 944 242 944 q 281 939 269 944 q 306 944 292 944 q 331 939 319 944 q 356 944 342 944 q 381 939 369 944 q 406 944 392 944 q 431 939 419 944 q 456 944 442 944 q 481 939 469 944 q 506 944 492 944 q 544 928 528 944 q 561 890 561 913 q 544 850 561 867 q 506 833 528 833 q 481 839 492 833 q 456 833 469 833 q 431 839 442 833 q 406 833 419 833 q 381 839 392 833 q 356 833 369 833 q 331 839 342 833 q 306 833 319 833 q 281 839 292 833 q 256 833 269 833 q 231 839 242 833 q 206 833 219 833 q 181 839 192 833 q 156 833 169 833 q 131 839 142 833 q 106 833 119 833 q 81 839 92 833 q 56 833 69 833 q 17 850 33 833 z "},"õ":{"ha":600,"x_min":0,"x_max":561,"o":"m 0 -222 q 17 -183 0 -199 q 56 -167 33 -167 q 81 -172 69 -167 q 106 -167 92 -167 q 131 -172 119 -167 q 156 -167 142 -167 q 181 -172 169 -167 q 206 -167 192 -167 q 231 -172 219 -167 q 256 -167 242 -167 q 281 -172 269 -167 q 306 -167 292 -167 q 331 -172 319 -167 q 356 -167 342 -167 q 381 -172 369 -167 q 406 -167 392 -167 q 431 -172 419 -167 q 456 -167 442 -167 q 481 -172 469 -167 q 506 -167 492 -167 q 544 -183 528 -167 q 561 -222 561 -199 q 544 -261 561 -244 q 506 -278 528 -278 q 481 -272 492 -278 q 456 -278 469 -278 q 431 -272 442 -278 q 406 -278 419 -278 q 381 -272 392 -278 q 356 -278 369 -278 q 331 -272 342 -278 q 306 -278 319 -278 q 281 -272 292 -278 q 256 -278 269 -278 q 231 -272 242 -278 q 206 -278 219 -278 q 181 -272 192 -278 q 156 -278 169 -278 q 131 -272 142 -278 q 106 -278 119 -278 q 81 -272 92 -278 q 56 -278 69 -278 q 17 -261 33 -278 q 0 -222 0 -244 m 417 -122 q 408 -114 417 -122 q 400 -83 400 -106 q 417 -44 400 -60 q 456 -28 433 -28 q 481 -33 469 -28 q 506 -28 492 -28 q 544 -44 528 -28 q 561 -83 561 -60 q 544 -122 561 -106 q 506 -139 528 -139 q 481 -133 492 -139 q 456 -139 469 -139 q 417 -122 433 -139 m 17 -122 q 8 -114 17 -122 q 0 -83 0 -106 q 17 -44 0 -60 q 56 -28 33 -28 q 81 -33 69 -28 q 106 -28 92 -28 q 144 -44 128 -28 q 161 -83 161 -60 q 144 -122 161 -106 q 106 -139 128 -139 q 81 -133 92 -139 q 56 -139 69 -139 q 17 -122 33 -139 m 317 17 q 308 25 317 17 q 300 56 300 33 q 317 95 300 79 q 356 111 333 111 q 381 106 369 111 q 406 111 392 111 q 431 106 419 111 q 456 111 442 111 q 481 106 469 111 q 506 111 492 111 q 544 95 528 111 q 561 56 561 79 q 544 17 561 33 q 506 0 528 0 q 481 6 492 0 q 456 0 469 0 q 431 6 442 0 q 406 0 419 0 q 381 6 392 0 q 356 0 369 0 q 317 17 333 0 m 17 17 q 8 25 17 17 q 0 56 0 33 q 17 95 0 79 q 56 111 33 111 q 81 106 69 111 q 106 111 92 111 q 131 106 119 111 q 156 111 142 111 q 181 106 169 111 q 206 111 192 111 q 244 95 228 111 q 261 56 261 79 q 244 17 261 33 q 206 0 228 0 q 181 6 192 0 q 156 0 169 0 q 131 6 142 0 q 106 0 119 0 q 81 6 92 0 q 56 0 69 0 q 17 17 33 0 m 17 156 q 8 164 17 156 q 0 195 0 172 q 17 234 0 218 q 56 250 33 250 q 81 244 69 250 q 106 250 92 250 q 156 218 140 250 q 206 250 171 250 q 231 244 219 250 q 256 250 242 250 q 281 244 269 250 q 306 250 292 250 q 331 244 319 250 q 356 250 342 250 q 406 218 390 250 q 456 250 421 250 q 481 244 469 250 q 506 250 492 250 q 544 234 528 250 q 561 195 561 218 q 544 156 561 172 q 506 139 528 139 q 481 144 492 139 q 456 139 469 139 q 406 171 421 139 q 356 139 390 139 q 331 144 342 139 q 306 139 319 139 q 281 144 292 139 q 256 139 269 139 q 231 144 242 139 q 206 139 219 139 q 156 171 171 139 q 106 139 140 139 q 81 144 92 139 q 56 139 69 139 q 17 156 33 139 m 417 294 q 408 303 417 294 q 400 334 400 311 q 417 373 400 357 q 456 389 433 389 q 481 383 469 389 q 506 389 492 389 q 544 373 528 389 q 561 334 561 357 q 544 294 561 311 q 506 278 528 278 q 481 283 492 278 q 456 278 469 278 q 417 294 433 278 m 217 294 q 208 303 217 294 q 200 334 200 311 q 217 373 200 357 q 256 389 233 389 q 281 383 269 389 q 306 389 292 389 q 344 373 328 389 q 361 334 361 357 q 344 294 361 311 q 306 278 328 278 q 281 283 292 278 q 256 278 269 278 q 217 294 233 278 m 17 294 q 8 303 17 294 q 0 334 0 311 q 17 373 0 357 q 56 389 33 389 q 81 383 69 389 q 106 389 92 389 q 144 373 128 389 q 161 334 161 357 q 144 294 161 311 q 106 278 128 278 q 81 283 92 278 q 56 278 69 278 q 17 294 33 278 m 17 433 q 8 442 17 433 q 0 473 0 450 q 17 512 0 496 q 56 528 33 528 q 81 522 69 528 q 106 528 92 528 q 156 496 140 528 q 206 528 171 528 q 231 522 219 528 q 256 528 242 528 q 281 522 269 528 q 306 528 292 528 q 331 522 319 528 q 356 528 342 528 q 406 496 390 528 q 456 528 421 528 q 481 522 469 528 q 506 528 492 528 q 544 512 528 528 q 561 473 561 496 q 544 433 561 450 q 506 417 528 417 q 481 422 492 417 q 456 417 469 417 q 406 449 421 417 q 356 417 390 417 q 331 422 342 417 q 306 417 319 417 q 281 422 292 417 q 256 417 269 417 q 231 422 242 417 q 206 417 219 417 q 156 449 171 417 q 106 417 140 417 q 81 422 92 417 q 56 417 69 417 q 17 433 33 417 m 317 572 q 308 581 317 572 q 300 612 300 589 q 317 651 300 635 q 356 667 333 667 q 381 661 369 667 q 406 667 392 667 q 431 661 419 667 q 456 667 442 667 q 481 661 469 667 q 506 667 492 667 q 544 651 528 667 q 561 612 561 635 q 544 572 561 589 q 506 556 528 556 q 481 561 492 556 q 456 556 469 556 q 431 561 442 556 q 406 556 419 556 q 381 561 392 556 q 356 556 369 556 q 317 572 333 556 m 17 572 q 8 581 17 572 q 0 612 0 589 q 17 651 0 635 q 56 667 33 667 q 81 661 69 667 q 106 667 92 667 q 131 661 119 667 q 156 667 142 667 q 181 661 169 667 q 206 667 192 667 q 244 651 228 667 q 261 612 261 635 q 244 572 261 589 q 206 556 228 556 q 181 561 192 556 q 156 556 169 556 q 131 561 142 556 q 106 556 119 556 q 81 561 92 556 q 56 556 69 556 q 17 572 33 556 m 417 711 q 408 719 417 711 q 400 751 400 728 q 417 790 400 774 q 456 806 433 806 q 481 800 469 806 q 506 806 492 806 q 544 790 528 806 q 561 751 561 774 q 544 711 561 728 q 506 694 528 694 q 481 700 492 694 q 456 694 469 694 q 417 711 433 694 m 17 711 q 8 719 17 711 q 0 751 0 728 q 17 790 0 774 q 56 806 33 806 q 81 800 69 806 q 106 806 92 806 q 144 790 128 806 q 161 751 161 774 q 144 711 161 728 q 106 694 128 694 q 81 700 92 694 q 56 694 69 694 q 17 711 33 694 m 17 850 q 8 858 17 850 q 0 890 0 867 q 17 928 0 913 q 56 944 33 944 q 81 939 69 944 q 106 944 92 944 q 131 939 119 944 q 156 944 142 944 q 181 939 169 944 q 206 944 192 944 q 231 939 219 944 q 256 944 242 944 q 281 939 269 944 q 306 944 292 944 q 331 939 319 944 q 356 944 342 944 q 381 939 369 944 q 406 944 392 944 q 431 939 419 944 q 456 944 442 944 q 481 939 469 944 q 506 944 492 944 q 544 928 528 944 q 561 890 561 913 q 544 850 561 867 q 506 833 528 833 q 481 839 492 833 q 456 833 469 833 q 431 839 442 833 q 406 833 419 833 q 381 839 392 833 q 356 833 369 833 q 331 839 342 833 q 306 833 319 833 q 281 839 292 833 q 256 833 269 833 q 231 839 242 833 q 206 833 219 833 q 181 839 192 833 q 156 833 169 833 q 131 839 142 833 q 106 833 119 833 q 81 839 92 833 q 56 833 69 833 q 17 850 33 833 z "},"÷":{"ha":600,"x_min":0,"x_max":561,"o":"m 0 -222 q 17 -183 0 -199 q 56 -167 33 -167 q 81 -172 69 -167 q 106 -167 92 -167 q 131 -172 119 -167 q 156 -167 142 -167 q 181 -172 169 -167 q 206 -167 192 -167 q 231 -172 219 -167 q 256 -167 242 -167 q 281 -172 269 -167 q 306 -167 292 -167 q 331 -172 319 -167 q 356 -167 342 -167 q 381 -172 369 -167 q 406 -167 392 -167 q 431 -172 419 -167 q 456 -167 442 -167 q 481 -172 469 -167 q 506 -167 492 -167 q 544 -183 528 -167 q 561 -222 561 -199 q 544 -261 561 -244 q 506 -278 528 -278 q 481 -272 492 -278 q 456 -278 469 -278 q 431 -272 442 -278 q 406 -278 419 -278 q 381 -272 392 -278 q 356 -278 369 -278 q 331 -272 342 -278 q 306 -278 319 -278 q 281 -272 292 -278 q 256 -278 269 -278 q 231 -272 242 -278 q 206 -278 219 -278 q 181 -272 192 -278 q 156 -278 169 -278 q 131 -272 142 -278 q 106 -278 119 -278 q 81 -272 92 -278 q 56 -278 69 -278 q 17 -261 33 -278 q 0 -222 0 -244 m 417 -122 q 408 -114 417 -122 q 400 -83 400 -106 q 417 -44 400 -60 q 456 -28 433 -28 q 481 -33 469 -28 q 506 -28 492 -28 q 544 -44 528 -28 q 561 -83 561 -60 q 544 -122 561 -106 q 506 -139 528 -139 q 481 -133 492 -139 q 456 -139 469 -139 q 417 -122 433 -139 m 17 -122 q 8 -114 17 -122 q 0 -83 0 -106 q 17 -44 0 -60 q 56 -28 33 -28 q 81 -33 69 -28 q 106 -28 92 -28 q 144 -44 128 -28 q 161 -83 161 -60 q 144 -122 161 -106 q 106 -139 128 -139 q 81 -133 92 -139 q 56 -139 69 -139 q 17 -122 33 -139 m 317 17 q 308 25 317 17 q 300 56 300 33 q 317 95 300 79 q 356 111 333 111 q 381 106 369 111 q 406 111 392 111 q 431 106 419 111 q 456 111 442 111 q 481 106 469 111 q 506 111 492 111 q 544 95 528 111 q 561 56 561 79 q 544 17 561 33 q 506 0 528 0 q 481 6 492 0 q 456 0 469 0 q 431 6 442 0 q 406 0 419 0 q 381 6 392 0 q 356 0 369 0 q 317 17 333 0 m 17 17 q 8 25 17 17 q 0 56 0 33 q 17 95 0 79 q 56 111 33 111 q 81 106 69 111 q 106 111 92 111 q 131 106 119 111 q 156 111 142 111 q 181 106 169 111 q 206 111 192 111 q 244 95 228 111 q 261 56 261 79 q 244 17 261 33 q 206 0 228 0 q 181 6 192 0 q 156 0 169 0 q 131 6 142 0 q 106 0 119 0 q 81 6 92 0 q 56 0 69 0 q 17 17 33 0 m 17 156 q 8 164 17 156 q 0 195 0 172 q 17 234 0 218 q 56 250 33 250 q 81 244 69 250 q 106 250 92 250 q 156 218 140 250 q 206 250 171 250 q 231 244 219 250 q 256 250 242 250 q 281 244 269 250 q 306 250 292 250 q 331 244 319 250 q 356 250 342 250 q 406 218 390 250 q 456 250 421 250 q 481 244 469 250 q 506 250 492 250 q 544 234 528 250 q 561 195 561 218 q 544 156 561 172 q 506 139 528 139 q 481 144 492 139 q 456 139 469 139 q 406 171 421 139 q 356 139 390 139 q 331 144 342 139 q 306 139 319 139 q 281 144 292 139 q 256 139 269 139 q 231 144 242 139 q 206 139 219 139 q 156 171 171 139 q 106 139 140 139 q 81 144 92 139 q 56 139 69 139 q 17 156 33 139 m 417 294 q 408 303 417 294 q 400 334 400 311 q 417 373 400 357 q 456 389 433 389 q 481 383 469 389 q 506 389 492 389 q 544 373 528 389 q 561 334 561 357 q 544 294 561 311 q 506 278 528 278 q 481 283 492 278 q 456 278 469 278 q 417 294 433 278 m 217 294 q 208 303 217 294 q 200 334 200 311 q 217 373 200 357 q 256 389 233 389 q 281 383 269 389 q 306 389 292 389 q 344 373 328 389 q 361 334 361 357 q 344 294 361 311 q 306 278 328 278 q 281 283 292 278 q 256 278 269 278 q 217 294 233 278 m 17 294 q 8 303 17 294 q 0 334 0 311 q 17 373 0 357 q 56 389 33 389 q 81 383 69 389 q 106 389 92 389 q 144 373 128 389 q 161 334 161 357 q 144 294 161 311 q 106 278 128 278 q 81 283 92 278 q 56 278 69 278 q 17 294 33 278 m 17 433 q 8 442 17 433 q 0 473 0 450 q 17 512 0 496 q 56 528 33 528 q 81 522 69 528 q 106 528 92 528 q 156 496 140 528 q 206 528 171 528 q 231 522 219 528 q 256 528 242 528 q 281 522 269 528 q 306 528 292 528 q 331 522 319 528 q 356 528 342 528 q 406 496 390 528 q 456 528 421 528 q 481 522 469 528 q 506 528 492 528 q 544 512 528 528 q 561 473 561 496 q 544 433 561 450 q 506 417 528 417 q 481 422 492 417 q 456 417 469 417 q 406 449 421 417 q 356 417 390 417 q 331 422 342 417 q 306 417 319 417 q 281 422 292 417 q 256 417 269 417 q 231 422 242 417 q 206 417 219 417 q 156 449 171 417 q 106 417 140 417 q 81 422 92 417 q 56 417 69 417 q 17 433 33 417 m 317 572 q 308 581 317 572 q 300 612 300 589 q 317 651 300 635 q 356 667 333 667 q 381 661 369 667 q 406 667 392 667 q 431 661 419 667 q 456 667 442 667 q 481 661 469 667 q 506 667 492 667 q 544 651 528 667 q 561 612 561 635 q 544 572 561 589 q 506 556 528 556 q 481 561 492 556 q 456 556 469 556 q 431 561 442 556 q 406 556 419 556 q 381 561 392 556 q 356 556 369 556 q 317 572 333 556 m 17 572 q 8 581 17 572 q 0 612 0 589 q 17 651 0 635 q 56 667 33 667 q 81 661 69 667 q 106 667 92 667 q 131 661 119 667 q 156 667 142 667 q 181 661 169 667 q 206 667 192 667 q 244 651 228 667 q 261 612 261 635 q 244 572 261 589 q 206 556 228 556 q 181 561 192 556 q 156 556 169 556 q 131 561 142 556 q 106 556 119 556 q 81 561 92 556 q 56 556 69 556 q 17 572 33 556 m 417 711 q 408 719 417 711 q 400 751 400 728 q 417 790 400 774 q 456 806 433 806 q 481 800 469 806 q 506 806 492 806 q 544 790 528 806 q 561 751 561 774 q 544 711 561 728 q 506 694 528 694 q 481 700 492 694 q 456 694 469 694 q 417 711 433 694 m 17 711 q 8 719 17 711 q 0 751 0 728 q 17 790 0 774 q 56 806 33 806 q 81 800 69 806 q 106 806 92 806 q 144 790 128 806 q 161 751 161 774 q 144 711 161 728 q 106 694 128 694 q 81 700 92 694 q 56 694 69 694 q 17 711 33 694 m 17 850 q 8 858 17 850 q 0 890 0 867 q 17 928 0 913 q 56 944 33 944 q 81 939 69 944 q 106 944 92 944 q 131 939 119 944 q 156 944 142 944 q 181 939 169 944 q 206 944 192 944 q 231 939 219 944 q 256 944 242 944 q 281 939 269 944 q 306 944 292 944 q 331 939 319 944 q 356 944 342 944 q 381 939 369 944 q 406 944 392 944 q 431 939 419 944 q 456 944 442 944 q 481 939 469 944 q 506 944 492 944 q 544 928 528 944 q 561 890 561 913 q 544 850 561 867 q 506 833 528 833 q 481 839 492 833 q 456 833 469 833 q 431 839 442 833 q 406 833 419 833 q 381 839 392 833 q 356 833 369 833 q 331 839 342 833 q 306 833 319 833 q 281 839 292 833 q 256 833 269 833 q 231 839 242 833 q 206 833 219 833 q 181 839 192 833 q 156 833 169 833 q 131 839 142 833 q 106 833 119 833 q 81 839 92 833 q 56 833 69 833 q 17 850 33 833 z "},"ú":{"ha":600,"x_min":0,"x_max":561,"o":"m 0 -222 q 17 -183 0 -199 q 56 -167 33 -167 q 81 -172 69 -167 q 106 -167 92 -167 q 131 -172 119 -167 q 156 -167 142 -167 q 181 -172 169 -167 q 206 -167 192 -167 q 231 -172 219 -167 q 256 -167 242 -167 q 281 -172 269 -167 q 306 -167 292 -167 q 331 -172 319 -167 q 356 -167 342 -167 q 381 -172 369 -167 q 406 -167 392 -167 q 431 -172 419 -167 q 456 -167 442 -167 q 481 -172 469 -167 q 506 -167 492 -167 q 544 -183 528 -167 q 561 -222 561 -199 q 544 -261 561 -244 q 506 -278 528 -278 q 481 -272 492 -278 q 456 -278 469 -278 q 431 -272 442 -278 q 406 -278 419 -278 q 381 -272 392 -278 q 356 -278 369 -278 q 331 -272 342 -278 q 306 -278 319 -278 q 281 -272 292 -278 q 256 -278 269 -278 q 231 -272 242 -278 q 206 -278 219 -278 q 181 -272 192 -278 q 156 -278 169 -278 q 131 -272 142 -278 q 106 -278 119 -278 q 81 -272 92 -278 q 56 -278 69 -278 q 17 -261 33 -278 q 0 -222 0 -244 m 417 -122 q 408 -114 417 -122 q 400 -83 400 -106 q 417 -44 400 -60 q 456 -28 433 -28 q 481 -33 469 -28 q 506 -28 492 -28 q 544 -44 528 -28 q 561 -83 561 -60 q 544 -122 561 -106 q 506 -139 528 -139 q 481 -133 492 -139 q 456 -139 469 -139 q 417 -122 433 -139 m 17 -122 q 8 -114 17 -122 q 0 -83 0 -106 q 17 -44 0 -60 q 56 -28 33 -28 q 81 -33 69 -28 q 106 -28 92 -28 q 144 -44 128 -28 q 161 -83 161 -60 q 144 -122 161 -106 q 106 -139 128 -139 q 81 -133 92 -139 q 56 -139 69 -139 q 17 -122 33 -139 m 317 17 q 308 25 317 17 q 300 56 300 33 q 317 95 300 79 q 356 111 333 111 q 381 106 369 111 q 406 111 392 111 q 431 106 419 111 q 456 111 442 111 q 481 106 469 111 q 506 111 492 111 q 544 95 528 111 q 561 56 561 79 q 544 17 561 33 q 506 0 528 0 q 481 6 492 0 q 456 0 469 0 q 431 6 442 0 q 406 0 419 0 q 381 6 392 0 q 356 0 369 0 q 317 17 333 0 m 17 17 q 8 25 17 17 q 0 56 0 33 q 17 95 0 79 q 56 111 33 111 q 81 106 69 111 q 106 111 92 111 q 131 106 119 111 q 156 111 142 111 q 181 106 169 111 q 206 111 192 111 q 244 95 228 111 q 261 56 261 79 q 244 17 261 33 q 206 0 228 0 q 181 6 192 0 q 156 0 169 0 q 131 6 142 0 q 106 0 119 0 q 81 6 92 0 q 56 0 69 0 q 17 17 33 0 m 17 156 q 8 164 17 156 q 0 195 0 172 q 17 234 0 218 q 56 250 33 250 q 81 244 69 250 q 106 250 92 250 q 156 218 140 250 q 206 250 171 250 q 231 244 219 250 q 256 250 242 250 q 281 244 269 250 q 306 250 292 250 q 331 244 319 250 q 356 250 342 250 q 406 218 390 250 q 456 250 421 250 q 481 244 469 250 q 506 250 492 250 q 544 234 528 250 q 561 195 561 218 q 544 156 561 172 q 506 139 528 139 q 481 144 492 139 q 456 139 469 139 q 406 171 421 139 q 356 139 390 139 q 331 144 342 139 q 306 139 319 139 q 281 144 292 139 q 256 139 269 139 q 231 144 242 139 q 206 139 219 139 q 156 171 171 139 q 106 139 140 139 q 81 144 92 139 q 56 139 69 139 q 17 156 33 139 m 417 294 q 408 303 417 294 q 400 334 400 311 q 417 373 400 357 q 456 389 433 389 q 481 383 469 389 q 506 389 492 389 q 544 373 528 389 q 561 334 561 357 q 544 294 561 311 q 506 278 528 278 q 481 283 492 278 q 456 278 469 278 q 417 294 433 278 m 217 294 q 208 303 217 294 q 200 334 200 311 q 217 373 200 357 q 256 389 233 389 q 281 383 269 389 q 306 389 292 389 q 344 373 328 389 q 361 334 361 357 q 344 294 361 311 q 306 278 328 278 q 281 283 292 278 q 256 278 269 278 q 217 294 233 278 m 17 294 q 8 303 17 294 q 0 334 0 311 q 17 373 0 357 q 56 389 33 389 q 81 383 69 389 q 106 389 92 389 q 144 373 128 389 q 161 334 161 357 q 144 294 161 311 q 106 278 128 278 q 81 283 92 278 q 56 278 69 278 q 17 294 33 278 m 17 433 q 8 442 17 433 q 0 473 0 450 q 17 512 0 496 q 56 528 33 528 q 81 522 69 528 q 106 528 92 528 q 156 496 140 528 q 206 528 171 528 q 231 522 219 528 q 256 528 242 528 q 281 522 269 528 q 306 528 292 528 q 331 522 319 528 q 356 528 342 528 q 406 496 390 528 q 456 528 421 528 q 481 522 469 528 q 506 528 492 528 q 544 512 528 528 q 561 473 561 496 q 544 433 561 450 q 506 417 528 417 q 481 422 492 417 q 456 417 469 417 q 406 449 421 417 q 356 417 390 417 q 331 422 342 417 q 306 417 319 417 q 281 422 292 417 q 256 417 269 417 q 231 422 242 417 q 206 417 219 417 q 156 449 171 417 q 106 417 140 417 q 81 422 92 417 q 56 417 69 417 q 17 433 33 417 m 317 572 q 308 581 317 572 q 300 612 300 589 q 317 651 300 635 q 356 667 333 667 q 381 661 369 667 q 406 667 392 667 q 431 661 419 667 q 456 667 442 667 q 481 661 469 667 q 506 667 492 667 q 544 651 528 667 q 561 612 561 635 q 544 572 561 589 q 506 556 528 556 q 481 561 492 556 q 456 556 469 556 q 431 561 442 556 q 406 556 419 556 q 381 561 392 556 q 356 556 369 556 q 317 572 333 556 m 17 572 q 8 581 17 572 q 0 612 0 589 q 17 651 0 635 q 56 667 33 667 q 81 661 69 667 q 106 667 92 667 q 131 661 119 667 q 156 667 142 667 q 181 661 169 667 q 206 667 192 667 q 244 651 228 667 q 261 612 261 635 q 244 572 261 589 q 206 556 228 556 q 181 561 192 556 q 156 556 169 556 q 131 561 142 556 q 106 556 119 556 q 81 561 92 556 q 56 556 69 556 q 17 572 33 556 m 417 711 q 408 719 417 711 q 400 751 400 728 q 417 790 400 774 q 456 806 433 806 q 481 800 469 806 q 506 806 492 806 q 544 790 528 806 q 561 751 561 774 q 544 711 561 728 q 506 694 528 694 q 481 700 492 694 q 456 694 469 694 q 417 711 433 694 m 17 711 q 8 719 17 711 q 0 751 0 728 q 17 790 0 774 q 56 806 33 806 q 81 800 69 806 q 106 806 92 806 q 144 790 128 806 q 161 751 161 774 q 144 711 161 728 q 106 694 128 694 q 81 700 92 694 q 56 694 69 694 q 17 711 33 694 m 17 850 q 8 858 17 850 q 0 890 0 867 q 17 928 0 913 q 56 944 33 944 q 81 939 69 944 q 106 944 92 944 q 131 939 119 944 q 156 944 142 944 q 181 939 169 944 q 206 944 192 944 q 231 939 219 944 q 256 944 242 944 q 281 939 269 944 q 306 944 292 944 q 331 939 319 944 q 356 944 342 944 q 381 939 369 944 q 406 944 392 944 q 431 939 419 944 q 456 944 442 944 q 481 939 469 944 q 506 944 492 944 q 544 928 528 944 q 561 890 561 913 q 544 850 561 867 q 506 833 528 833 q 481 839 492 833 q 456 833 469 833 q 431 839 442 833 q 406 833 419 833 q 381 839 392 833 q 356 833 369 833 q 331 839 342 833 q 306 833 319 833 q 281 839 292 833 q 256 833 269 833 q 231 839 242 833 q 206 833 219 833 q 181 839 192 833 q 156 833 169 833 q 131 839 142 833 q 106 833 119 833 q 81 839 92 833 q 56 833 69 833 q 17 850 33 833 z "},"û":{"ha":600,"x_min":0,"x_max":561,"o":"m 0 -222 q 17 -183 0 -199 q 56 -167 33 -167 q 81 -172 69 -167 q 106 -167 92 -167 q 131 -172 119 -167 q 156 -167 142 -167 q 181 -172 169 -167 q 206 -167 192 -167 q 231 -172 219 -167 q 256 -167 242 -167 q 281 -172 269 -167 q 306 -167 292 -167 q 331 -172 319 -167 q 356 -167 342 -167 q 381 -172 369 -167 q 406 -167 392 -167 q 431 -172 419 -167 q 456 -167 442 -167 q 481 -172 469 -167 q 506 -167 492 -167 q 544 -183 528 -167 q 561 -222 561 -199 q 544 -261 561 -244 q 506 -278 528 -278 q 481 -272 492 -278 q 456 -278 469 -278 q 431 -272 442 -278 q 406 -278 419 -278 q 381 -272 392 -278 q 356 -278 369 -278 q 331 -272 342 -278 q 306 -278 319 -278 q 281 -272 292 -278 q 256 -278 269 -278 q 231 -272 242 -278 q 206 -278 219 -278 q 181 -272 192 -278 q 156 -278 169 -278 q 131 -272 142 -278 q 106 -278 119 -278 q 81 -272 92 -278 q 56 -278 69 -278 q 17 -261 33 -278 q 0 -222 0 -244 m 417 -122 q 408 -114 417 -122 q 400 -83 400 -106 q 417 -44 400 -60 q 456 -28 433 -28 q 481 -33 469 -28 q 506 -28 492 -28 q 544 -44 528 -28 q 561 -83 561 -60 q 544 -122 561 -106 q 506 -139 528 -139 q 481 -133 492 -139 q 456 -139 469 -139 q 417 -122 433 -139 m 17 -122 q 8 -114 17 -122 q 0 -83 0 -106 q 17 -44 0 -60 q 56 -28 33 -28 q 81 -33 69 -28 q 106 -28 92 -28 q 144 -44 128 -28 q 161 -83 161 -60 q 144 -122 161 -106 q 106 -139 128 -139 q 81 -133 92 -139 q 56 -139 69 -139 q 17 -122 33 -139 m 317 17 q 308 25 317 17 q 300 56 300 33 q 317 95 300 79 q 356 111 333 111 q 381 106 369 111 q 406 111 392 111 q 431 106 419 111 q 456 111 442 111 q 481 106 469 111 q 506 111 492 111 q 544 95 528 111 q 561 56 561 79 q 544 17 561 33 q 506 0 528 0 q 481 6 492 0 q 456 0 469 0 q 431 6 442 0 q 406 0 419 0 q 381 6 392 0 q 356 0 369 0 q 317 17 333 0 m 17 17 q 8 25 17 17 q 0 56 0 33 q 17 95 0 79 q 56 111 33 111 q 81 106 69 111 q 106 111 92 111 q 131 106 119 111 q 156 111 142 111 q 181 106 169 111 q 206 111 192 111 q 244 95 228 111 q 261 56 261 79 q 244 17 261 33 q 206 0 228 0 q 181 6 192 0 q 156 0 169 0 q 131 6 142 0 q 106 0 119 0 q 81 6 92 0 q 56 0 69 0 q 17 17 33 0 m 17 156 q 8 164 17 156 q 0 195 0 172 q 17 234 0 218 q 56 250 33 250 q 81 244 69 250 q 106 250 92 250 q 156 218 140 250 q 206 250 171 250 q 231 244 219 250 q 256 250 242 250 q 281 244 269 250 q 306 250 292 250 q 331 244 319 250 q 356 250 342 250 q 406 218 390 250 q 456 250 421 250 q 481 244 469 250 q 506 250 492 250 q 544 234 528 250 q 561 195 561 218 q 544 156 561 172 q 506 139 528 139 q 481 144 492 139 q 456 139 469 139 q 406 171 421 139 q 356 139 390 139 q 331 144 342 139 q 306 139 319 139 q 281 144 292 139 q 256 139 269 139 q 231 144 242 139 q 206 139 219 139 q 156 171 171 139 q 106 139 140 139 q 81 144 92 139 q 56 139 69 139 q 17 156 33 139 m 417 294 q 408 303 417 294 q 400 334 400 311 q 417 373 400 357 q 456 389 433 389 q 481 383 469 389 q 506 389 492 389 q 544 373 528 389 q 561 334 561 357 q 544 294 561 311 q 506 278 528 278 q 481 283 492 278 q 456 278 469 278 q 417 294 433 278 m 217 294 q 208 303 217 294 q 200 334 200 311 q 217 373 200 357 q 256 389 233 389 q 281 383 269 389 q 306 389 292 389 q 344 373 328 389 q 361 334 361 357 q 344 294 361 311 q 306 278 328 278 q 281 283 292 278 q 256 278 269 278 q 217 294 233 278 m 17 294 q 8 303 17 294 q 0 334 0 311 q 17 373 0 357 q 56 389 33 389 q 81 383 69 389 q 106 389 92 389 q 144 373 128 389 q 161 334 161 357 q 144 294 161 311 q 106 278 128 278 q 81 283 92 278 q 56 278 69 278 q 17 294 33 278 m 17 433 q 8 442 17 433 q 0 473 0 450 q 17 512 0 496 q 56 528 33 528 q 81 522 69 528 q 106 528 92 528 q 156 496 140 528 q 206 528 171 528 q 231 522 219 528 q 256 528 242 528 q 281 522 269 528 q 306 528 292 528 q 331 522 319 528 q 356 528 342 528 q 406 496 390 528 q 456 528 421 528 q 481 522 469 528 q 506 528 492 528 q 544 512 528 528 q 561 473 561 496 q 544 433 561 450 q 506 417 528 417 q 481 422 492 417 q 456 417 469 417 q 406 449 421 417 q 356 417 390 417 q 331 422 342 417 q 306 417 319 417 q 281 422 292 417 q 256 417 269 417 q 231 422 242 417 q 206 417 219 417 q 156 449 171 417 q 106 417 140 417 q 81 422 92 417 q 56 417 69 417 q 17 433 33 417 m 317 572 q 308 581 317 572 q 300 612 300 589 q 317 651 300 635 q 356 667 333 667 q 381 661 369 667 q 406 667 392 667 q 431 661 419 667 q 456 667 442 667 q 481 661 469 667 q 506 667 492 667 q 544 651 528 667 q 561 612 561 635 q 544 572 561 589 q 506 556 528 556 q 481 561 492 556 q 456 556 469 556 q 431 561 442 556 q 406 556 419 556 q 381 561 392 556 q 356 556 369 556 q 317 572 333 556 m 17 572 q 8 581 17 572 q 0 612 0 589 q 17 651 0 635 q 56 667 33 667 q 81 661 69 667 q 106 667 92 667 q 131 661 119 667 q 156 667 142 667 q 181 661 169 667 q 206 667 192 667 q 244 651 228 667 q 261 612 261 635 q 244 572 261 589 q 206 556 228 556 q 181 561 192 556 q 156 556 169 556 q 131 561 142 556 q 106 556 119 556 q 81 561 92 556 q 56 556 69 556 q 17 572 33 556 m 417 711 q 408 719 417 711 q 400 751 400 728 q 417 790 400 774 q 456 806 433 806 q 481 800 469 806 q 506 806 492 806 q 544 790 528 806 q 561 751 561 774 q 544 711 561 728 q 506 694 528 694 q 481 700 492 694 q 456 694 469 694 q 417 711 433 694 m 17 711 q 8 719 17 711 q 0 751 0 728 q 17 790 0 774 q 56 806 33 806 q 81 800 69 806 q 106 806 92 806 q 144 790 128 806 q 161 751 161 774 q 144 711 161 728 q 106 694 128 694 q 81 700 92 694 q 56 694 69 694 q 17 711 33 694 m 17 850 q 8 858 17 850 q 0 890 0 867 q 17 928 0 913 q 56 944 33 944 q 81 939 69 944 q 106 944 92 944 q 131 939 119 944 q 156 944 142 944 q 181 939 169 944 q 206 944 192 944 q 231 939 219 944 q 256 944 242 944 q 281 939 269 944 q 306 944 292 944 q 331 939 319 944 q 356 944 342 944 q 381 939 369 944 q 406 944 392 944 q 431 939 419 944 q 456 944 442 944 q 481 939 469 944 q 506 944 492 944 q 544 928 528 944 q 561 890 561 913 q 544 850 561 867 q 506 833 528 833 q 481 839 492 833 q 456 833 469 833 q 431 839 442 833 q 406 833 419 833 q 381 839 392 833 q 356 833 369 833 q 331 839 342 833 q 306 833 319 833 q 281 839 292 833 q 256 833 269 833 q 231 839 242 833 q 206 833 219 833 q 181 839 192 833 q 156 833 169 833 q 131 839 142 833 q 106 833 119 833 q 81 839 92 833 q 56 833 69 833 q 17 850 33 833 z "}," ":{"ha":600,"x_min":0,"x_max":0,"o":""},"!":{"ha":600,"x_min":200,"x_max":361,"o":"m 200 56 q 217 95 200 79 q 256 111 233 111 q 281 106 269 111 q 306 111 292 111 q 344 95 328 111 q 361 56 361 79 q 344 17 361 33 q 306 0 328 0 q 281 6 292 0 q 256 0 269 0 q 217 17 233 0 q 200 56 200 33 m 217 433 q 208 442 217 433 q 200 473 200 450 q 217 512 200 496 q 256 528 233 528 q 281 522 269 528 q 306 528 292 528 q 344 512 328 528 q 361 473 361 496 q 344 433 361 450 q 306 417 328 417 q 281 422 292 417 q 256 417 269 417 q 217 433 233 417 m 217 572 q 208 581 217 572 q 200 612 200 589 q 217 651 200 635 q 256 667 233 667 q 281 661 269 667 q 306 667 292 667 q 344 651 328 667 q 361 612 361 635 q 344 572 361 589 q 306 556 328 556 q 281 561 292 556 q 256 556 269 556 q 217 572 233 556 m 217 711 q 208 719 217 711 q 200 751 200 728 q 217 790 200 774 q 256 806 233 806 q 281 800 269 806 q 306 806 292 806 q 344 790 328 806 q 361 751 361 774 q 344 711 361 728 q 306 694 328 694 q 281 700 292 694 q 256 694 269 694 q 217 711 233 694 m 217 850 q 208 858 217 850 q 200 890 200 867 q 217 928 200 913 q 256 944 233 944 q 281 939 269 944 q 306 944 292 944 q 344 928 328 944 q 361 890 361 913 q 344 850 361 867 q 306 833 328 833 q 281 839 292 833 q 256 833 269 833 q 217 850 233 833 z "},"\"":{"ha":600,"x_min":100,"x_max":461,"o":"m 300 611 q 317 651 300 635 q 356 667 333 667 q 381 661 369 667 q 406 667 392 667 q 444 651 428 667 q 461 612 461 635 q 444 572 461 589 q 406 556 428 556 q 381 561 392 556 q 356 556 369 556 q 317 572 333 556 q 300 611 300 589 m 117 572 q 108 581 117 572 q 100 612 100 589 q 117 651 100 635 q 156 667 133 667 q 181 661 169 667 q 206 667 192 667 q 244 651 228 667 q 261 612 261 635 q 244 572 261 589 q 206 556 228 556 q 181 561 192 556 q 156 556 169 556 q 117 572 133 556 m 317 711 q 308 719 317 711 q 300 751 300 728 q 317 790 300 774 q 356 806 333 806 q 381 800 369 806 q 406 806 392 806 q 444 790 428 806 q 461 751 461 774 q 444 711 461 728 q 406 694 428 694 q 381 700 392 694 q 356 694 369 694 q 317 711 333 694 m 117 711 q 108 719 117 711 q 100 751 100 728 q 117 790 100 774 q 156 806 133 806 q 181 800 169 806 q 206 806 192 806 q 244 790 228 806 q 261 751 261 774 q 244 711 261 728 q 206 694 228 694 q 181 700 192 694 q 156 694 169 694 q 117 711 133 694 m 317 850 q 308 858 317 850 q 300 890 300 867 q 317 928 300 913 q 356 944 333 944 q 381 939 369 944 q 406 944 392 944 q 444 928 428 944 q 461 890 461 913 q 444 850 461 867 q 406 833 428 833 q 381 839 392 833 q 356 833 369 833 q 317 850 333 833 m 117 850 q 108 858 117 850 q 100 890 100 867 q 117 928 100 913 q 156 944 133 944 q 181 939 169 944 q 206 944 192 944 q 244 928 228 944 q 261 890 261 913 q 244 850 261 867 q 206 833 228 833 q 181 839 192 833 q 156 833 169 833 q 117 850 133 833 z "},"#":{"ha":600,"x_min":0,"x_max":561,"o":"m 300 56 q 317 95 300 79 q 356 111 333 111 q 381 106 369 111 q 406 111 392 111 q 444 95 428 111 q 461 56 461 79 q 444 17 461 33 q 406 0 428 0 q 381 6 392 0 q 356 0 369 0 q 317 17 333 0 q 300 56 300 33 m 117 17 q 108 25 117 17 q 100 56 100 33 q 117 95 100 79 q 156 111 133 111 q 181 106 169 111 q 206 111 192 111 q 244 95 228 111 q 261 56 261 79 q 244 17 261 33 q 206 0 228 0 q 181 6 192 0 q 156 0 169 0 q 117 17 133 0 m 317 156 q 308 164 317 156 q 300 195 300 172 q 317 234 300 218 q 356 250 333 250 q 381 244 369 250 q 406 250 392 250 q 444 234 428 250 q 461 195 461 218 q 444 156 461 172 q 406 139 428 139 q 381 144 392 139 q 356 139 369 139 q 317 156 333 139 m 117 156 q 108 164 117 156 q 100 195 100 172 q 117 234 100 218 q 156 250 133 250 q 181 244 169 250 q 206 250 192 250 q 244 234 228 250 q 261 195 261 218 q 244 156 261 172 q 206 139 228 139 q 181 144 192 139 q 156 139 169 139 q 117 156 133 139 m 17 294 q 8 303 17 294 q 0 334 0 311 q 17 373 0 357 q 56 389 33 389 q 81 383 69 389 q 106 389 92 389 q 131 383 119 389 q 156 389 142 389 q 181 383 169 389 q 206 389 192 389 q 231 383 219 389 q 256 389 242 389 q 281 383 269 389 q 306 389 292 389 q 331 383 319 389 q 356 389 342 389 q 381 383 369 389 q 406 389 392 389 q 431 383 419 389 q 456 389 442 389 q 481 383 469 389 q 506 389 492 389 q 544 373 528 389 q 561 334 561 357 q 544 294 561 311 q 506 278 528 278 q 481 283 492 278 q 456 278 469 278 q 431 283 442 278 q 406 278 419 278 q 381 283 392 278 q 356 278 369 278 q 331 283 342 278 q 306 278 319 278 q 281 283 292 278 q 256 278 269 278 q 231 283 242 278 q 206 278 219 278 q 181 283 192 278 q 156 278 169 278 q 131 283 142 278 q 106 278 119 278 q 81 283 92 278 q 56 278 69 278 q 17 294 33 278 m 317 433 q 308 442 317 433 q 300 473 300 450 q 317 512 300 496 q 356 528 333 528 q 381 522 369 528 q 406 528 392 528 q 444 512 428 528 q 461 473 461 496 q 444 433 461 450 q 406 417 428 417 q 381 422 392 417 q 356 417 369 417 q 317 433 333 417 m 117 433 q 108 442 117 433 q 100 473 100 450 q 117 512 100 496 q 156 528 133 528 q 181 522 169 528 q 206 528 192 528 q 244 512 228 528 q 261 473 261 496 q 244 433 261 450 q 206 417 228 417 q 181 422 192 417 q 156 417 169 417 q 117 433 133 417 m 17 572 q 8 581 17 572 q 0 612 0 589 q 17 651 0 635 q 56 667 33 667 q 81 661 69 667 q 106 667 92 667 q 131 661 119 667 q 156 667 142 667 q 181 661 169 667 q 206 667 192 667 q 231 661 219 667 q 256 667 242 667 q 281 661 269 667 q 306 667 292 667 q 331 661 319 667 q 356 667 342 667 q 381 661 369 667 q 406 667 392 667 q 431 661 419 667 q 456 667 442 667 q 481 661 469 667 q 506 667 492 667 q 544 651 528 667 q 561 612 561 635 q 544 572 561 589 q 506 556 528 556 q 481 561 492 556 q 456 556 469 556 q 431 561 442 556 q 406 556 419 556 q 381 561 392 556 q 356 556 369 556 q 331 561 342 556 q 306 556 319 556 q 281 561 292 556 q 256 556 269 556 q 231 561 242 556 q 206 556 219 556 q 181 561 192 556 q 156 556 169 556 q 131 561 142 556 q 106 556 119 556 q 81 561 92 556 q 56 556 69 556 q 17 572 33 556 m 317 711 q 308 719 317 711 q 300 751 300 728 q 317 790 300 774 q 356 806 333 806 q 381 800 369 806 q 406 806 392 806 q 444 790 428 806 q 461 751 461 774 q 444 711 461 728 q 406 694 428 694 q 381 700 392 694 q 356 694 369 694 q 317 711 333 694 m 117 711 q 108 719 117 711 q 100 751 100 728 q 117 790 100 774 q 156 806 133 806 q 181 800 169 806 q 206 806 192 806 q 244 790 228 806 q 261 751 261 774 q 244 711 261 728 q 206 694 228 694 q 181 700 192 694 q 156 694 169 694 q 117 711 133 694 m 317 850 q 308 858 317 850 q 300 890 300 867 q 317 928 300 913 q 356 944 333 944 q 381 939 369 944 q 406 944 392 944 q 444 928 428 944 q 461 890 461 913 q 444 850 461 867 q 406 833 428 833 q 381 839 392 833 q 356 833 369 833 q 317 850 333 833 m 117 850 q 108 858 117 850 q 100 890 100 867 q 117 928 100 913 q 156 944 133 944 q 181 939 169 944 q 206 944 192 944 q 244 928 228 944 q 261 890 261 913 q 244 850 261 867 q 206 833 228 833 q 181 839 192 833 q 156 833 169 833 q 117 850 133 833 z "},"$":{"ha":600,"x_min":0,"x_max":561,"o":"m 200 56 q 217 95 200 79 q 256 111 233 111 q 281 106 269 111 q 306 111 292 111 q 344 95 328 111 q 361 56 361 79 q 344 17 361 33 q 306 0 328 0 q 281 6 292 0 q 256 0 269 0 q 217 17 233 0 q 200 56 200 33 m 17 156 q 8 164 17 156 q 0 195 0 172 q 17 234 0 218 q 56 250 33 250 q 81 244 69 250 q 106 250 92 250 q 131 244 119 250 q 156 250 142 250 q 181 244 169 250 q 206 250 192 250 q 231 244 219 250 q 256 250 242 250 q 281 244 269 250 q 306 250 292 250 q 331 244 319 250 q 356 250 342 250 q 381 244 369 250 q 406 250 392 250 q 444 234 428 250 q 461 195 461 218 q 444 156 461 172 q 406 139 428 139 q 381 144 392 139 q 356 139 369 139 q 331 144 342 139 q 306 139 319 139 q 281 144 292 139 q 256 139 269 139 q 231 144 242 139 q 206 139 219 139 q 181 144 192 139 q 156 139 169 139 q 131 144 142 139 q 106 139 119 139 q 81 144 92 139 q 56 139 69 139 q 17 156 33 139 m 417 294 q 408 303 417 294 q 400 334 400 311 q 417 373 400 357 q 456 389 433 389 q 481 383 469 389 q 506 389 492 389 q 544 373 528 389 q 561 334 561 357 q 544 294 561 311 q 506 278 528 278 q 481 283 492 278 q 456 278 469 278 q 417 294 433 278 m 217 294 q 208 303 217 294 q 200 334 200 311 q 217 373 200 357 q 256 389 233 389 q 281 383 269 389 q 306 389 292 389 q 344 373 328 389 q 361 334 361 357 q 344 294 361 311 q 306 278 328 278 q 281 283 292 278 q 256 278 269 278 q 217 294 233 278 m 117 433 q 108 442 117 433 q 100 473 100 450 q 117 512 100 496 q 156 528 133 528 q 181 522 169 528 q 206 528 192 528 q 231 522 219 528 q 256 528 242 528 q 281 522 269 528 q 306 528 292 528 q 331 522 319 528 q 356 528 342 528 q 381 522 369 528 q 406 528 392 528 q 444 512 428 528 q 461 473 461 496 q 444 433 461 450 q 406 417 428 417 q 381 422 392 417 q 356 417 369 417 q 331 422 342 417 q 306 417 319 417 q 281 422 292 417 q 256 417 269 417 q 231 422 242 417 q 206 417 219 417 q 181 422 192 417 q 156 417 169 417 q 117 433 133 417 m 217 572 q 208 581 217 572 q 200 612 200 589 q 217 651 200 635 q 256 667 233 667 q 281 661 269 667 q 306 667 292 667 q 344 651 328 667 q 361 612 361 635 q 344 572 361 589 q 306 556 328 556 q 281 561 292 556 q 256 556 269 556 q 217 572 233 556 m 17 572 q 8 581 17 572 q 0 612 0 589 q 17 651 0 635 q 56 667 33 667 q 81 661 69 667 q 106 667 92 667 q 144 651 128 667 q 161 612 161 635 q 144 572 161 589 q 106 556 128 556 q 81 561 92 556 q 56 556 69 556 q 17 572 33 556 m 117 711 q 108 719 117 711 q 100 751 100 728 q 117 790 100 774 q 156 806 133 806 q 181 800 169 806 q 206 806 192 806 q 231 800 219 806 q 256 806 242 806 q 281 800 269 806 q 306 806 292 806 q 331 800 319 806 q 356 806 342 806 q 381 800 369 806 q 406 806 392 806 q 431 800 419 806 q 456 806 442 806 q 481 800 469 806 q 506 806 492 806 q 544 790 528 806 q 561 751 561 774 q 544 711 561 728 q 506 694 528 694 q 481 700 492 694 q 456 694 469 694 q 431 700 442 694 q 406 694 419 694 q 381 700 392 694 q 356 694 369 694 q 331 700 342 694 q 306 694 319 694 q 281 700 292 694 q 256 694 269 694 q 231 700 242 694 q 206 694 219 694 q 181 700 192 694 q 156 694 169 694 q 117 711 133 694 m 217 850 q 208 858 217 850 q 200 890 200 867 q 217 928 200 913 q 256 944 233 944 q 281 939 269 944 q 306 944 292 944 q 344 928 328 944 q 361 890 361 913 q 344 850 361 867 q 306 833 328 833 q 281 839 292 833 q 256 833 269 833 q 217 850 233 833 z "},"%":{"ha":600,"x_min":0,"x_max":561,"o":"m 300 56 q 317 95 300 79 q 356 111 333 111 q 381 106 369 111 q 406 111 392 111 q 431 106 419 111 q 456 111 442 111 q 481 106 469 111 q 506 111 492 111 q 544 95 528 111 q 561 56 561 79 q 544 17 561 33 q 506 0 528 0 q 481 6 492 0 q 456 0 469 0 q 431 6 442 0 q 406 0 419 0 q 381 6 392 0 q 356 0 369 0 q 317 17 333 0 q 300 56 300 33 m 67 17 q 58 25 67 17 q 50 56 50 33 q 67 95 50 79 q 106 111 83 111 q 131 106 119 111 q 156 111 142 111 q 194 95 178 111 q 211 56 211 79 q 194 17 211 33 q 156 0 178 0 q 131 6 142 0 q 106 0 119 0 q 67 17 83 0 m 317 156 q 308 164 317 156 q 300 195 300 172 q 317 234 300 218 q 356 250 333 250 q 381 244 369 250 q 406 250 392 250 q 431 244 419 250 q 456 250 442 250 q 481 244 469 250 q 506 250 492 250 q 544 234 528 250 q 561 195 561 218 q 544 156 561 172 q 506 139 528 139 q 481 144 492 139 q 456 139 469 139 q 431 144 442 139 q 406 139 419 139 q 381 144 392 139 q 356 139 369 139 q 317 156 333 139 m 117 156 q 108 164 117 156 q 100 195 100 172 q 117 234 100 218 q 156 250 133 250 q 181 244 169 250 q 206 250 192 250 q 244 234 228 250 q 261 195 261 218 q 244 156 261 172 q 206 139 228 139 q 181 144 192 139 q 156 139 169 139 q 117 156 133 139 m 167 294 q 158 303 167 294 q 150 334 150 311 q 167 373 150 357 q 206 389 183 389 q 231 383 219 389 q 256 389 242 389 q 294 373 278 389 q 311 334 311 357 q 294 294 311 311 q 256 278 278 278 q 231 283 242 278 q 206 278 219 278 q 167 294 183 278 m 217 433 q 208 442 217 433 q 200 473 200 450 q 217 512 200 496 q 256 528 233 528 q 281 522 269 528 q 306 528 292 528 q 344 512 328 528 q 361 473 361 496 q 344 433 361 450 q 306 417 328 417 q 281 422 292 417 q 256 417 269 417 q 217 433 233 417 m 267 572 q 258 581 267 572 q 250 612 250 589 q 267 651 250 635 q 306 667 283 667 q 331 661 319 667 q 356 667 342 667 q 394 651 378 667 q 411 612 411 635 q 394 572 411 589 q 356 556 378 556 q 331 561 342 556 q 306 556 319 556 q 267 572 283 556 m 317 711 q 308 719 317 711 q 300 751 300 728 q 317 790 300 774 q 356 806 333 806 q 381 800 369 806 q 406 806 392 806 q 444 790 428 806 q 461 751 461 774 q 444 711 461 728 q 406 694 428 694 q 381 700 392 694 q 356 694 369 694 q 317 711 333 694 m 17 711 q 8 719 17 711 q 0 751 0 728 q 17 790 0 774 q 56 806 33 806 q 81 800 69 806 q 106 806 92 806 q 131 800 119 806 q 156 806 142 806 q 181 800 169 806 q 206 806 192 806 q 244 790 228 806 q 261 751 261 774 q 244 711 261 728 q 206 694 228 694 q 181 700 192 694 q 156 694 169 694 q 131 700 142 694 q 106 694 119 694 q 81 700 92 694 q 56 694 69 694 q 17 711 33 694 m 367 850 q 358 858 367 850 q 350 890 350 867 q 367 928 350 913 q 406 944 383 944 q 431 939 419 944 q 456 944 442 944 q 494 928 478 944 q 511 890 511 913 q 494 850 511 867 q 456 833 478 833 q 431 839 442 833 q 406 833 419 833 q 367 850 383 833 m 17 850 q 8 858 17 850 q 0 890 0 867 q 17 928 0 913 q 56 944 33 944 q 81 939 69 944 q 106 944 92 944 q 131 939 119 944 q 156 944 142 944 q 181 939 169 944 q 206 944 192 944 q 244 928 228 944 q 261 890 261 913 q 244 850 261 867 q 206 833 228 833 q 181 839 192 833 q 156 833 169 833 q 131 839 142 833 q 106 833 119 833 q 81 839 92 833 q 56 833 69 833 q 17 850 33 833 z "},"&":{"ha":600,"x_min":0,"x_max":561,"o":"m 400 56 q 417 95 400 79 q 456 111 433 111 q 481 106 469 111 q 506 111 492 111 q 544 95 528 111 q 561 56 561 79 q 544 17 561 33 q 506 0 528 0 q 481 6 492 0 q 456 0 469 0 q 417 17 433 0 q 400 56 400 33 m 117 17 q 108 25 117 17 q 100 56 100 33 q 117 95 100 79 q 156 111 133 111 q 181 106 169 111 q 206 111 192 111 q 231 106 219 111 q 256 111 242 111 q 281 106 269 111 q 306 111 292 111 q 344 95 328 111 q 361 56 361 79 q 344 17 361 33 q 306 0 328 0 q 281 6 292 0 q 256 0 269 0 q 231 6 242 0 q 206 0 219 0 q 181 6 192 0 q 156 0 169 0 q 117 17 133 0 m 317 156 q 308 164 317 156 q 300 195 300 172 q 317 234 300 218 q 356 250 333 250 q 381 244 369 250 q 406 250 392 250 q 444 234 428 250 q 461 195 461 218 q 444 156 461 172 q 406 139 428 139 q 381 144 392 139 q 356 139 369 139 q 317 156 333 139 m 17 156 q 8 164 17 156 q 0 195 0 172 q 17 234 0 218 q 56 250 33 250 q 81 244 69 250 q 106 250 92 250 q 144 234 128 250 q 161 195 161 218 q 144 156 161 172 q 106 139 128 139 q 81 144 92 139 q 56 139 69 139 q 17 156 33 139 m 217 294 q 208 303 217 294 q 200 334 200 311 q 217 373 200 357 q 256 389 233 389 q 281 383 269 389 q 306 389 292 389 q 356 357 340 389 q 406 389 371 389 q 431 383 419 389 q 456 389 442 389 q 494 373 478 389 q 511 334 511 357 q 494 294 511 311 q 456 278 478 278 q 431 283 442 278 q 406 278 419 278 q 356 310 371 278 q 306 278 340 278 q 281 283 292 278 q 256 278 269 278 q 217 294 233 278 m 17 294 q 8 303 17 294 q 0 334 0 311 q 17 373 0 357 q 56 389 33 389 q 81 383 69 389 q 106 389 92 389 q 144 373 128 389 q 161 334 161 357 q 144 294 161 311 q 106 278 128 278 q 81 283 92 278 q 56 278 69 278 q 17 294 33 278 m 417 433 q 408 442 417 433 q 400 473 400 450 q 417 512 400 496 q 456 528 433 528 q 481 522 469 528 q 506 528 492 528 q 544 512 528 528 q 561 473 561 496 q 544 433 561 450 q 506 417 528 417 q 481 422 492 417 q 456 417 469 417 q 417 433 433 417 m 117 433 q 108 442 117 433 q 100 473 100 450 q 117 512 100 496 q 156 528 133 528 q 181 522 169 528 q 206 528 192 528 q 244 512 228 528 q 261 473 261 496 q 244 433 261 450 q 206 417 228 417 q 181 422 192 417 q 156 417 169 417 q 117 433 133 417 m 67 572 q 58 581 67 572 q 50 612 50 589 q 67 651 50 635 q 106 667 83 667 q 131 661 119 667 q 156 667 142 667 q 181 661 169 667 q 206 667 192 667 q 231 661 219 667 q 256 667 242 667 q 294 651 278 667 q 311 612 311 635 q 294 572 311 589 q 256 556 278 556 q 231 561 242 556 q 206 556 219 556 q 181 561 192 556 q 156 556 169 556 q 131 561 142 556 q 106 556 119 556 q 67 572 83 556 m 217 711 q 208 719 217 711 q 200 751 200 728 q 217 790 200 774 q 256 806 233 806 q 281 800 269 806 q 306 806 292 806 q 344 790 328 806 q 361 751 361 774 q 344 711 361 728 q 306 694 328 694 q 281 700 292 694 q 256 694 269 694 q 217 711 233 694 m 17 711 q 8 719 17 711 q 0 751 0 728 q 17 790 0 774 q 56 806 33 806 q 81 800 69 806 q 106 806 92 806 q 144 790 128 806 q 161 751 161 774 q 144 711 161 728 q 106 694 128 694 q 81 700 92 694 q 56 694 69 694 q 17 711 33 694 m 67 850 q 58 858 67 850 q 50 890 50 867 q 67 928 50 913 q 106 944 83 944 q 131 939 119 944 q 156 944 142 944 q 181 939 169 944 q 206 944 192 944 q 231 939 219 944 q 256 944 242 944 q 294 928 278 944 q 311 890 311 913 q 294 850 311 867 q 256 833 278 833 q 231 839 242 833 q 206 833 219 833 q 181 839 192 833 q 156 833 169 833 q 131 839 142 833 q 106 833 119 833 q 67 850 83 833 z "},"'":{"ha":600,"x_min":200,"x_max":411,"o":"m 200 750 q 217 790 200 774 q 256 806 233 806 q 281 800 269 806 q 306 806 292 806 q 344 790 328 806 q 361 751 361 774 q 344 711 361 728 q 306 694 328 694 q 281 700 292 694 q 256 694 269 694 q 217 711 233 694 q 200 750 200 728 m 267 850 q 258 858 267 850 q 250 890 250 867 q 267 928 250 913 q 306 944 283 944 q 331 939 319 944 q 356 944 342 944 q 394 928 378 944 q 411 890 411 913 q 394 850 411 867 q 356 833 378 833 q 331 839 342 833 q 306 833 319 833 q 267 850 283 833 z "},"(":{"ha":600,"x_min":200,"x_max":461,"o":"m 300 56 q 317 95 300 79 q 356 111 333 111 q 381 106 369 111 q 406 111 392 111 q 444 95 428 111 q 461 56 461 79 q 444 17 461 33 q 406 0 428 0 q 381 6 392 0 q 356 0 369 0 q 317 17 333 0 q 300 56 300 33 m 267 156 q 258 164 267 156 q 250 195 250 172 q 267 234 250 218 q 306 250 283 250 q 331 244 319 250 q 356 250 342 250 q 394 234 378 250 q 411 195 411 218 q 394 156 411 172 q 356 139 378 139 q 331 144 342 139 q 306 139 319 139 q 267 156 283 139 m 217 294 q 208 303 217 294 q 200 334 200 311 q 217 373 200 357 q 256 389 233 389 q 281 383 269 389 q 306 389 292 389 q 344 373 328 389 q 361 334 361 357 q 344 294 361 311 q 306 278 328 278 q 281 283 292 278 q 256 278 269 278 q 217 294 233 278 m 217 433 q 208 442 217 433 q 200 473 200 450 q 217 512 200 496 q 256 528 233 528 q 281 522 269 528 q 306 528 292 528 q 344 512 328 528 q 361 473 361 496 q 344 433 361 450 q 306 417 328 417 q 281 422 292 417 q 256 417 269 417 q 217 433 233 417 m 217 572 q 208 581 217 572 q 200 612 200 589 q 217 651 200 635 q 256 667 233 667 q 281 661 269 667 q 306 667 292 667 q 344 651 328 667 q 361 612 361 635 q 344 572 361 589 q 306 556 328 556 q 281 561 292 556 q 256 556 269 556 q 217 572 233 556 m 267 711 q 258 719 267 711 q 250 751 250 728 q 267 790 250 774 q 306 806 283 806 q 331 800 319 806 q 356 806 342 806 q 394 790 378 806 q 411 751 411 774 q 394 711 411 728 q 356 694 378 694 q 331 700 342 694 q 306 694 319 694 q 267 711 283 694 m 317 850 q 308 858 317 850 q 300 890 300 867 q 317 928 300 913 q 356 944 333 944 q 381 939 369 944 q 406 944 392 944 q 444 928 428 944 q 461 890 461 913 q 444 850 461 867 q 406 833 428 833 q 381 839 392 833 q 356 833 369 833 q 317 850 333 833 z "},")":{"ha":600,"x_min":100,"x_max":361,"o":"m 100 56 q 117 95 100 79 q 156 111 133 111 q 181 106 169 111 q 206 111 192 111 q 244 95 228 111 q 261 56 261 79 q 244 17 261 33 q 206 0 228 0 q 181 6 192 0 q 156 0 169 0 q 117 17 133 0 q 100 56 100 33 m 167 156 q 158 164 167 156 q 150 195 150 172 q 167 234 150 218 q 206 250 183 250 q 231 244 219 250 q 256 250 242 250 q 294 234 278 250 q 311 195 311 218 q 294 156 311 172 q 256 139 278 139 q 231 144 242 139 q 206 139 219 139 q 167 156 183 139 m 217 294 q 208 303 217 294 q 200 334 200 311 q 217 373 200 357 q 256 389 233 389 q 281 383 269 389 q 306 389 292 389 q 344 373 328 389 q 361 334 361 357 q 344 294 361 311 q 306 278 328 278 q 281 283 292 278 q 256 278 269 278 q 217 294 233 278 m 217 433 q 208 442 217 433 q 200 473 200 450 q 217 512 200 496 q 256 528 233 528 q 281 522 269 528 q 306 528 292 528 q 344 512 328 528 q 361 473 361 496 q 344 433 361 450 q 306 417 328 417 q 281 422 292 417 q 256 417 269 417 q 217 433 233 417 m 217 572 q 208 581 217 572 q 200 612 200 589 q 217 651 200 635 q 256 667 233 667 q 281 661 269 667 q 306 667 292 667 q 344 651 328 667 q 361 612 361 635 q 344 572 361 589 q 306 556 328 556 q 281 561 292 556 q 256 556 269 556 q 217 572 233 556 m 167 711 q 158 719 167 711 q 150 751 150 728 q 167 790 150 774 q 206 806 183 806 q 231 800 219 806 q 256 806 242 806 q 294 790 278 806 q 311 751 311 774 q 294 711 311 728 q 256 694 278 694 q 231 700 242 694 q 206 694 219 694 q 167 711 183 694 m 117 850 q 108 858 117 850 q 100 890 100 867 q 117 928 100 913 q 156 944 133 944 q 181 939 169 944 q 206 944 192 944 q 244 928 228 944 q 261 890 261 913 q 244 850 261 867 q 206 833 228 833 q 181 839 192 833 q 156 833 169 833 q 117 850 133 833 z "},"*":{"ha":600,"x_min":0,"x_max":561,"o":"m 300 194 q 317 234 300 218 q 356 250 333 250 q 381 244 369 250 q 406 250 392 250 q 444 234 428 250 q 461 195 461 218 q 444 156 461 172 q 406 139 428 139 q 381 144 392 139 q 356 139 369 139 q 317 156 333 139 q 300 194 300 172 m 117 156 q 108 164 117 156 q 100 195 100 172 q 117 234 100 218 q 156 250 133 250 q 181 244 169 250 q 206 250 192 250 q 244 234 228 250 q 261 195 261 218 q 244 156 261 172 q 206 139 228 139 q 181 144 192 139 q 156 139 169 139 q 117 156 133 139 m 167 294 q 158 303 167 294 q 150 334 150 311 q 167 373 150 357 q 206 389 183 389 q 231 383 219 389 q 256 389 242 389 q 281 383 269 389 q 306 389 292 389 q 331 383 319 389 q 356 389 342 389 q 394 373 378 389 q 411 334 411 357 q 394 294 411 311 q 356 278 378 278 q 331 283 342 278 q 306 278 319 278 q 281 283 292 278 q 256 278 269 278 q 231 283 242 278 q 206 278 219 278 q 167 294 183 278 m 17 433 q 8 442 17 433 q 0 473 0 450 q 17 512 0 496 q 56 528 33 528 q 81 522 69 528 q 106 528 92 528 q 131 522 119 528 q 156 528 142 528 q 181 522 169 528 q 206 528 192 528 q 231 522 219 528 q 256 528 242 528 q 281 522 269 528 q 306 528 292 528 q 331 522 319 528 q 356 528 342 528 q 381 522 369 528 q 406 528 392 528 q 431 522 419 528 q 456 528 442 528 q 481 522 469 528 q 506 528 492 528 q 544 512 528 528 q 561 473 561 496 q 544 433 561 450 q 506 417 528 417 q 481 422 492 417 q 456 417 469 417 q 431 422 442 417 q 406 417 419 417 q 381 422 392 417 q 356 417 369 417 q 331 422 342 417 q 306 417 319 417 q 281 422 292 417 q 256 417 269 417 q 231 422 242 417 q 206 417 219 417 q 181 422 192 417 q 156 417 169 417 q 131 422 142 417 q 106 417 119 417 q 81 422 92 417 q 56 417 69 417 q 17 433 33 417 m 167 572 q 158 581 167 572 q 150 612 150 589 q 167 651 150 635 q 206 667 183 667 q 231 661 219 667 q 256 667 242 667 q 281 661 269 667 q 306 667 292 667 q 331 661 319 667 q 356 667 342 667 q 394 651 378 667 q 411 612 411 635 q 394 572 411 589 q 356 556 378 556 q 331 561 342 556 q 306 556 319 556 q 281 561 292 556 q 256 556 269 556 q 231 561 242 556 q 206 556 219 556 q 167 572 183 556 m 317 711 q 308 719 317 711 q 300 751 300 728 q 317 790 300 774 q 356 806 333 806 q 381 800 369 806 q 406 806 392 806 q 444 790 428 806 q 461 751 461 774 q 444 711 461 728 q 406 694 428 694 q 381 700 392 694 q 356 694 369 694 q 317 711 333 694 m 117 711 q 108 719 117 711 q 100 751 100 728 q 117 790 100 774 q 156 806 133 806 q 181 800 169 806 q 206 806 192 806 q 244 790 228 806 q 261 751 261 774 q 244 711 261 728 q 206 694 228 694 q 181 700 192 694 q 156 694 169 694 q 117 711 133 694 z "},"+":{"ha":600,"x_min":0,"x_max":561,"o":"m 200 194 q 217 234 200 218 q 256 250 233 250 q 281 244 269 250 q 306 250 292 250 q 344 234 328 250 q 361 195 361 218 q 344 156 361 172 q 306 139 328 139 q 281 144 292 139 q 256 139 269 139 q 217 156 233 139 q 200 194 200 172 m 217 294 q 208 303 217 294 q 200 334 200 311 q 217 373 200 357 q 256 389 233 389 q 281 383 269 389 q 306 389 292 389 q 344 373 328 389 q 361 334 361 357 q 344 294 361 311 q 306 278 328 278 q 281 283 292 278 q 256 278 269 278 q 217 294 233 278 m 17 433 q 8 442 17 433 q 0 473 0 450 q 17 512 0 496 q 56 528 33 528 q 81 522 69 528 q 106 528 92 528 q 131 522 119 528 q 156 528 142 528 q 181 522 169 528 q 206 528 192 528 q 231 522 219 528 q 256 528 242 528 q 281 522 269 528 q 306 528 292 528 q 331 522 319 528 q 356 528 342 528 q 381 522 369 528 q 406 528 392 528 q 431 522 419 528 q 456 528 442 528 q 481 522 469 528 q 506 528 492 528 q 544 512 528 528 q 561 473 561 496 q 544 433 561 450 q 506 417 528 417 q 481 422 492 417 q 456 417 469 417 q 431 422 442 417 q 406 417 419 417 q 381 422 392 417 q 356 417 369 417 q 331 422 342 417 q 306 417 319 417 q 281 422 292 417 q 256 417 269 417 q 231 422 242 417 q 206 417 219 417 q 181 422 192 417 q 156 417 169 417 q 131 422 142 417 q 106 417 119 417 q 81 422 92 417 q 56 417 69 417 q 17 433 33 417 m 217 572 q 208 581 217 572 q 200 612 200 589 q 217 651 200 635 q 256 667 233 667 q 281 661 269 667 q 306 667 292 667 q 344 651 328 667 q 361 612 361 635 q 344 572 361 589 q 306 556 328 556 q 281 561 292 556 q 256 556 269 556 q 217 572 233 556 m 217 711 q 208 719 217 711 q 200 751 200 728 q 217 790 200 774 q 256 806 233 806 q 281 800 269 806 q 306 806 292 806 q 344 790 328 806 q 361 751 361 774 q 344 711 361 728 q 306 694 328 694 q 281 700 292 694 q 256 694 269 694 q 217 711 233 694 z "},",":{"ha":600,"x_min":150,"x_max":411,"o":"m 200 -222 q 217 -183 200 -199 q 256 -167 233 -167 q 281 -172 269 -167 q 306 -167 292 -167 q 344 -183 328 -167 q 361 -222 361 -199 q 344 -261 361 -244 q 306 -278 328 -278 q 281 -272 292 -278 q 256 -278 269 -278 q 217 -261 233 -278 q 200 -222 200 -244 m 267 -122 q 258 -114 267 -122 q 250 -83 250 -106 q 267 -44 250 -60 q 306 -28 283 -28 q 331 -33 319 -28 q 356 -28 342 -28 q 394 -44 378 -28 q 411 -83 411 -60 q 394 -122 411 -106 q 356 -139 378 -139 q 331 -133 342 -139 q 306 -139 319 -139 q 267 -122 283 -139 m 167 17 q 158 25 167 17 q 150 56 150 33 q 167 95 150 79 q 206 111 183 111 q 231 106 219 111 q 256 111 242 111 q 281 106 269 111 q 306 111 292 111 q 331 106 319 111 q 356 111 342 111 q 394 95 378 111 q 411 56 411 79 q 394 17 411 33 q 356 0 378 0 q 331 6 342 0 q 306 0 319 0 q 281 6 292 0 q 256 0 269 0 q 231 6 242 0 q 206 0 219 0 q 167 17 183 0 m 167 156 q 158 164 167 156 q 150 195 150 172 q 167 234 150 218 q 206 250 183 250 q 231 244 219 250 q 256 250 242 250 q 281 244 269 250 q 306 250 292 250 q 331 244 319 250 q 356 250 342 250 q 394 234 378 250 q 411 195 411 218 q 394 156 411 172 q 356 139 378 139 q 331 144 342 139 q 306 139 319 139 q 281 144 292 139 q 256 139 269 139 q 231 144 242 139 q 206 139 219 139 q 167 156 183 139 z "},"-":{"ha":600,"x_min":0,"x_max":561,"o":"m 0 472 q 17 512 0 496 q 56 528 33 528 q 81 522 69 528 q 106 528 92 528 q 131 522 119 528 q 156 528 142 528 q 181 522 169 528 q 206 528 192 528 q 231 522 219 528 q 256 528 242 528 q 281 522 269 528 q 306 528 292 528 q 331 522 319 528 q 356 528 342 528 q 381 522 369 528 q 406 528 392 528 q 431 522 419 528 q 456 528 442 528 q 481 522 469 528 q 506 528 492 528 q 544 512 528 528 q 561 473 561 496 q 544 433 561 450 q 506 417 528 417 q 481 422 492 417 q 456 417 469 417 q 431 422 442 417 q 406 417 419 417 q 381 422 392 417 q 356 417 369 417 q 331 422 342 417 q 306 417 319 417 q 281 422 292 417 q 256 417 269 417 q 231 422 242 417 q 206 417 219 417 q 181 422 192 417 q 156 417 169 417 q 131 422 142 417 q 106 417 119 417 q 81 422 92 417 q 56 417 69 417 q 17 433 33 417 q 0 472 0 450 z "},".":{"ha":600,"x_min":100,"x_max":361,"o":"m 100 56 q 117 95 100 79 q 156 111 133 111 q 181 106 169 111 q 206 111 192 111 q 231 106 219 111 q 256 111 242 111 q 281 106 269 111 q 306 111 292 111 q 344 95 328 111 q 361 56 361 79 q 344 17 361 33 q 306 0 328 0 q 281 6 292 0 q 256 0 269 0 q 231 6 242 0 q 206 0 219 0 q 181 6 192 0 q 156 0 169 0 q 117 17 133 0 q 100 56 100 33 m 117 156 q 108 164 117 156 q 100 195 100 172 q 117 234 100 218 q 156 250 133 250 q 181 244 169 250 q 206 250 192 250 q 231 244 219 250 q 256 250 242 250 q 281 244 269 250 q 306 250 292 250 q 344 234 328 250 q 361 195 361 218 q 344 156 361 172 q 306 139 328 139 q 281 144 292 139 q 256 139 269 139 q 231 144 242 139 q 206 139 219 139 q 181 144 192 139 q 156 139 169 139 q 117 156 133 139 z "},"/":{"ha":600,"x_min":50,"x_max":511,"o":"m 50 56 q 67 95 50 79 q 106 111 83 111 q 131 106 119 111 q 156 111 142 111 q 194 95 178 111 q 211 56 211 79 q 194 17 211 33 q 156 0 178 0 q 131 6 142 0 q 106 0 119 0 q 67 17 83 0 q 50 56 50 33 m 117 156 q 108 164 117 156 q 100 195 100 172 q 117 234 100 218 q 156 250 133 250 q 181 244 169 250 q 206 250 192 250 q 244 234 228 250 q 261 195 261 218 q 244 156 261 172 q 206 139 228 139 q 181 144 192 139 q 156 139 169 139 q 117 156 133 139 m 167 294 q 158 303 167 294 q 150 334 150 311 q 167 373 150 357 q 206 389 183 389 q 231 383 219 389 q 256 389 242 389 q 294 373 278 389 q 311 334 311 357 q 294 294 311 311 q 256 278 278 278 q 231 283 242 278 q 206 278 219 278 q 167 294 183 278 m 217 433 q 208 442 217 433 q 200 473 200 450 q 217 512 200 496 q 256 528 233 528 q 281 522 269 528 q 306 528 292 528 q 344 512 328 528 q 361 473 361 496 q 344 433 361 450 q 306 417 328 417 q 281 422 292 417 q 256 417 269 417 q 217 433 233 417 m 267 572 q 258 581 267 572 q 250 612 250 589 q 267 651 250 635 q 306 667 283 667 q 331 661 319 667 q 356 667 342 667 q 394 651 378 667 q 411 612 411 635 q 394 572 411 589 q 356 556 378 556 q 331 561 342 556 q 306 556 319 556 q 267 572 283 556 m 317 711 q 308 719 317 711 q 300 751 300 728 q 317 790 300 774 q 356 806 333 806 q 381 800 369 806 q 406 806 392 806 q 444 790 428 806 q 461 751 461 774 q 444 711 461 728 q 406 694 428 694 q 381 700 392 694 q 356 694 369 694 q 317 711 333 694 m 367 850 q 358 858 367 850 q 350 890 350 867 q 367 928 350 913 q 406 944 383 944 q 431 939 419 944 q 456 944 442 944 q 494 928 478 944 q 511 890 511 913 q 494 850 511 867 q 456 833 478 833 q 431 839 442 833 q 406 833 419 833 q 367 850 383 833 z "},":":{"ha":600,"x_min":100,"x_max":361,"o":"m 100 56 q 117 95 100 79 q 156 111 133 111 q 181 106 169 111 q 206 111 192 111 q 231 106 219 111 q 256 111 242 111 q 281 106 269 111 q 306 111 292 111 q 344 95 328 111 q 361 56 361 79 q 344 17 361 33 q 306 0 328 0 q 281 6 292 0 q 256 0 269 0 q 231 6 242 0 q 206 0 219 0 q 181 6 192 0 q 156 0 169 0 q 117 17 133 0 q 100 56 100 33 m 117 156 q 108 164 117 156 q 100 195 100 172 q 117 234 100 218 q 156 250 133 250 q 181 244 169 250 q 206 250 192 250 q 231 244 219 250 q 256 250 242 250 q 281 244 269 250 q 306 250 292 250 q 344 234 328 250 q 361 195 361 218 q 344 156 361 172 q 306 139 328 139 q 281 144 292 139 q 256 139 269 139 q 231 144 242 139 q 206 139 219 139 q 181 144 192 139 q 156 139 169 139 q 117 156 133 139 m 117 433 q 108 442 117 433 q 100 473 100 450 q 117 512 100 496 q 156 528 133 528 q 181 522 169 528 q 206 528 192 528 q 231 522 219 528 q 256 528 242 528 q 281 522 269 528 q 306 528 292 528 q 344 512 328 528 q 361 473 361 496 q 344 433 361 450 q 306 417 328 417 q 281 422 292 417 q 256 417 269 417 q 231 422 242 417 q 206 417 219 417 q 181 422 192 417 q 156 417 169 417 q 117 433 133 417 m 117 572 q 108 581 117 572 q 100 612 100 589 q 117 651 100 635 q 156 667 133 667 q 181 661 169 667 q 206 667 192 667 q 231 661 219 667 q 256 667 242 667 q 281 661 269 667 q 306 667 292 667 q 344 651 328 667 q 361 612 361 635 q 344 572 361 589 q 306 556 328 556 q 281 561 292 556 q 256 556 269 556 q 231 561 242 556 q 206 556 219 556 q 181 561 192 556 q 156 556 169 556 q 117 572 133 556 z "},";":{"ha":600,"x_min":100,"x_max":361,"o":"m 100 -222 q 117 -183 100 -199 q 156 -167 133 -167 q 181 -172 169 -167 q 206 -167 192 -167 q 244 -183 228 -167 q 261 -222 261 -199 q 244 -261 261 -244 q 206 -278 228 -278 q 181 -272 192 -278 q 156 -278 169 -278 q 117 -261 133 -278 q 100 -222 100 -244 m 217 -122 q 208 -114 217 -122 q 200 -83 200 -106 q 217 -44 200 -60 q 256 -28 233 -28 q 281 -33 269 -28 q 306 -28 292 -28 q 344 -44 328 -28 q 361 -83 361 -60 q 344 -122 361 -106 q 306 -139 328 -139 q 281 -133 292 -139 q 256 -139 269 -139 q 217 -122 233 -139 m 117 17 q 108 25 117 17 q 100 56 100 33 q 117 95 100 79 q 156 111 133 111 q 181 106 169 111 q 206 111 192 111 q 231 106 219 111 q 256 111 242 111 q 281 106 269 111 q 306 111 292 111 q 344 95 328 111 q 361 56 361 79 q 344 17 361 33 q 306 0 328 0 q 281 6 292 0 q 256 0 269 0 q 231 6 242 0 q 206 0 219 0 q 181 6 192 0 q 156 0 169 0 q 117 17 133 0 m 117 156 q 108 164 117 156 q 100 195 100 172 q 117 234 100 218 q 156 250 133 250 q 181 244 169 250 q 206 250 192 250 q 231 244 219 250 q 256 250 242 250 q 281 244 269 250 q 306 250 292 250 q 344 234 328 250 q 361 195 361 218 q 344 156 361 172 q 306 139 328 139 q 281 144 292 139 q 256 139 269 139 q 231 144 242 139 q 206 139 219 139 q 181 144 192 139 q 156 139 169 139 q 117 156 133 139 m 117 433 q 108 442 117 433 q 100 473 100 450 q 117 512 100 496 q 156 528 133 528 q 181 522 169 528 q 206 528 192 528 q 231 522 219 528 q 256 528 242 528 q 281 522 269 528 q 306 528 292 528 q 344 512 328 528 q 361 473 361 496 q 344 433 361 450 q 306 417 328 417 q 281 422 292 417 q 256 417 269 417 q 231 422 242 417 q 206 417 219 417 q 181 422 192 417 q 156 417 169 417 q 117 433 133 417 m 117 572 q 108 581 117 572 q 100 612 100 589 q 117 651 100 635 q 156 667 133 667 q 181 661 169 667 q 206 667 192 667 q 231 661 219 667 q 256 667 242 667 q 281 661 269 667 q 306 667 292 667 q 344 651 328 667 q 361 612 361 635 q 344 572 361 589 q 306 556 328 556 q 281 561 292 556 q 256 556 269 556 q 231 561 242 556 q 206 556 219 556 q 181 561 192 556 q 156 556 169 556 q 117 572 133 556 z "},"<":{"ha":600,"x_min":0,"x_max":461,"o":"m 300 56 q 317 95 300 79 q 356 111 333 111 q 381 106 369 111 q 406 111 392 111 q 444 95 428 111 q 461 56 461 79 q 444 17 461 33 q 406 0 428 0 q 381 6 392 0 q 356 0 369 0 q 317 17 333 0 q 300 56 300 33 m 217 156 q 208 164 217 156 q 200 195 200 172 q 217 234 200 218 q 256 250 233 250 q 281 244 269 250 q 306 250 292 250 q 344 234 328 250 q 361 195 361 218 q 344 156 361 172 q 306 139 328 139 q 281 144 292 139 q 256 139 269 139 q 217 156 233 139 m 117 294 q 108 303 117 294 q 100 334 100 311 q 117 373 100 357 q 156 389 133 389 q 181 383 169 389 q 206 389 192 389 q 244 373 228 389 q 261 334 261 357 q 244 294 261 311 q 206 278 228 278 q 181 283 192 278 q 156 278 169 278 q 117 294 133 278 m 17 433 q 8 442 17 433 q 0 473 0 450 q 17 512 0 496 q 56 528 33 528 q 81 522 69 528 q 106 528 92 528 q 144 512 128 528 q 161 473 161 496 q 144 433 161 450 q 106 417 128 417 q 81 422 92 417 q 56 417 69 417 q 17 433 33 417 m 117 572 q 108 581 117 572 q 100 612 100 589 q 117 651 100 635 q 156 667 133 667 q 181 661 169 667 q 206 667 192 667 q 244 651 228 667 q 261 612 261 635 q 244 572 261 589 q 206 556 228 556 q 181 561 192 556 q 156 556 169 556 q 117 572 133 556 m 217 711 q 208 719 217 711 q 200 751 200 728 q 217 790 200 774 q 256 806 233 806 q 281 800 269 806 q 306 806 292 806 q 344 790 328 806 q 361 751 361 774 q 344 711 361 728 q 306 694 328 694 q 281 700 292 694 q 256 694 269 694 q 217 711 233 694 m 317 850 q 308 858 317 850 q 300 890 300 867 q 317 928 300 913 q 356 944 333 944 q 381 939 369 944 q 406 944 392 944 q 444 928 428 944 q 461 890 461 913 q 444 850 461 867 q 406 833 428 833 q 381 839 392 833 q 356 833 369 833 q 317 850 333 833 z "},"=":{"ha":600,"x_min":0,"x_max":561,"o":"m 0 333 q 17 373 0 357 q 56 389 33 389 q 81 383 69 389 q 106 389 92 389 q 131 383 119 389 q 156 389 142 389 q 181 383 169 389 q 206 389 192 389 q 231 383 219 389 q 256 389 242 389 q 281 383 269 389 q 306 389 292 389 q 331 383 319 389 q 356 389 342 389 q 381 383 369 389 q 406 389 392 389 q 431 383 419 389 q 456 389 442 389 q 481 383 469 389 q 506 389 492 389 q 544 373 528 389 q 561 334 561 357 q 544 294 561 311 q 506 278 528 278 q 481 283 492 278 q 456 278 469 278 q 431 283 442 278 q 406 278 419 278 q 381 283 392 278 q 356 278 369 278 q 331 283 342 278 q 306 278 319 278 q 281 283 292 278 q 256 278 269 278 q 231 283 242 278 q 206 278 219 278 q 181 283 192 278 q 156 278 169 278 q 131 283 142 278 q 106 278 119 278 q 81 283 92 278 q 56 278 69 278 q 17 294 33 278 q 0 333 0 311 m 17 572 q 8 581 17 572 q 0 612 0 589 q 17 651 0 635 q 56 667 33 667 q 81 661 69 667 q 106 667 92 667 q 131 661 119 667 q 156 667 142 667 q 181 661 169 667 q 206 667 192 667 q 231 661 219 667 q 256 667 242 667 q 281 661 269 667 q 306 667 292 667 q 331 661 319 667 q 356 667 342 667 q 381 661 369 667 q 406 667 392 667 q 431 661 419 667 q 456 667 442 667 q 481 661 469 667 q 506 667 492 667 q 544 651 528 667 q 561 612 561 635 q 544 572 561 589 q 506 556 528 556 q 481 561 492 556 q 456 556 469 556 q 431 561 442 556 q 406 556 419 556 q 381 561 392 556 q 356 556 369 556 q 331 561 342 556 q 306 556 319 556 q 281 561 292 556 q 256 556 269 556 q 231 561 242 556 q 206 556 219 556 q 181 561 192 556 q 156 556 169 556 q 131 561 142 556 q 106 556 119 556 q 81 561 92 556 q 56 556 69 556 q 17 572 33 556 z "},">":{"ha":600,"x_min":100,"x_max":561,"o":"m 100 56 q 117 95 100 79 q 156 111 133 111 q 181 106 169 111 q 206 111 192 111 q 244 95 228 111 q 261 56 261 79 q 244 17 261 33 q 206 0 228 0 q 181 6 192 0 q 156 0 169 0 q 117 17 133 0 q 100 56 100 33 m 217 156 q 208 164 217 156 q 200 195 200 172 q 217 234 200 218 q 256 250 233 250 q 281 244 269 250 q 306 250 292 250 q 344 234 328 250 q 361 195 361 218 q 344 156 361 172 q 306 139 328 139 q 281 144 292 139 q 256 139 269 139 q 217 156 233 139 m 317 294 q 308 303 317 294 q 300 334 300 311 q 317 373 300 357 q 356 389 333 389 q 381 383 369 389 q 406 389 392 389 q 444 373 428 389 q 461 334 461 357 q 444 294 461 311 q 406 278 428 278 q 381 283 392 278 q 356 278 369 278 q 317 294 333 278 m 417 433 q 408 442 417 433 q 400 473 400 450 q 417 512 400 496 q 456 528 433 528 q 481 522 469 528 q 506 528 492 528 q 544 512 528 528 q 561 473 561 496 q 544 433 561 450 q 506 417 528 417 q 481 422 492 417 q 456 417 469 417 q 417 433 433 417 m 317 572 q 308 581 317 572 q 300 612 300 589 q 317 651 300 635 q 356 667 333 667 q 381 661 369 667 q 406 667 392 667 q 444 651 428 667 q 461 612 461 635 q 444 572 461 589 q 406 556 428 556 q 381 561 392 556 q 356 556 369 556 q 317 572 333 556 m 217 711 q 208 719 217 711 q 200 751 200 728 q 217 790 200 774 q 256 806 233 806 q 281 800 269 806 q 306 806 292 806 q 344 790 328 806 q 361 751 361 774 q 344 711 361 728 q 306 694 328 694 q 281 700 292 694 q 256 694 269 694 q 217 711 233 694 m 117 850 q 108 858 117 850 q 100 890 100 867 q 117 928 100 913 q 156 944 133 944 q 181 939 169 944 q 206 944 192 944 q 244 928 228 944 q 261 890 261 913 q 244 850 261 867 q 206 833 228 833 q 181 839 192 833 q 156 833 169 833 q 117 850 133 833 z "},"?":{"ha":600,"x_min":0,"x_max":561,"o":"m 200 56 q 217 95 200 79 q 256 111 233 111 q 281 106 269 111 q 306 111 292 111 q 344 95 328 111 q 361 56 361 79 q 344 17 361 33 q 306 0 328 0 q 281 6 292 0 q 256 0 269 0 q 217 17 233 0 q 200 56 200 33 m 217 294 q 208 303 217 294 q 200 334 200 311 q 217 373 200 357 q 256 389 233 389 q 281 383 269 389 q 306 389 292 389 q 344 373 328 389 q 361 334 361 357 q 344 294 361 311 q 306 278 328 278 q 281 283 292 278 q 256 278 269 278 q 217 294 233 278 m 317 433 q 308 442 317 433 q 300 473 300 450 q 317 512 300 496 q 356 528 333 528 q 381 522 369 528 q 406 528 392 528 q 444 512 428 528 q 461 473 461 496 q 444 433 461 450 q 406 417 428 417 q 381 422 392 417 q 356 417 369 417 q 317 433 333 417 m 417 572 q 408 581 417 572 q 400 612 400 589 q 417 651 400 635 q 456 667 433 667 q 481 661 469 667 q 506 667 492 667 q 544 651 528 667 q 561 612 561 635 q 544 572 561 589 q 506 556 528 556 q 481 561 492 556 q 456 556 469 556 q 417 572 433 556 m 417 711 q 408 719 417 711 q 400 751 400 728 q 417 790 400 774 q 456 806 433 806 q 481 800 469 806 q 506 806 492 806 q 544 790 528 806 q 561 751 561 774 q 544 711 561 728 q 506 694 528 694 q 481 700 492 694 q 456 694 469 694 q 417 711 433 694 m 17 711 q 8 719 17 711 q 0 751 0 728 q 17 790 0 774 q 56 806 33 806 q 81 800 69 806 q 106 806 92 806 q 144 790 128 806 q 161 751 161 774 q 144 711 161 728 q 106 694 128 694 q 81 700 92 694 q 56 694 69 694 q 17 711 33 694 m 67 850 q 58 858 67 850 q 50 890 50 867 q 67 928 50 913 q 106 944 83 944 q 131 939 119 944 q 156 944 142 944 q 181 939 169 944 q 206 944 192 944 q 231 939 219 944 q 256 944 242 944 q 281 939 269 944 q 306 944 292 944 q 331 939 319 944 q 356 944 342 944 q 381 939 369 944 q 406 944 392 944 q 431 939 419 944 q 456 944 442 944 q 494 928 478 944 q 511 890 511 913 q 494 850 511 867 q 456 833 478 833 q 431 839 442 833 q 406 833 419 833 q 381 839 392 833 q 356 833 369 833 q 331 839 342 833 q 306 833 319 833 q 281 839 292 833 q 256 833 269 833 q 231 839 242 833 q 206 833 219 833 q 181 839 192 833 q 156 833 169 833 q 131 839 142 833 q 106 833 119 833 q 67 850 83 833 z "},"@":{"ha":600,"x_min":0,"x_max":561,"o":"m 100 56 q 117 95 100 79 q 156 111 133 111 q 181 106 169 111 q 206 111 192 111 q 231 106 219 111 q 256 111 242 111 q 281 106 269 111 q 306 111 292 111 q 331 106 319 111 q 356 111 342 111 q 381 106 369 111 q 406 111 392 111 q 431 106 419 111 q 456 111 442 111 q 481 106 469 111 q 506 111 492 111 q 544 95 528 111 q 561 56 561 79 q 544 17 561 33 q 506 0 528 0 q 481 6 492 0 q 456 0 469 0 q 431 6 442 0 q 406 0 419 0 q 381 6 392 0 q 356 0 369 0 q 331 6 342 0 q 306 0 319 0 q 281 6 292 0 q 256 0 269 0 q 231 6 242 0 q 206 0 219 0 q 181 6 192 0 q 156 0 169 0 q 117 17 133 0 q 100 56 100 33 m 17 156 q 8 164 17 156 q 0 195 0 172 q 17 234 0 218 q 56 250 33 250 q 81 244 69 250 q 106 250 92 250 q 144 234 128 250 q 161 195 161 218 q 144 156 161 172 q 106 139 128 139 q 81 144 92 139 q 56 139 69 139 q 17 156 33 139 m 217 294 q 208 303 217 294 q 200 334 200 311 q 217 373 200 357 q 256 389 233 389 q 281 383 269 389 q 306 389 292 389 q 331 383 319 389 q 356 389 342 389 q 381 383 369 389 q 406 389 392 389 q 431 383 419 389 q 456 389 442 389 q 481 383 469 389 q 506 389 492 389 q 544 373 528 389 q 561 334 561 357 q 544 294 561 311 q 506 278 528 278 q 481 283 492 278 q 456 278 469 278 q 431 283 442 278 q 406 278 419 278 q 381 283 392 278 q 356 278 369 278 q 331 283 342 278 q 306 278 319 278 q 281 283 292 278 q 256 278 269 278 q 217 294 233 278 m 17 294 q 8 303 17 294 q 0 334 0 311 q 17 373 0 357 q 56 389 33 389 q 81 383 69 389 q 106 389 92 389 q 144 373 128 389 q 161 334 161 357 q 144 294 161 311 q 106 278 128 278 q 81 283 92 278 q 56 278 69 278 q 17 294 33 278 m 417 433 q 408 442 417 433 q 400 473 400 450 q 417 512 400 496 q 456 528 433 528 q 481 522 469 528 q 506 528 492 528 q 544 512 528 528 q 561 473 561 496 q 544 433 561 450 q 506 417 528 417 q 481 422 492 417 q 456 417 469 417 q 417 433 433 417 m 17 433 q 8 442 17 433 q 0 473 0 450 q 17 512 0 496 q 56 528 33 528 q 81 522 69 528 q 106 528 92 528 q 156 496 140 528 q 206 528 171 528 q 231 522 219 528 q 256 528 242 528 q 294 512 278 528 q 311 473 311 496 q 294 433 311 450 q 256 417 278 417 q 231 422 242 417 q 206 417 219 417 q 156 449 171 417 q 106 417 140 417 q 81 422 92 417 q 56 417 69 417 q 17 433 33 417 m 217 572 q 208 581 217 572 q 200 612 200 589 q 217 651 200 635 q 256 667 233 667 q 281 661 269 667 q 306 667 292 667 q 331 661 319 667 q 356 667 342 667 q 381 661 369 667 q 406 667 392 667 q 431 661 419 667 q 456 667 442 667 q 481 661 469 667 q 506 667 492 667 q 544 651 528 667 q 561 612 561 635 q 544 572 561 589 q 506 556 528 556 q 481 561 492 556 q 456 556 469 556 q 431 561 442 556 q 406 556 419 556 q 381 561 392 556 q 356 556 369 556 q 331 561 342 556 q 306 556 319 556 q 281 561 292 556 q 256 556 269 556 q 217 572 233 556 m 17 572 q 8 581 17 572 q 0 612 0 589 q 17 651 0 635 q 56 667 33 667 q 81 661 69 667 q 106 667 92 667 q 144 651 128 667 q 161 612 161 635 q 144 572 161 589 q 106 556 128 556 q 81 561 92 556 q 56 556 69 556 q 17 572 33 556 m 417 711 q 408 719 417 711 q 400 751 400 728 q 417 790 400 774 q 456 806 433 806 q 481 800 469 806 q 506 806 492 806 q 544 790 528 806 q 561 751 561 774 q 544 711 561 728 q 506 694 528 694 q 481 700 492 694 q 456 694 469 694 q 417 711 433 694 m 17 711 q 8 719 17 711 q 0 751 0 728 q 17 790 0 774 q 56 806 33 806 q 81 800 69 806 q 106 806 92 806 q 144 790 128 806 q 161 751 161 774 q 144 711 161 728 q 106 694 128 694 q 81 700 92 694 q 56 694 69 694 q 17 711 33 694 m 117 850 q 108 858 117 850 q 100 890 100 867 q 117 928 100 913 q 156 944 133 944 q 181 939 169 944 q 206 944 192 944 q 231 939 219 944 q 256 944 242 944 q 281 939 269 944 q 306 944 292 944 q 331 939 319 944 q 356 944 342 944 q 381 939 369 944 q 406 944 392 944 q 444 928 428 944 q 461 890 461 913 q 444 850 461 867 q 406 833 428 833 q 381 839 392 833 q 356 833 369 833 q 331 839 342 833 q 306 833 319 833 q 281 839 292 833 q 256 833 269 833 q 231 839 242 833 q 206 833 219 833 q 181 839 192 833 q 156 833 169 833 q 117 850 133 833 z "},"A":{"ha":600,"x_min":0,"x_max":561,"o":"m 400 56 q 417 95 400 79 q 456 111 433 111 q 481 106 469 111 q 506 111 492 111 q 544 95 528 111 q 561 56 561 79 q 544 17 561 33 q 506 0 528 0 q 481 6 492 0 q 456 0 469 0 q 417 17 433 0 q 400 56 400 33 m 17 17 q 8 25 17 17 q 0 56 0 33 q 17 95 0 79 q 56 111 33 111 q 81 106 69 111 q 106 111 92 111 q 144 95 128 111 q 161 56 161 79 q 144 17 161 33 q 106 0 128 0 q 81 6 92 0 q 56 0 69 0 q 17 17 33 0 m 417 156 q 408 164 417 156 q 400 195 400 172 q 417 234 400 218 q 456 250 433 250 q 481 244 469 250 q 506 250 492 250 q 544 234 528 250 q 561 195 561 218 q 544 156 561 172 q 506 139 528 139 q 481 144 492 139 q 456 139 469 139 q 417 156 433 139 m 17 156 q 8 164 17 156 q 0 195 0 172 q 17 234 0 218 q 56 250 33 250 q 81 244 69 250 q 106 250 92 250 q 144 234 128 250 q 161 195 161 218 q 144 156 161 172 q 106 139 128 139 q 81 144 92 139 q 56 139 69 139 q 17 156 33 139 m 17 294 q 8 303 17 294 q 0 334 0 311 q 17 373 0 357 q 56 389 33 389 q 81 383 69 389 q 106 389 92 389 q 131 383 119 389 q 156 389 142 389 q 181 383 169 389 q 206 389 192 389 q 231 383 219 389 q 256 389 242 389 q 281 383 269 389 q 306 389 292 389 q 331 383 319 389 q 356 389 342 389 q 381 383 369 389 q 406 389 392 389 q 431 383 419 389 q 456 389 442 389 q 481 383 469 389 q 506 389 492 389 q 544 373 528 389 q 561 334 561 357 q 544 294 561 311 q 506 278 528 278 q 481 283 492 278 q 456 278 469 278 q 431 283 442 278 q 406 278 419 278 q 381 283 392 278 q 356 278 369 278 q 331 283 342 278 q 306 278 319 278 q 281 283 292 278 q 256 278 269 278 q 231 283 242 278 q 206 278 219 278 q 181 283 192 278 q 156 278 169 278 q 131 283 142 278 q 106 278 119 278 q 81 283 92 278 q 56 278 69 278 q 17 294 33 278 m 417 433 q 408 442 417 433 q 400 473 400 450 q 417 512 400 496 q 456 528 433 528 q 481 522 469 528 q 506 528 492 528 q 544 512 528 528 q 561 473 561 496 q 544 433 561 450 q 506 417 528 417 q 481 422 492 417 q 456 417 469 417 q 417 433 433 417 m 17 433 q 8 442 17 433 q 0 473 0 450 q 17 512 0 496 q 56 528 33 528 q 81 522 69 528 q 106 528 92 528 q 144 512 128 528 q 161 473 161 496 q 144 433 161 450 q 106 417 128 417 q 81 422 92 417 q 56 417 69 417 q 17 433 33 417 m 367 572 q 358 581 367 572 q 350 612 350 589 q 367 651 350 635 q 406 667 383 667 q 431 661 419 667 q 456 667 442 667 q 494 651 478 667 q 511 612 511 635 q 494 572 511 589 q 456 556 478 556 q 431 561 442 556 q 406 556 419 556 q 367 572 383 556 m 67 572 q 58 581 67 572 q 50 612 50 589 q 67 651 50 635 q 106 667 83 667 q 131 661 119 667 q 156 667 142 667 q 194 651 178 667 q 211 612 211 635 q 194 572 211 589 q 156 556 178 556 q 131 561 142 556 q 106 556 119 556 q 67 572 83 556 m 317 711 q 308 719 317 711 q 300 751 300 728 q 317 790 300 774 q 356 806 333 806 q 381 800 369 806 q 406 806 392 806 q 444 790 428 806 q 461 751 461 774 q 444 711 461 728 q 406 694 428 694 q 381 700 392 694 q 356 694 369 694 q 317 711 333 694 m 117 711 q 108 719 117 711 q 100 751 100 728 q 117 790 100 774 q 156 806 133 806 q 181 800 169 806 q 206 806 192 806 q 244 790 228 806 q 261 751 261 774 q 244 711 261 728 q 206 694 228 694 q 181 700 192 694 q 156 694 169 694 q 117 711 133 694 m 167 850 q 158 858 167 850 q 150 890 150 867 q 167 928 150 913 q 206 944 183 944 q 231 939 219 944 q 256 944 242 944 q 281 939 269 944 q 306 944 292 944 q 331 939 319 944 q 356 944 342 944 q 394 928 378 944 q 411 890 411 913 q 394 850 411 867 q 356 833 378 833 q 331 839 342 833 q 306 833 319 833 q 281 839 292 833 q 256 833 269 833 q 231 839 242 833 q 206 833 219 833 q 167 850 183 833 z "},"B":{"ha":600,"x_min":0,"x_max":561,"o":"m 0 56 q 17 95 0 79 q 56 111 33 111 q 81 106 69 111 q 106 111 92 111 q 131 106 119 111 q 156 111 142 111 q 181 106 169 111 q 206 111 192 111 q 231 106 219 111 q 256 111 242 111 q 281 106 269 111 q 306 111 292 111 q 331 106 319 111 q 356 111 342 111 q 381 106 369 111 q 406 111 392 111 q 444 95 428 111 q 461 56 461 79 q 444 17 461 33 q 406 0 428 0 q 381 6 392 0 q 356 0 369 0 q 331 6 342 0 q 306 0 319 0 q 281 6 292 0 q 256 0 269 0 q 231 6 242 0 q 206 0 219 0 q 181 6 192 0 q 156 0 169 0 q 131 6 142 0 q 106 0 119 0 q 81 6 92 0 q 56 0 69 0 q 17 17 33 0 q 0 56 0 33 m 417 156 q 408 164 417 156 q 400 195 400 172 q 417 234 400 218 q 456 250 433 250 q 481 244 469 250 q 506 250 492 250 q 544 234 528 250 q 561 195 561 218 q 544 156 561 172 q 506 139 528 139 q 481 144 492 139 q 456 139 469 139 q 417 156 433 139 m 67 156 q 58 164 67 156 q 50 195 50 172 q 67 234 50 218 q 106 250 83 250 q 131 244 119 250 q 156 250 142 250 q 194 234 178 250 q 211 195 211 218 q 194 156 211 172 q 156 139 178 139 q 131 144 142 139 q 106 139 119 139 q 67 156 83 139 m 417 294 q 408 303 417 294 q 400 334 400 311 q 417 373 400 357 q 456 389 433 389 q 481 383 469 389 q 506 389 492 389 q 544 373 528 389 q 561 334 561 357 q 544 294 561 311 q 506 278 528 278 q 481 283 492 278 q 456 278 469 278 q 417 294 433 278 m 67 294 q 58 303 67 294 q 50 334 50 311 q 67 373 50 357 q 106 389 83 389 q 131 383 119 389 q 156 389 142 389 q 194 373 178 389 q 211 334 211 357 q 194 294 211 311 q 156 278 178 278 q 131 283 142 278 q 106 278 119 278 q 67 294 83 278 m 67 433 q 58 442 67 433 q 50 473 50 450 q 67 512 50 496 q 106 528 83 528 q 131 522 119 528 q 156 528 142 528 q 181 522 169 528 q 206 528 192 528 q 231 522 219 528 q 256 528 242 528 q 281 522 269 528 q 306 528 292 528 q 331 522 319 528 q 356 528 342 528 q 381 522 369 528 q 406 528 392 528 q 431 522 419 528 q 456 528 442 528 q 494 512 478 528 q 511 473 511 496 q 494 433 511 450 q 456 417 478 417 q 431 422 442 417 q 406 417 419 417 q 381 422 392 417 q 356 417 369 417 q 331 422 342 417 q 306 417 319 417 q 281 422 292 417 q 256 417 269 417 q 231 422 242 417 q 206 417 219 417 q 181 422 192 417 q 156 417 169 417 q 131 422 142 417 q 106 417 119 417 q 67 433 83 417 m 417 572 q 408 581 417 572 q 400 612 400 589 q 417 651 400 635 q 456 667 433 667 q 481 661 469 667 q 506 667 492 667 q 544 651 528 667 q 561 612 561 635 q 544 572 561 589 q 506 556 528 556 q 481 561 492 556 q 456 556 469 556 q 417 572 433 556 m 67 572 q 58 581 67 572 q 50 612 50 589 q 67 651 50 635 q 106 667 83 667 q 131 661 119 667 q 156 667 142 667 q 194 651 178 667 q 211 612 211 635 q 194 572 211 589 q 156 556 178 556 q 131 561 142 556 q 106 556 119 556 q 67 572 83 556 m 417 711 q 408 719 417 711 q 400 751 400 728 q 417 790 400 774 q 456 806 433 806 q 481 800 469 806 q 506 806 492 806 q 544 790 528 806 q 561 751 561 774 q 544 711 561 728 q 506 694 528 694 q 481 700 492 694 q 456 694 469 694 q 417 711 433 694 m 67 711 q 58 719 67 711 q 50 751 50 728 q 67 790 50 774 q 106 806 83 806 q 131 800 119 806 q 156 806 142 806 q 194 790 178 806 q 211 751 211 774 q 194 711 211 728 q 156 694 178 694 q 131 700 142 694 q 106 694 119 694 q 67 711 83 694 m 17 850 q 8 858 17 850 q 0 890 0 867 q 17 928 0 913 q 56 944 33 944 q 81 939 69 944 q 106 944 92 944 q 131 939 119 944 q 156 944 142 944 q 181 939 169 944 q 206 944 192 944 q 231 939 219 944 q 256 944 242 944 q 281 939 269 944 q 306 944 292 944 q 331 939 319 944 q 356 944 342 944 q 381 939 369 944 q 406 944 392 944 q 444 928 428 944 q 461 890 461 913 q 444 850 461 867 q 406 833 428 833 q 381 839 392 833 q 356 833 369 833 q 331 839 342 833 q 306 833 319 833 q 281 839 292 833 q 256 833 269 833 q 231 839 242 833 q 206 833 219 833 q 181 839 192 833 q 156 833 169 833 q 131 839 142 833 q 106 833 119 833 q 81 839 92 833 q 56 833 69 833 q 17 850 33 833 z "},"C":{"ha":600,"x_min":0,"x_max":561,"o":"m 50 56 q 67 95 50 79 q 106 111 83 111 q 131 106 119 111 q 156 111 142 111 q 181 106 169 111 q 206 111 192 111 q 231 106 219 111 q 256 111 242 111 q 281 106 269 111 q 306 111 292 111 q 331 106 319 111 q 356 111 342 111 q 381 106 369 111 q 406 111 392 111 q 431 106 419 111 q 456 111 442 111 q 494 95 478 111 q 511 56 511 79 q 494 17 511 33 q 456 0 478 0 q 431 6 442 0 q 406 0 419 0 q 381 6 392 0 q 356 0 369 0 q 331 6 342 0 q 306 0 319 0 q 281 6 292 0 q 256 0 269 0 q 231 6 242 0 q 206 0 219 0 q 181 6 192 0 q 156 0 169 0 q 131 6 142 0 q 106 0 119 0 q 67 17 83 0 q 50 56 50 33 m 417 156 q 408 164 417 156 q 400 195 400 172 q 417 234 400 218 q 456 250 433 250 q 481 244 469 250 q 506 250 492 250 q 544 234 528 250 q 561 195 561 218 q 544 156 561 172 q 506 139 528 139 q 481 144 492 139 q 456 139 469 139 q 417 156 433 139 m 17 156 q 8 164 17 156 q 0 195 0 172 q 17 234 0 218 q 56 250 33 250 q 81 244 69 250 q 106 250 92 250 q 144 234 128 250 q 161 195 161 218 q 144 156 161 172 q 106 139 128 139 q 81 144 92 139 q 56 139 69 139 q 17 156 33 139 m 17 294 q 8 303 17 294 q 0 334 0 311 q 17 373 0 357 q 56 389 33 389 q 81 383 69 389 q 106 389 92 389 q 144 373 128 389 q 161 334 161 357 q 144 294 161 311 q 106 278 128 278 q 81 283 92 278 q 56 278 69 278 q 17 294 33 278 m 17 433 q 8 442 17 433 q 0 473 0 450 q 17 512 0 496 q 56 528 33 528 q 81 522 69 528 q 106 528 92 528 q 144 512 128 528 q 161 473 161 496 q 144 433 161 450 q 106 417 128 417 q 81 422 92 417 q 56 417 69 417 q 17 433 33 417 m 17 572 q 8 581 17 572 q 0 612 0 589 q 17 651 0 635 q 56 667 33 667 q 81 661 69 667 q 106 667 92 667 q 144 651 128 667 q 161 612 161 635 q 144 572 161 589 q 106 556 128 556 q 81 561 92 556 q 56 556 69 556 q 17 572 33 556 m 417 711 q 408 719 417 711 q 400 751 400 728 q 417 790 400 774 q 456 806 433 806 q 481 800 469 806 q 506 806 492 806 q 544 790 528 806 q 561 751 561 774 q 544 711 561 728 q 506 694 528 694 q 481 700 492 694 q 456 694 469 694 q 417 711 433 694 m 17 711 q 8 719 17 711 q 0 751 0 728 q 17 790 0 774 q 56 806 33 806 q 81 800 69 806 q 106 806 92 806 q 144 790 128 806 q 161 751 161 774 q 144 711 161 728 q 106 694 128 694 q 81 700 92 694 q 56 694 69 694 q 17 711 33 694 m 67 850 q 58 858 67 850 q 50 890 50 867 q 67 928 50 913 q 106 944 83 944 q 131 939 119 944 q 156 944 142 944 q 181 939 169 944 q 206 944 192 944 q 231 939 219 944 q 256 944 242 944 q 281 939 269 944 q 306 944 292 944 q 331 939 319 944 q 356 944 342 944 q 381 939 369 944 q 406 944 392 944 q 431 939 419 944 q 456 944 442 944 q 494 928 478 944 q 511 890 511 913 q 494 850 511 867 q 456 833 478 833 q 431 839 442 833 q 406 833 419 833 q 381 839 392 833 q 356 833 369 833 q 331 839 342 833 q 306 833 319 833 q 281 839 292 833 q 256 833 269 833 q 231 839 242 833 q 206 833 219 833 q 181 839 192 833 q 156 833 169 833 q 131 839 142 833 q 106 833 119 833 q 67 850 83 833 z "},"D":{"ha":600,"x_min":0,"x_max":561,"o":"m 0 56 q 17 95 0 79 q 56 111 33 111 q 81 106 69 111 q 106 111 92 111 q 131 106 119 111 q 156 111 142 111 q 181 106 169 111 q 206 111 192 111 q 231 106 219 111 q 256 111 242 111 q 281 106 269 111 q 306 111 292 111 q 331 106 319 111 q 356 111 342 111 q 381 106 369 111 q 406 111 392 111 q 444 95 428 111 q 461 56 461 79 q 444 17 461 33 q 406 0 428 0 q 381 6 392 0 q 356 0 369 0 q 331 6 342 0 q 306 0 319 0 q 281 6 292 0 q 256 0 269 0 q 231 6 242 0 q 206 0 219 0 q 181 6 192 0 q 156 0 169 0 q 131 6 142 0 q 106 0 119 0 q 81 6 92 0 q 56 0 69 0 q 17 17 33 0 q 0 56 0 33 m 367 156 q 358 164 367 156 q 350 195 350 172 q 367 234 350 218 q 406 250 383 250 q 431 244 419 250 q 456 250 442 250 q 494 234 478 250 q 511 195 511 218 q 494 156 511 172 q 456 139 478 139 q 431 144 442 139 q 406 139 419 139 q 367 156 383 139 m 67 156 q 58 164 67 156 q 50 195 50 172 q 67 234 50 218 q 106 250 83 250 q 131 244 119 250 q 156 250 142 250 q 194 234 178 250 q 211 195 211 218 q 194 156 211 172 q 156 139 178 139 q 131 144 142 139 q 106 139 119 139 q 67 156 83 139 m 417 294 q 408 303 417 294 q 400 334 400 311 q 417 373 400 357 q 456 389 433 389 q 481 383 469 389 q 506 389 492 389 q 544 373 528 389 q 561 334 561 357 q 544 294 561 311 q 506 278 528 278 q 481 283 492 278 q 456 278 469 278 q 417 294 433 278 m 67 294 q 58 303 67 294 q 50 334 50 311 q 67 373 50 357 q 106 389 83 389 q 131 383 119 389 q 156 389 142 389 q 194 373 178 389 q 211 334 211 357 q 194 294 211 311 q 156 278 178 278 q 131 283 142 278 q 106 278 119 278 q 67 294 83 278 m 417 433 q 408 442 417 433 q 400 473 400 450 q 417 512 400 496 q 456 528 433 528 q 481 522 469 528 q 506 528 492 528 q 544 512 528 528 q 561 473 561 496 q 544 433 561 450 q 506 417 528 417 q 481 422 492 417 q 456 417 469 417 q 417 433 433 417 m 67 433 q 58 442 67 433 q 50 473 50 450 q 67 512 50 496 q 106 528 83 528 q 131 522 119 528 q 156 528 142 528 q 194 512 178 528 q 211 473 211 496 q 194 433 211 450 q 156 417 178 417 q 131 422 142 417 q 106 417 119 417 q 67 433 83 417 m 417 572 q 408 581 417 572 q 400 612 400 589 q 417 651 400 635 q 456 667 433 667 q 481 661 469 667 q 506 667 492 667 q 544 651 528 667 q 561 612 561 635 q 544 572 561 589 q 506 556 528 556 q 481 561 492 556 q 456 556 469 556 q 417 572 433 556 m 67 572 q 58 581 67 572 q 50 612 50 589 q 67 651 50 635 q 106 667 83 667 q 131 661 119 667 q 156 667 142 667 q 194 651 178 667 q 211 612 211 635 q 194 572 211 589 q 156 556 178 556 q 131 561 142 556 q 106 556 119 556 q 67 572 83 556 m 367 711 q 358 719 367 711 q 350 751 350 728 q 367 790 350 774 q 406 806 383 806 q 431 800 419 806 q 456 806 442 806 q 494 790 478 806 q 511 751 511 774 q 494 711 511 728 q 456 694 478 694 q 431 700 442 694 q 406 694 419 694 q 367 711 383 694 m 67 711 q 58 719 67 711 q 50 751 50 728 q 67 790 50 774 q 106 806 83 806 q 131 800 119 806 q 156 806 142 806 q 194 790 178 806 q 211 751 211 774 q 194 711 211 728 q 156 694 178 694 q 131 700 142 694 q 106 694 119 694 q 67 711 83 694 m 17 850 q 8 858 17 850 q 0 890 0 867 q 17 928 0 913 q 56 944 33 944 q 81 939 69 944 q 106 944 92 944 q 131 939 119 944 q 156 944 142 944 q 181 939 169 944 q 206 944 192 944 q 231 939 219 944 q 256 944 242 944 q 281 939 269 944 q 306 944 292 944 q 331 939 319 944 q 356 944 342 944 q 381 939 369 944 q 406 944 392 944 q 444 928 428 944 q 461 890 461 913 q 444 850 461 867 q 406 833 428 833 q 381 839 392 833 q 356 833 369 833 q 331 839 342 833 q 306 833 319 833 q 281 839 292 833 q 256 833 269 833 q 231 839 242 833 q 206 833 219 833 q 181 839 192 833 q 156 833 169 833 q 131 839 142 833 q 106 833 119 833 q 81 839 92 833 q 56 833 69 833 q 17 850 33 833 z "},"E":{"ha":600,"x_min":0,"x_max":561,"o":"m 0 56 q 17 95 0 79 q 56 111 33 111 q 81 106 69 111 q 106 111 92 111 q 131 106 119 111 q 156 111 142 111 q 181 106 169 111 q 206 111 192 111 q 231 106 219 111 q 256 111 242 111 q 281 106 269 111 q 306 111 292 111 q 331 106 319 111 q 356 111 342 111 q 381 106 369 111 q 406 111 392 111 q 431 106 419 111 q 456 111 442 111 q 481 106 469 111 q 506 111 492 111 q 544 95 528 111 q 561 56 561 79 q 544 17 561 33 q 506 0 528 0 q 481 6 492 0 q 456 0 469 0 q 431 6 442 0 q 406 0 419 0 q 381 6 392 0 q 356 0 369 0 q 331 6 342 0 q 306 0 319 0 q 281 6 292 0 q 256 0 269 0 q 231 6 242 0 q 206 0 219 0 q 181 6 192 0 q 156 0 169 0 q 131 6 142 0 q 106 0 119 0 q 81 6 92 0 q 56 0 69 0 q 17 17 33 0 q 0 56 0 33 m 17 156 q 8 164 17 156 q 0 195 0 172 q 17 234 0 218 q 56 250 33 250 q 81 244 69 250 q 106 250 92 250 q 144 234 128 250 q 161 195 161 218 q 144 156 161 172 q 106 139 128 139 q 81 144 92 139 q 56 139 69 139 q 17 156 33 139 m 17 294 q 8 303 17 294 q 0 334 0 311 q 17 373 0 357 q 56 389 33 389 q 81 383 69 389 q 106 389 92 389 q 144 373 128 389 q 161 334 161 357 q 144 294 161 311 q 106 278 128 278 q 81 283 92 278 q 56 278 69 278 q 17 294 33 278 m 17 433 q 8 442 17 433 q 0 473 0 450 q 17 512 0 496 q 56 528 33 528 q 81 522 69 528 q 106 528 92 528 q 131 522 119 528 q 156 528 142 528 q 181 522 169 528 q 206 528 192 528 q 231 522 219 528 q 256 528 242 528 q 281 522 269 528 q 306 528 292 528 q 331 522 319 528 q 356 528 342 528 q 381 522 369 528 q 406 528 392 528 q 444 512 428 528 q 461 473 461 496 q 444 433 461 450 q 406 417 428 417 q 381 422 392 417 q 356 417 369 417 q 331 422 342 417 q 306 417 319 417 q 281 422 292 417 q 256 417 269 417 q 231 422 242 417 q 206 417 219 417 q 181 422 192 417 q 156 417 169 417 q 131 422 142 417 q 106 417 119 417 q 81 422 92 417 q 56 417 69 417 q 17 433 33 417 m 17 572 q 8 581 17 572 q 0 612 0 589 q 17 651 0 635 q 56 667 33 667 q 81 661 69 667 q 106 667 92 667 q 144 651 128 667 q 161 612 161 635 q 144 572 161 589 q 106 556 128 556 q 81 561 92 556 q 56 556 69 556 q 17 572 33 556 m 17 711 q 8 719 17 711 q 0 751 0 728 q 17 790 0 774 q 56 806 33 806 q 81 800 69 806 q 106 806 92 806 q 144 790 128 806 q 161 751 161 774 q 144 711 161 728 q 106 694 128 694 q 81 700 92 694 q 56 694 69 694 q 17 711 33 694 m 17 850 q 8 858 17 850 q 0 890 0 867 q 17 928 0 913 q 56 944 33 944 q 81 939 69 944 q 106 944 92 944 q 131 939 119 944 q 156 944 142 944 q 181 939 169 944 q 206 944 192 944 q 231 939 219 944 q 256 944 242 944 q 281 939 269 944 q 306 944 292 944 q 331 939 319 944 q 356 944 342 944 q 381 939 369 944 q 406 944 392 944 q 431 939 419 944 q 456 944 442 944 q 481 939 469 944 q 506 944 492 944 q 544 928 528 944 q 561 890 561 913 q 544 850 561 867 q 506 833 528 833 q 481 839 492 833 q 456 833 469 833 q 431 839 442 833 q 406 833 419 833 q 381 839 392 833 q 356 833 369 833 q 331 839 342 833 q 306 833 319 833 q 281 839 292 833 q 256 833 269 833 q 231 839 242 833 q 206 833 219 833 q 181 839 192 833 q 156 833 169 833 q 131 839 142 833 q 106 833 119 833 q 81 839 92 833 q 56 833 69 833 q 17 850 33 833 z "},"F":{"ha":600,"x_min":0,"x_max":561,"o":"m 0 56 q 17 95 0 79 q 56 111 33 111 q 81 106 69 111 q 106 111 92 111 q 144 95 128 111 q 161 56 161 79 q 144 17 161 33 q 106 0 128 0 q 81 6 92 0 q 56 0 69 0 q 17 17 33 0 q 0 56 0 33 m 17 156 q 8 164 17 156 q 0 195 0 172 q 17 234 0 218 q 56 250 33 250 q 81 244 69 250 q 106 250 92 250 q 144 234 128 250 q 161 195 161 218 q 144 156 161 172 q 106 139 128 139 q 81 144 92 139 q 56 139 69 139 q 17 156 33 139 m 17 294 q 8 303 17 294 q 0 334 0 311 q 17 373 0 357 q 56 389 33 389 q 81 383 69 389 q 106 389 92 389 q 144 373 128 389 q 161 334 161 357 q 144 294 161 311 q 106 278 128 278 q 81 283 92 278 q 56 278 69 278 q 17 294 33 278 m 17 433 q 8 442 17 433 q 0 473 0 450 q 17 512 0 496 q 56 528 33 528 q 81 522 69 528 q 106 528 92 528 q 131 522 119 528 q 156 528 142 528 q 181 522 169 528 q 206 528 192 528 q 231 522 219 528 q 256 528 242 528 q 281 522 269 528 q 306 528 292 528 q 331 522 319 528 q 356 528 342 528 q 381 522 369 528 q 406 528 392 528 q 444 512 428 528 q 461 473 461 496 q 444 433 461 450 q 406 417 428 417 q 381 422 392 417 q 356 417 369 417 q 331 422 342 417 q 306 417 319 417 q 281 422 292 417 q 256 417 269 417 q 231 422 242 417 q 206 417 219 417 q 181 422 192 417 q 156 417 169 417 q 131 422 142 417 q 106 417 119 417 q 81 422 92 417 q 56 417 69 417 q 17 433 33 417 m 17 572 q 8 581 17 572 q 0 612 0 589 q 17 651 0 635 q 56 667 33 667 q 81 661 69 667 q 106 667 92 667 q 144 651 128 667 q 161 612 161 635 q 144 572 161 589 q 106 556 128 556 q 81 561 92 556 q 56 556 69 556 q 17 572 33 556 m 17 711 q 8 719 17 711 q 0 751 0 728 q 17 790 0 774 q 56 806 33 806 q 81 800 69 806 q 106 806 92 806 q 144 790 128 806 q 161 751 161 774 q 144 711 161 728 q 106 694 128 694 q 81 700 92 694 q 56 694 69 694 q 17 711 33 694 m 17 850 q 8 858 17 850 q 0 890 0 867 q 17 928 0 913 q 56 944 33 944 q 81 939 69 944 q 106 944 92 944 q 131 939 119 944 q 156 944 142 944 q 181 939 169 944 q 206 944 192 944 q 231 939 219 944 q 256 944 242 944 q 281 939 269 944 q 306 944 292 944 q 331 939 319 944 q 356 944 342 944 q 381 939 369 944 q 406 944 392 944 q 431 939 419 944 q 456 944 442 944 q 481 939 469 944 q 506 944 492 944 q 544 928 528 944 q 561 890 561 913 q 544 850 561 867 q 506 833 528 833 q 481 839 492 833 q 456 833 469 833 q 431 839 442 833 q 406 833 419 833 q 381 839 392 833 q 356 833 369 833 q 331 839 342 833 q 306 833 319 833 q 281 839 292 833 q 256 833 269 833 q 231 839 242 833 q 206 833 219 833 q 181 839 192 833 q 156 833 169 833 q 131 839 142 833 q 106 833 119 833 q 81 839 92 833 q 56 833 69 833 q 17 850 33 833 z "},"G":{"ha":600,"x_min":0,"x_max":561,"o":"m 50 56 q 67 95 50 79 q 106 111 83 111 q 131 106 119 111 q 156 111 142 111 q 181 106 169 111 q 206 111 192 111 q 231 106 219 111 q 256 111 242 111 q 281 106 269 111 q 306 111 292 111 q 331 106 319 111 q 356 111 342 111 q 381 106 369 111 q 406 111 392 111 q 431 106 419 111 q 456 111 442 111 q 494 95 478 111 q 511 56 511 79 q 494 17 511 33 q 456 0 478 0 q 431 6 442 0 q 406 0 419 0 q 381 6 392 0 q 356 0 369 0 q 331 6 342 0 q 306 0 319 0 q 281 6 292 0 q 256 0 269 0 q 231 6 242 0 q 206 0 219 0 q 181 6 192 0 q 156 0 169 0 q 131 6 142 0 q 106 0 119 0 q 67 17 83 0 q 50 56 50 33 m 417 156 q 408 164 417 156 q 400 195 400 172 q 417 234 400 218 q 456 250 433 250 q 481 244 469 250 q 506 250 492 250 q 544 234 528 250 q 561 195 561 218 q 544 156 561 172 q 506 139 528 139 q 481 144 492 139 q 456 139 469 139 q 417 156 433 139 m 17 156 q 8 164 17 156 q 0 195 0 172 q 17 234 0 218 q 56 250 33 250 q 81 244 69 250 q 106 250 92 250 q 144 234 128 250 q 161 195 161 218 q 144 156 161 172 q 106 139 128 139 q 81 144 92 139 q 56 139 69 139 q 17 156 33 139 m 417 294 q 408 303 417 294 q 400 334 400 311 q 417 373 400 357 q 456 389 433 389 q 481 383 469 389 q 506 389 492 389 q 544 373 528 389 q 561 334 561 357 q 544 294 561 311 q 506 278 528 278 q 481 283 492 278 q 456 278 469 278 q 417 294 433 278 m 17 294 q 8 303 17 294 q 0 334 0 311 q 17 373 0 357 q 56 389 33 389 q 81 383 69 389 q 106 389 92 389 q 144 373 128 389 q 161 334 161 357 q 144 294 161 311 q 106 278 128 278 q 81 283 92 278 q 56 278 69 278 q 17 294 33 278 m 217 433 q 208 442 217 433 q 200 473 200 450 q 217 512 200 496 q 256 528 233 528 q 281 522 269 528 q 306 528 292 528 q 331 522 319 528 q 356 528 342 528 q 381 522 369 528 q 406 528 392 528 q 431 522 419 528 q 456 528 442 528 q 481 522 469 528 q 506 528 492 528 q 544 512 528 528 q 561 473 561 496 q 544 433 561 450 q 506 417 528 417 q 481 422 492 417 q 456 417 469 417 q 431 422 442 417 q 406 417 419 417 q 381 422 392 417 q 356 417 369 417 q 331 422 342 417 q 306 417 319 417 q 281 422 292 417 q 256 417 269 417 q 217 433 233 417 m 17 433 q 8 442 17 433 q 0 473 0 450 q 17 512 0 496 q 56 528 33 528 q 81 522 69 528 q 106 528 92 528 q 144 512 128 528 q 161 473 161 496 q 144 433 161 450 q 106 417 128 417 q 81 422 92 417 q 56 417 69 417 q 17 433 33 417 m 17 572 q 8 581 17 572 q 0 612 0 589 q 17 651 0 635 q 56 667 33 667 q 81 661 69 667 q 106 667 92 667 q 144 651 128 667 q 161 612 161 635 q 144 572 161 589 q 106 556 128 556 q 81 561 92 556 q 56 556 69 556 q 17 572 33 556 m 417 711 q 408 719 417 711 q 400 751 400 728 q 417 790 400 774 q 456 806 433 806 q 481 800 469 806 q 506 806 492 806 q 544 790 528 806 q 561 751 561 774 q 544 711 561 728 q 506 694 528 694 q 481 700 492 694 q 456 694 469 694 q 417 711 433 694 m 17 711 q 8 719 17 711 q 0 751 0 728 q 17 790 0 774 q 56 806 33 806 q 81 800 69 806 q 106 806 92 806 q 144 790 128 806 q 161 751 161 774 q 144 711 161 728 q 106 694 128 694 q 81 700 92 694 q 56 694 69 694 q 17 711 33 694 m 67 850 q 58 858 67 850 q 50 890 50 867 q 67 928 50 913 q 106 944 83 944 q 131 939 119 944 q 156 944 142 944 q 181 939 169 944 q 206 944 192 944 q 231 939 219 944 q 256 944 242 944 q 281 939 269 944 q 306 944 292 944 q 331 939 319 944 q 356 944 342 944 q 381 939 369 944 q 406 944 392 944 q 431 939 419 944 q 456 944 442 944 q 494 928 478 944 q 511 890 511 913 q 494 850 511 867 q 456 833 478 833 q 431 839 442 833 q 406 833 419 833 q 381 839 392 833 q 356 833 369 833 q 331 839 342 833 q 306 833 319 833 q 281 839 292 833 q 256 833 269 833 q 231 839 242 833 q 206 833 219 833 q 181 839 192 833 q 156 833 169 833 q 131 839 142 833 q 106 833 119 833 q 67 850 83 833 z "},"H":{"ha":600,"x_min":0,"x_max":561,"o":"m 400 56 q 417 95 400 79 q 456 111 433 111 q 481 106 469 111 q 506 111 492 111 q 544 95 528 111 q 561 56 561 79 q 544 17 561 33 q 506 0 528 0 q 481 6 492 0 q 456 0 469 0 q 417 17 433 0 q 400 56 400 33 m 17 17 q 8 25 17 17 q 0 56 0 33 q 17 95 0 79 q 56 111 33 111 q 81 106 69 111 q 106 111 92 111 q 144 95 128 111 q 161 56 161 79 q 144 17 161 33 q 106 0 128 0 q 81 6 92 0 q 56 0 69 0 q 17 17 33 0 m 417 156 q 408 164 417 156 q 400 195 400 172 q 417 234 400 218 q 456 250 433 250 q 481 244 469 250 q 506 250 492 250 q 544 234 528 250 q 561 195 561 218 q 544 156 561 172 q 506 139 528 139 q 481 144 492 139 q 456 139 469 139 q 417 156 433 139 m 17 156 q 8 164 17 156 q 0 195 0 172 q 17 234 0 218 q 56 250 33 250 q 81 244 69 250 q 106 250 92 250 q 144 234 128 250 q 161 195 161 218 q 144 156 161 172 q 106 139 128 139 q 81 144 92 139 q 56 139 69 139 q 17 156 33 139 m 417 294 q 408 303 417 294 q 400 334 400 311 q 417 373 400 357 q 456 389 433 389 q 481 383 469 389 q 506 389 492 389 q 544 373 528 389 q 561 334 561 357 q 544 294 561 311 q 506 278 528 278 q 481 283 492 278 q 456 278 469 278 q 417 294 433 278 m 17 294 q 8 303 17 294 q 0 334 0 311 q 17 373 0 357 q 56 389 33 389 q 81 383 69 389 q 106 389 92 389 q 144 373 128 389 q 161 334 161 357 q 144 294 161 311 q 106 278 128 278 q 81 283 92 278 q 56 278 69 278 q 17 294 33 278 m 17 433 q 8 442 17 433 q 0 473 0 450 q 17 512 0 496 q 56 528 33 528 q 81 522 69 528 q 106 528 92 528 q 131 522 119 528 q 156 528 142 528 q 181 522 169 528 q 206 528 192 528 q 231 522 219 528 q 256 528 242 528 q 281 522 269 528 q 306 528 292 528 q 331 522 319 528 q 356 528 342 528 q 381 522 369 528 q 406 528 392 528 q 431 522 419 528 q 456 528 442 528 q 481 522 469 528 q 506 528 492 528 q 544 512 528 528 q 561 473 561 496 q 544 433 561 450 q 506 417 528 417 q 481 422 492 417 q 456 417 469 417 q 431 422 442 417 q 406 417 419 417 q 381 422 392 417 q 356 417 369 417 q 331 422 342 417 q 306 417 319 417 q 281 422 292 417 q 256 417 269 417 q 231 422 242 417 q 206 417 219 417 q 181 422 192 417 q 156 417 169 417 q 131 422 142 417 q 106 417 119 417 q 81 422 92 417 q 56 417 69 417 q 17 433 33 417 m 417 572 q 408 581 417 572 q 400 612 400 589 q 417 651 400 635 q 456 667 433 667 q 481 661 469 667 q 506 667 492 667 q 544 651 528 667 q 561 612 561 635 q 544 572 561 589 q 506 556 528 556 q 481 561 492 556 q 456 556 469 556 q 417 572 433 556 m 17 572 q 8 581 17 572 q 0 612 0 589 q 17 651 0 635 q 56 667 33 667 q 81 661 69 667 q 106 667 92 667 q 144 651 128 667 q 161 612 161 635 q 144 572 161 589 q 106 556 128 556 q 81 561 92 556 q 56 556 69 556 q 17 572 33 556 m 417 711 q 408 719 417 711 q 400 751 400 728 q 417 790 400 774 q 456 806 433 806 q 481 800 469 806 q 506 806 492 806 q 544 790 528 806 q 561 751 561 774 q 544 711 561 728 q 506 694 528 694 q 481 700 492 694 q 456 694 469 694 q 417 711 433 694 m 17 711 q 8 719 17 711 q 0 751 0 728 q 17 790 0 774 q 56 806 33 806 q 81 800 69 806 q 106 806 92 806 q 144 790 128 806 q 161 751 161 774 q 144 711 161 728 q 106 694 128 694 q 81 700 92 694 q 56 694 69 694 q 17 711 33 694 m 417 850 q 408 858 417 850 q 400 890 400 867 q 417 928 400 913 q 456 944 433 944 q 481 939 469 944 q 506 944 492 944 q 544 928 528 944 q 561 890 561 913 q 544 850 561 867 q 506 833 528 833 q 481 839 492 833 q 456 833 469 833 q 417 850 433 833 m 17 850 q 8 858 17 850 q 0 890 0 867 q 17 928 0 913 q 56 944 33 944 q 81 939 69 944 q 106 944 92 944 q 144 928 128 944 q 161 890 161 913 q 144 850 161 867 q 106 833 128 833 q 81 839 92 833 q 56 833 69 833 q 17 850 33 833 z "},"I":{"ha":600,"x_min":100,"x_max":461,"o":"m 100 56 q 117 95 100 79 q 156 111 133 111 q 181 106 169 111 q 206 111 192 111 q 231 106 219 111 q 256 111 242 111 q 281 106 269 111 q 306 111 292 111 q 331 106 319 111 q 356 111 342 111 q 381 106 369 111 q 406 111 392 111 q 444 95 428 111 q 461 56 461 79 q 444 17 461 33 q 406 0 428 0 q 381 6 392 0 q 356 0 369 0 q 331 6 342 0 q 306 0 319 0 q 281 6 292 0 q 256 0 269 0 q 231 6 242 0 q 206 0 219 0 q 181 6 192 0 q 156 0 169 0 q 117 17 133 0 q 100 56 100 33 m 217 156 q 208 164 217 156 q 200 195 200 172 q 217 234 200 218 q 256 250 233 250 q 281 244 269 250 q 306 250 292 250 q 344 234 328 250 q 361 195 361 218 q 344 156 361 172 q 306 139 328 139 q 281 144 292 139 q 256 139 269 139 q 217 156 233 139 m 217 294 q 208 303 217 294 q 200 334 200 311 q 217 373 200 357 q 256 389 233 389 q 281 383 269 389 q 306 389 292 389 q 344 373 328 389 q 361 334 361 357 q 344 294 361 311 q 306 278 328 278 q 281 283 292 278 q 256 278 269 278 q 217 294 233 278 m 217 433 q 208 442 217 433 q 200 473 200 450 q 217 512 200 496 q 256 528 233 528 q 281 522 269 528 q 306 528 292 528 q 344 512 328 528 q 361 473 361 496 q 344 433 361 450 q 306 417 328 417 q 281 422 292 417 q 256 417 269 417 q 217 433 233 417 m 217 572 q 208 581 217 572 q 200 612 200 589 q 217 651 200 635 q 256 667 233 667 q 281 661 269 667 q 306 667 292 667 q 344 651 328 667 q 361 612 361 635 q 344 572 361 589 q 306 556 328 556 q 281 561 292 556 q 256 556 269 556 q 217 572 233 556 m 217 711 q 208 719 217 711 q 200 751 200 728 q 217 790 200 774 q 256 806 233 806 q 281 800 269 806 q 306 806 292 806 q 344 790 328 806 q 361 751 361 774 q 344 711 361 728 q 306 694 328 694 q 281 700 292 694 q 256 694 269 694 q 217 711 233 694 m 117 850 q 108 858 117 850 q 100 890 100 867 q 117 928 100 913 q 156 944 133 944 q 181 939 169 944 q 206 944 192 944 q 231 939 219 944 q 256 944 242 944 q 281 939 269 944 q 306 944 292 944 q 331 939 319 944 q 356 944 342 944 q 381 939 369 944 q 406 944 392 944 q 444 928 428 944 q 461 890 461 913 q 444 850 461 867 q 406 833 428 833 q 381 839 392 833 q 356 833 369 833 q 331 839 342 833 q 306 833 319 833 q 281 839 292 833 q 256 833 269 833 q 231 839 242 833 q 206 833 219 833 q 181 839 192 833 q 156 833 169 833 q 117 850 133 833 z "},"J":{"ha":600,"x_min":0,"x_max":511,"o":"m 50 56 q 67 95 50 79 q 106 111 83 111 q 131 106 119 111 q 156 111 142 111 q 181 106 169 111 q 206 111 192 111 q 231 106 219 111 q 256 111 242 111 q 281 106 269 111 q 306 111 292 111 q 331 106 319 111 q 356 111 342 111 q 394 95 378 111 q 411 56 411 79 q 394 17 411 33 q 356 0 378 0 q 331 6 342 0 q 306 0 319 0 q 281 6 292 0 q 256 0 269 0 q 231 6 242 0 q 206 0 219 0 q 181 6 192 0 q 156 0 169 0 q 131 6 142 0 q 106 0 119 0 q 67 17 83 0 q 50 56 50 33 m 317 156 q 308 164 317 156 q 300 195 300 172 q 317 234 300 218 q 356 250 333 250 q 381 244 369 250 q 406 250 392 250 q 444 234 428 250 q 461 195 461 218 q 444 156 461 172 q 406 139 428 139 q 381 144 392 139 q 356 139 369 139 q 317 156 333 139 m 17 156 q 8 164 17 156 q 0 195 0 172 q 17 234 0 218 q 56 250 33 250 q 81 244 69 250 q 106 250 92 250 q 144 234 128 250 q 161 195 161 218 q 144 156 161 172 q 106 139 128 139 q 81 144 92 139 q 56 139 69 139 q 17 156 33 139 m 317 294 q 308 303 317 294 q 300 334 300 311 q 317 373 300 357 q 356 389 333 389 q 381 383 369 389 q 406 389 392 389 q 444 373 428 389 q 461 334 461 357 q 444 294 461 311 q 406 278 428 278 q 381 283 392 278 q 356 278 369 278 q 317 294 333 278 m 17 294 q 8 303 17 294 q 0 334 0 311 q 17 373 0 357 q 56 389 33 389 q 81 383 69 389 q 106 389 92 389 q 144 373 128 389 q 161 334 161 357 q 144 294 161 311 q 106 278 128 278 q 81 283 92 278 q 56 278 69 278 q 17 294 33 278 m 317 433 q 308 442 317 433 q 300 473 300 450 q 317 512 300 496 q 356 528 333 528 q 381 522 369 528 q 406 528 392 528 q 444 512 428 528 q 461 473 461 496 q 444 433 461 450 q 406 417 428 417 q 381 422 392 417 q 356 417 369 417 q 317 433 333 417 m 317 572 q 308 581 317 572 q 300 612 300 589 q 317 651 300 635 q 356 667 333 667 q 381 661 369 667 q 406 667 392 667 q 444 651 428 667 q 461 612 461 635 q 444 572 461 589 q 406 556 428 556 q 381 561 392 556 q 356 556 369 556 q 317 572 333 556 m 317 711 q 308 719 317 711 q 300 751 300 728 q 317 790 300 774 q 356 806 333 806 q 381 800 369 806 q 406 806 392 806 q 444 790 428 806 q 461 751 461 774 q 444 711 461 728 q 406 694 428 694 q 381 700 392 694 q 356 694 369 694 q 317 711 333 694 m 167 850 q 158 858 167 850 q 150 890 150 867 q 167 928 150 913 q 206 944 183 944 q 231 939 219 944 q 256 944 242 944 q 281 939 269 944 q 306 944 292 944 q 331 939 319 944 q 356 944 342 944 q 381 939 369 944 q 406 944 392 944 q 431 939 419 944 q 456 944 442 944 q 494 928 478 944 q 511 890 511 913 q 494 850 511 867 q 456 833 478 833 q 431 839 442 833 q 406 833 419 833 q 381 839 392 833 q 356 833 369 833 q 331 839 342 833 q 306 833 319 833 q 281 839 292 833 q 256 833 269 833 q 231 839 242 833 q 206 833 219 833 q 167 850 183 833 z "},"K":{"ha":600,"x_min":0,"x_max":561,"o":"m 400 56 q 417 95 400 79 q 456 111 433 111 q 481 106 469 111 q 506 111 492 111 q 544 95 528 111 q 561 56 561 79 q 544 17 561 33 q 506 0 528 0 q 481 6 492 0 q 456 0 469 0 q 417 17 433 0 q 400 56 400 33 m 17 17 q 8 25 17 17 q 0 56 0 33 q 17 95 0 79 q 56 111 33 111 q 81 106 69 111 q 106 111 92 111 q 144 95 128 111 q 161 56 161 79 q 144 17 161 33 q 106 0 128 0 q 81 6 92 0 q 56 0 69 0 q 17 17 33 0 m 317 156 q 308 164 317 156 q 300 195 300 172 q 317 234 300 218 q 356 250 333 250 q 381 244 369 250 q 406 250 392 250 q 444 234 428 250 q 461 195 461 218 q 444 156 461 172 q 406 139 428 139 q 381 144 392 139 q 356 139 369 139 q 317 156 333 139 m 17 156 q 8 164 17 156 q 0 195 0 172 q 17 234 0 218 q 56 250 33 250 q 81 244 69 250 q 106 250 92 250 q 144 234 128 250 q 161 195 161 218 q 144 156 161 172 q 106 139 128 139 q 81 144 92 139 q 56 139 69 139 q 17 156 33 139 m 217 294 q 208 303 217 294 q 200 334 200 311 q 217 373 200 357 q 256 389 233 389 q 281 383 269 389 q 306 389 292 389 q 344 373 328 389 q 361 334 361 357 q 344 294 361 311 q 306 278 328 278 q 281 283 292 278 q 256 278 269 278 q 217 294 233 278 m 17 294 q 8 303 17 294 q 0 334 0 311 q 17 373 0 357 q 56 389 33 389 q 81 383 69 389 q 106 389 92 389 q 144 373 128 389 q 161 334 161 357 q 144 294 161 311 q 106 278 128 278 q 81 283 92 278 q 56 278 69 278 q 17 294 33 278 m 17 433 q 8 442 17 433 q 0 473 0 450 q 17 512 0 496 q 56 528 33 528 q 81 522 69 528 q 106 528 92 528 q 131 522 119 528 q 156 528 142 528 q 181 522 169 528 q 206 528 192 528 q 244 512 228 528 q 261 473 261 496 q 244 433 261 450 q 206 417 228 417 q 181 422 192 417 q 156 417 169 417 q 131 422 142 417 q 106 417 119 417 q 81 422 92 417 q 56 417 69 417 q 17 433 33 417 m 217 572 q 208 581 217 572 q 200 612 200 589 q 217 651 200 635 q 256 667 233 667 q 281 661 269 667 q 306 667 292 667 q 344 651 328 667 q 361 612 361 635 q 344 572 361 589 q 306 556 328 556 q 281 561 292 556 q 256 556 269 556 q 217 572 233 556 m 17 572 q 8 581 17 572 q 0 612 0 589 q 17 651 0 635 q 56 667 33 667 q 81 661 69 667 q 106 667 92 667 q 144 651 128 667 q 161 612 161 635 q 144 572 161 589 q 106 556 128 556 q 81 561 92 556 q 56 556 69 556 q 17 572 33 556 m 317 711 q 308 719 317 711 q 300 751 300 728 q 317 790 300 774 q 356 806 333 806 q 381 800 369 806 q 406 806 392 806 q 444 790 428 806 q 461 751 461 774 q 444 711 461 728 q 406 694 428 694 q 381 700 392 694 q 356 694 369 694 q 317 711 333 694 m 17 711 q 8 719 17 711 q 0 751 0 728 q 17 790 0 774 q 56 806 33 806 q 81 800 69 806 q 106 806 92 806 q 144 790 128 806 q 161 751 161 774 q 144 711 161 728 q 106 694 128 694 q 81 700 92 694 q 56 694 69 694 q 17 711 33 694 m 417 850 q 408 858 417 850 q 400 890 400 867 q 417 928 400 913 q 456 944 433 944 q 481 939 469 944 q 506 944 492 944 q 544 928 528 944 q 561 890 561 913 q 544 850 561 867 q 506 833 528 833 q 481 839 492 833 q 456 833 469 833 q 417 850 433 833 m 17 850 q 8 858 17 850 q 0 890 0 867 q 17 928 0 913 q 56 944 33 944 q 81 939 69 944 q 106 944 92 944 q 144 928 128 944 q 161 890 161 913 q 144 850 161 867 q 106 833 128 833 q 81 839 92 833 q 56 833 69 833 q 17 850 33 833 z "},"L":{"ha":600,"x_min":0,"x_max":561,"o":"m 0 56 q 17 95 0 79 q 56 111 33 111 q 81 106 69 111 q 106 111 92 111 q 131 106 119 111 q 156 111 142 111 q 181 106 169 111 q 206 111 192 111 q 231 106 219 111 q 256 111 242 111 q 281 106 269 111 q 306 111 292 111 q 331 106 319 111 q 356 111 342 111 q 381 106 369 111 q 406 111 392 111 q 431 106 419 111 q 456 111 442 111 q 481 106 469 111 q 506 111 492 111 q 544 95 528 111 q 561 56 561 79 q 544 17 561 33 q 506 0 528 0 q 481 6 492 0 q 456 0 469 0 q 431 6 442 0 q 406 0 419 0 q 381 6 392 0 q 356 0 369 0 q 331 6 342 0 q 306 0 319 0 q 281 6 292 0 q 256 0 269 0 q 231 6 242 0 q 206 0 219 0 q 181 6 192 0 q 156 0 169 0 q 131 6 142 0 q 106 0 119 0 q 81 6 92 0 q 56 0 69 0 q 17 17 33 0 q 0 56 0 33 m 17 156 q 8 164 17 156 q 0 195 0 172 q 17 234 0 218 q 56 250 33 250 q 81 244 69 250 q 106 250 92 250 q 144 234 128 250 q 161 195 161 218 q 144 156 161 172 q 106 139 128 139 q 81 144 92 139 q 56 139 69 139 q 17 156 33 139 m 17 294 q 8 303 17 294 q 0 334 0 311 q 17 373 0 357 q 56 389 33 389 q 81 383 69 389 q 106 389 92 389 q 144 373 128 389 q 161 334 161 357 q 144 294 161 311 q 106 278 128 278 q 81 283 92 278 q 56 278 69 278 q 17 294 33 278 m 17 433 q 8 442 17 433 q 0 473 0 450 q 17 512 0 496 q 56 528 33 528 q 81 522 69 528 q 106 528 92 528 q 144 512 128 528 q 161 473 161 496 q 144 433 161 450 q 106 417 128 417 q 81 422 92 417 q 56 417 69 417 q 17 433 33 417 m 17 572 q 8 581 17 572 q 0 612 0 589 q 17 651 0 635 q 56 667 33 667 q 81 661 69 667 q 106 667 92 667 q 144 651 128 667 q 161 612 161 635 q 144 572 161 589 q 106 556 128 556 q 81 561 92 556 q 56 556 69 556 q 17 572 33 556 m 17 711 q 8 719 17 711 q 0 751 0 728 q 17 790 0 774 q 56 806 33 806 q 81 800 69 806 q 106 806 92 806 q 144 790 128 806 q 161 751 161 774 q 144 711 161 728 q 106 694 128 694 q 81 700 92 694 q 56 694 69 694 q 17 711 33 694 m 17 850 q 8 858 17 850 q 0 890 0 867 q 17 928 0 913 q 56 944 33 944 q 81 939 69 944 q 106 944 92 944 q 144 928 128 944 q 161 890 161 913 q 144 850 161 867 q 106 833 128 833 q 81 839 92 833 q 56 833 69 833 q 17 850 33 833 z "},"M":{"ha":600,"x_min":0,"x_max":561,"o":"m 400 56 q 417 95 400 79 q 456 111 433 111 q 481 106 469 111 q 506 111 492 111 q 544 95 528 111 q 561 56 561 79 q 544 17 561 33 q 506 0 528 0 q 481 6 492 0 q 456 0 469 0 q 417 17 433 0 q 400 56 400 33 m 17 17 q 8 25 17 17 q 0 56 0 33 q 17 95 0 79 q 56 111 33 111 q 81 106 69 111 q 106 111 92 111 q 144 95 128 111 q 161 56 161 79 q 144 17 161 33 q 106 0 128 0 q 81 6 92 0 q 56 0 69 0 q 17 17 33 0 m 417 156 q 408 164 417 156 q 400 195 400 172 q 417 234 400 218 q 456 250 433 250 q 481 244 469 250 q 506 250 492 250 q 544 234 528 250 q 561 195 561 218 q 544 156 561 172 q 506 139 528 139 q 481 144 492 139 q 456 139 469 139 q 417 156 433 139 m 17 156 q 8 164 17 156 q 0 195 0 172 q 17 234 0 218 q 56 250 33 250 q 81 244 69 250 q 106 250 92 250 q 144 234 128 250 q 161 195 161 218 q 144 156 161 172 q 106 139 128 139 q 81 144 92 139 q 56 139 69 139 q 17 156 33 139 m 417 294 q 408 303 417 294 q 400 334 400 311 q 417 373 400 357 q 456 389 433 389 q 481 383 469 389 q 506 389 492 389 q 544 373 528 389 q 561 334 561 357 q 544 294 561 311 q 506 278 528 278 q 481 283 492 278 q 456 278 469 278 q 417 294 433 278 m 17 294 q 8 303 17 294 q 0 334 0 311 q 17 373 0 357 q 56 389 33 389 q 81 383 69 389 q 106 389 92 389 q 144 373 128 389 q 161 334 161 357 q 144 294 161 311 q 106 278 128 278 q 81 283 92 278 q 56 278 69 278 q 17 294 33 278 m 417 433 q 408 442 417 433 q 400 473 400 450 q 417 512 400 496 q 456 528 433 528 q 481 522 469 528 q 506 528 492 528 q 544 512 528 528 q 561 473 561 496 q 544 433 561 450 q 506 417 528 417 q 481 422 492 417 q 456 417 469 417 q 417 433 433 417 m 217 433 q 208 442 217 433 q 200 473 200 450 q 217 512 200 496 q 256 528 233 528 q 281 522 269 528 q 306 528 292 528 q 344 512 328 528 q 361 473 361 496 q 344 433 361 450 q 306 417 328 417 q 281 422 292 417 q 256 417 269 417 q 217 433 233 417 m 17 433 q 8 442 17 433 q 0 473 0 450 q 17 512 0 496 q 56 528 33 528 q 81 522 69 528 q 106 528 92 528 q 144 512 128 528 q 161 473 161 496 q 144 433 161 450 q 106 417 128 417 q 81 422 92 417 q 56 417 69 417 q 17 433 33 417 m 17 572 q 8 581 17 572 q 0 612 0 589 q 17 651 0 635 q 56 667 33 667 q 81 661 69 667 q 106 667 92 667 q 156 635 140 667 q 206 667 171 667 q 231 661 219 667 q 256 667 242 667 q 281 661 269 667 q 306 667 292 667 q 331 661 319 667 q 356 667 342 667 q 406 635 390 667 q 456 667 421 667 q 481 661 469 667 q 506 667 492 667 q 544 651 528 667 q 561 612 561 635 q 544 572 561 589 q 506 556 528 556 q 481 561 492 556 q 456 556 469 556 q 406 588 421 556 q 356 556 390 556 q 331 561 342 556 q 306 556 319 556 q 281 561 292 556 q 256 556 269 556 q 231 561 242 556 q 206 556 219 556 q 156 588 171 556 q 106 556 140 556 q 81 561 92 556 q 56 556 69 556 q 17 572 33 556 m 317 711 q 308 719 317 711 q 300 751 300 728 q 317 790 300 774 q 356 806 333 806 q 381 800 369 806 q 406 806 392 806 q 431 800 419 806 q 456 806 442 806 q 481 800 469 806 q 506 806 492 806 q 544 790 528 806 q 561 751 561 774 q 544 711 561 728 q 506 694 528 694 q 481 700 492 694 q 456 694 469 694 q 431 700 442 694 q 406 694 419 694 q 381 700 392 694 q 356 694 369 694 q 317 711 333 694 m 17 711 q 8 719 17 711 q 0 751 0 728 q 17 790 0 774 q 56 806 33 806 q 81 800 69 806 q 106 806 92 806 q 131 800 119 806 q 156 806 142 806 q 181 800 169 806 q 206 806 192 806 q 244 790 228 806 q 261 751 261 774 q 244 711 261 728 q 206 694 228 694 q 181 700 192 694 q 156 694 169 694 q 131 700 142 694 q 106 694 119 694 q 81 700 92 694 q 56 694 69 694 q 17 711 33 694 m 417 850 q 408 858 417 850 q 400 890 400 867 q 417 928 400 913 q 456 944 433 944 q 481 939 469 944 q 506 944 492 944 q 544 928 528 944 q 561 890 561 913 q 544 850 561 867 q 506 833 528 833 q 481 839 492 833 q 456 833 469 833 q 417 850 433 833 m 17 850 q 8 858 17 850 q 0 890 0 867 q 17 928 0 913 q 56 944 33 944 q 81 939 69 944 q 106 944 92 944 q 144 928 128 944 q 161 890 161 913 q 144 850 161 867 q 106 833 128 833 q 81 839 92 833 q 56 833 69 833 q 17 850 33 833 z "}}}
